<?xml version="1.0" encoding="UTF-8" standalone="no"?>
<svg
   version="1.2"
   width="65.010002mm"
   height="43.099998mm"
   viewBox="0 0 6501.0002 4309.9998"
   preserveAspectRatio="xMidYMid"
   xml:space="preserve"
   id="svg4089"
   sodipodi:docname="MZ_logo_new2.svg"
   style="fill-rule:evenodd;stroke-width:28.222;stroke-linejoin:round"
   inkscape:version="1.1.1 (3bf5ae0d25, 2021-09-20)"
   xmlns:inkscape="http://www.inkscape.org/namespaces/inkscape"
   xmlns:sodipodi="http://sodipodi.sourceforge.net/DTD/sodipodi-0.dtd"
   xmlns="http://www.w3.org/2000/svg"
   xmlns:svg="http://www.w3.org/2000/svg"
   xmlns:rdf="http://www.w3.org/1999/02/22-rdf-syntax-ns#"
   xmlns:cc="http://creativecommons.org/ns#"
   xmlns:dc="http://purl.org/dc/elements/1.1/"><metadata
   id="metadata4093"><rdf:RDF><cc:Work
       rdf:about=""><dc:format>image/svg+xml</dc:format><dc:type
         rdf:resource="http://purl.org/dc/dcmitype/StillImage" /></cc:Work></rdf:RDF></metadata><sodipodi:namedview
   pagecolor="#ffffff"
   bordercolor="#666666"
   borderopacity="1"
   objecttolerance="10"
   gridtolerance="10"
   guidetolerance="10"
   inkscape:pageopacity="0"
   inkscape:pageshadow="2"
   inkscape:window-width="1373"
   inkscape:window-height="1008"
   id="namedview4091"
   showgrid="false"
   fit-margin-top="0"
   fit-margin-left="0"
   fit-margin-right="-9.1"
   fit-margin-bottom="0"
   inkscape:zoom="1.1147697"
   inkscape:cx="103.16032"
   inkscape:cy="69.96961"
   inkscape:window-x="-7"
   inkscape:window-y="0"
   inkscape:window-maximized="0"
   inkscape:current-layer="g4085"
   inkscape:pagecheckerboard="true"
   inkscape:document-units="mm" />
 <defs
   class="ClipPathGroup"
   id="defs3929"><clipPath
     id="presentation_clip_path"
     clipPathUnits="userSpaceOnUse">
   <rect
   x="0"
   y="0"
   width="13208"
   height="13208"
   id="rect3923" />
  </clipPath></defs>
 <defs
   class="TextShapeIndex"
   id="defs3933" />
 <defs
   class="EmbeddedBulletChars"
   id="defs3965" />
 <defs
   class="TextEmbeddedBitmaps"
   id="defs3967" />
 <g
   id="g3972"
   transform="translate(-67,-25)">
  <g
   id="id2"
   class="Master_Slide">
   <g
   id="bg-id2"
   class="Background" />
   <g
   id="bo-id2"
   class="BackgroundObjects" />
  </g>
 </g>
 <g
   class="SlideGroup"
   id="g4087"
   transform="translate(-67,-25)">
  <g
   id="g4085">
   <g
   id="container-id1">
    <g
   id="id1"
   class="Slide"
   clip-path="url(#presentation_clip_path)">
     <g
   class="Page"
   id="g4081">
      <g
   class="com.sun.star.drawing.ClosedBezierShape"
   id="g3979">
       <g
   id="id3">
        <rect
   class="BoundingBox"
   x="67"
   y="25"
   width="6500"
   height="4310"
   id="rect3974"
   style="fill:none;stroke:none" />
        
       </g>
      </g>
      <g
   class="com.sun.star.drawing.ClosedBezierShape"
   id="g3986">
       <g
   id="id4">
        <rect
   class="BoundingBox"
   x="1782"
   y="25"
   width="1465"
   height="4310"
   id="rect3981"
   style="fill:none;stroke:none" />
        <path
   d="m 2518,688 c 211,-54 459,-69 663,-130 137,137 31,271 -101,360 -159,108 -438,187 -548,260 -139,873 -317,1888 -404,2839 -13,145 14,264 -115,317 -92,-53 -58,-201 -58,-303 0,-848 45,-1831 115,-2724 -77,-28 -196,-15 -273,-43 0,-157 0,-230 -15,-360 135,-29 253,-74 375,-115 99,-248 36,-655 275,-764 76,20 89,103 144,144 -14,132 -41,346 -58,519 z"
   id="path3983"
   inkscape:connector-curvature="0"
   style="fill:#ed1c24;stroke:none" />
       </g>
      </g>
      <g
   class="com.sun.star.drawing.ClosedBezierShape"
   id="g3993">
       <g
   id="id5">
        <rect
   class="BoundingBox"
   x="2582"
   y="1091"
   width="1767"
   height="2133"
   id="rect3988"
   style="fill:none;stroke:none" />
        <path
   d="m 4087,1235 v 216 c -394,441 -753,920 -1037,1471 198,46 458,46 720,14 217,-26 388,-119 578,-43 -214,167 -755,259 -1168,303 -195,20 -543,75 -591,-72 -38,-117 93,-341 144,-447 194,-402 437,-750 605,-1154 -190,-63 -324,-21 -547,-57 -59,-66 -115,-135 -144,-231 237,-51 502,-74 792,-72 25,-18 18,-69 58,-72 204,41 383,107 590,144 z"
   id="path3990"
   inkscape:connector-curvature="0"
   style="fill:#000000;stroke:none" />
       </g>
      </g>
      <g
   class="com.sun.star.drawing.ClosedBezierShape"
   id="g4000">
       <g
   id="id6">
        <rect
   class="BoundingBox"
   x="4203"
   y="1350"
   width="463"
   height="391"
   id="rect3995"
   style="fill:none;stroke:none" />
        <path
   d="m 4665,1495 c -97,90 -207,169 -318,245 -66,-15 -96,-67 -144,-101 75,-146 205,-237 375,-289 54,23 21,133 87,145 z"
   id="path3997"
   inkscape:connector-curvature="0"
   style="fill:#000000;stroke:none" />
       </g>
      </g>
      <g
   class="com.sun.star.drawing.ClosedBezierShape"
   id="g4007">
       <g
   id="id7">
        <rect
   class="BoundingBox"
   x="68"
   y="1408"
   width="1678"
   height="2509"
   id="rect4002"
   style="fill:none;stroke:none" />
        <path
   d="m 1697,1495 c 38,410 68,953 29,1312 -53,63 -101,129 -130,216 -169,76 -236,254 -389,345 40,-366 23,-814 58,-1239 -180,257 -270,605 -505,807 C 610,2813 547,2602 501,2374 368,2852 297,3390 169,3873 c -52,-4 -53,43 -101,43 59,-819 167,-1591 332,-2306 170,-28 204,-190 404,-188 2,194 6,320 28,533 9,87 26,308 87,319 56,9 203,-333 230,-390 97,-206 145,-306 202,-476 127,17 251,37 346,87 z"
   id="path4004"
   inkscape:connector-curvature="0"
   style="fill:#000000;stroke:none" />
       </g>
      </g>
      <g
   class="com.sun.star.drawing.ClosedBezierShape"
   id="g4014">
       <g
   id="id8">
        <rect
   class="BoundingBox"
   x="4685"
   y="1507"
   width="766"
   height="1084"
   id="rect4009"
   style="fill:none;stroke:none" />
        <path
   d="m 4866,2173 c 115,39 227,-27 260,-116 -79,-65 -139,-149 -260,-172 -1,112 -22,183 0,288 z m -144,389 c -97,-228 37,-556 -28,-778 63,-66 172,-257 302,-275 146,-21 420,137 448,245 55,214 -287,695 -405,779 -78,56 -214,80 -317,29 z"
   id="path4011"
   inkscape:connector-curvature="0"
   style="fill:#000000;stroke:none" />
       </g>
      </g>
      <g
   class="com.sun.star.drawing.ClosedBezierShape"
   id="g4021">
       <g
   id="id9">
        <rect
   class="BoundingBox"
   x="5471"
   y="1557"
   width="1097"
   height="1209"
   id="rect4016"
   style="fill:none;stroke:none" />
        <path
   d="m 5932,1898 c 175,-45 465,-203 548,14 82,217 -37,548 87,765 -98,46 -196,93 -347,86 -93,-181 -137,-411 -202,-619 -120,86 -198,215 -288,331 h -259 c 37,-212 53,-447 115,-635 4,-56 -62,-44 -58,-101 31,-315 516,-196 404,159 z"
   id="path4018"
   inkscape:connector-curvature="0"
   style="fill:#000000;stroke:none" />
       </g>
      </g>
      <g
   class="com.sun.star.drawing.ClosedBezierShape"
   id="g4028">
       <g
   id="id10">
        <rect
   class="BoundingBox"
   x="3986"
   y="1869"
   width="581"
   height="883"
   id="rect4023"
   style="fill:none;stroke:none" />
        <path
   d="m 4405,2749 c -235,28 -239,-298 -419,-375 60,-287 299,-394 535,-505 125,145 -48,710 -116,880 z"
   id="path4025"
   inkscape:connector-curvature="0"
   style="fill:#000000;stroke:none" />
       </g>
      </g>
      <g
   class="com.sun.star.drawing.ClosedBezierShape"
   id="g4035">
       <g
   id="id11">
        <rect
   class="BoundingBox"
   x="4855"
   y="1884"
   width="273"
   height="302"
   id="rect4030"
   style="fill:none;stroke:none" />
        
       </g>
      </g>
      <g
   class="Group"
   id="g4079">
       <g
   class="com.sun.star.drawing.ClosedBezierShape"
   id="g4042">
        <g
   id="id12">
         <rect
   class="BoundingBox"
   x="2472"
   y="3375"
   width="493"
   height="601"
   id="rect4037"
   style="fill:none;stroke:none" />
         
        </g>
       </g>
       <g
   class="com.sun.star.drawing.ClosedBezierShape"
   id="g4049">
        <g
   id="id13">
         <rect
   class="BoundingBox"
   x="3362"
   y="3386"
   width="518"
   height="579"
   id="rect4044"
   style="fill:none;stroke:none" />
         
        </g>
       </g>
       <g
   class="com.sun.star.drawing.ClosedBezierShape"
   id="g4056">
        <g
   id="id14">
         <rect
   class="BoundingBox"
   x="4301"
   y="3386"
   width="500"
   height="590"
   id="rect4051"
   style="fill:none;stroke:none" />
         
        </g>
       </g>
       <g
   class="com.sun.star.drawing.ClosedBezierShape"
   id="g4063">
        <g
   id="id15">
         <rect
   class="BoundingBox"
   x="5220"
   y="3386"
   width="523"
   height="579"
   id="rect4058"
   style="fill:none;stroke:none" />
         
        </g>
       </g>
       <g
   class="com.sun.star.drawing.ClosedBezierShape"
   id="g4070">
        <g
   id="id16">
         <rect
   class="BoundingBox"
   x="6071"
   y="3375"
   width="492"
   height="601"
   id="rect4065"
   style="fill:none;stroke:none" />
         
        </g>
       </g>
       <g
   class="com.sun.star.drawing.ClosedBezierShape"
   id="g4077">
        <g
   id="id17">
         <rect
   class="BoundingBox"
   x="6960"
   y="3386"
   width="518"
   height="579"
   id="rect4072"
   style="fill:none;stroke:none" />
         
        </g>
       </g>
      </g>
     </g>
    </g>
   </g>
  </g>
 </g>
</svg>
