<?xml version="1.0" encoding="UTF-8" standalone="no"?>
<svg
   version="1.1"
   id="Layer_1"
   x="0px"
   y="0px"
   width="1023"
   height="1022.9653"
   viewBox="0 0 1023 1022.9653"
   enable-background="new 0 0 1147 1147"
   xml:space="preserve"
   sodipodi:docname="wifi.svg"
   inkscape:version="1.2.1 (9c6d41e410, 2022-07-14)"
   xmlns:inkscape="http://www.inkscape.org/namespaces/inkscape"
   xmlns:sodipodi="http://sodipodi.sourceforge.net/DTD/sodipodi-0.dtd"
   xmlns="http://www.w3.org/2000/svg"
   xmlns:svg="http://www.w3.org/2000/svg"><defs
   id="defs10568">






























































































































































































































































































































































































































































































































































































































































































































































































































































































































	
	

	

	
	

	
	

	

	

		
		
	
		
		
	
		
		
	
			
		
			
		
		
			
		
		
		</defs>
<g
   transform="translate(0,-0.01736)"
   id="g10565"><path
     id="path10544"
     style="fill:#000000;stroke-width:0.93"
     d="m 87.43643,961 c -14.0337,0 -25.44945,-11.18976 -25.44945,-24.93144 v -43.15014 c 0,-4.29288 1.116,-8.3328 3.06993,-11.86773 1.88697,-3.40194 4.55793,-6.32586 7.7748,-8.53182 C 76.9637,869.67493 82.00058,868 87.42248,868 h 42.15411 c 14.02068,0 25.43643,11.17674 25.43643,24.91749 v 43.15014 c 0,13.74075 -11.41482,24.93144 -25.43643,24.93144 H 108.5 87.43643 Z m 806,-806 c -14.0337,0 -25.44945,-11.18976 -25.44945,-24.93144 V 86.91842 c 0,-4.29288 1.116,-8.3328 3.06993,-11.86773 1.88697,-3.40194 4.55793,-6.32586 7.7748,-8.53182 C 882.9637,63.67493 888.00058,62 893.42248,62 h 42.15411 c 14.02068,0 25.43643,11.17674 25.43643,24.91749 v 43.15014 c 0,13.74075 -11.41482,24.93144 -25.43643,24.93144 H 914.5 893.43643 Z m -806,0 C 73.40273,155 61.98698,143.81024 61.98698,130.06856 V 86.91842 c 0,-4.29288 1.116,-8.3328 3.06993,-11.86773 1.88697,-3.40194 4.55793,-6.32586 7.7748,-8.53182 C 76.9637,63.67493 82.00058,62 87.42248,62 h 42.15411 c 14.02068,0 25.43643,11.17674 25.43643,24.91749 v 43.15014 c 0,13.74075 -11.41482,24.93144 -25.43643,24.93144 H 108.5 87.43643 Z m 55.4776,651.01736 H 74.08597 v 0 c -33.54386,0 -61.96218,22.16221 -71.04797,52.45324 -0.93961,3.13348 -1.67307,6.35376 -2.18302,9.64565 C 0.29295,871.74883 0,875.46821 0,879.25486 v 70.46207 c 0,40.40323 33.2444,73.25917 74.08597,73.25917 l 34.41403,0.01 34.41403,-0.01 C 183.75343,1022.974 217,990.11799 217,949.71476 v -70.4599 c 0,-40.3837 -33.2444,-73.2375 -74.08597,-73.2375 z M 184.45,949.71693 c 0,22.44648 -18.63162,40.7092 -41.54465,40.7092 l -34.40535,0.007 -34.40535,-0.009 C 51.18162,990.42396 32.55,972.16124 32.55,949.71693 v -70.46207 c 0,-7.01127 1.81846,-13.61241 5.01921,-19.38027 3.0814,-5.54869 7.44093,-10.32052 12.69016,-13.93357 6.7487,-4.64597 14.96649,-7.37366 23.82443,-7.37366 h 68.83023 c 22.90435,0 41.53597,18.25187 41.53597,40.6875 z M 948.91403,0.01736 h -68.82806 v 0 c -33.54386,0 -61.96218,22.16221 -71.04797,52.45324 -0.93961,3.13348 -1.67307,6.35376 -2.18302,9.64565 C 806.29295,65.74883 806,69.46821 806,73.25486 v 70.46207 c 0,40.40323 33.2444,73.2592 74.08597,73.2592 l 34.41403,0.007 34.41403,-0.009 c 40.8394,0 74.08597,-32.85597 74.08597,-73.2592 v -70.4599 c 0,-40.3837 -33.2444,-73.2375 -74.08597,-73.2375 z M 990.45,143.71693 c 0,22.44648 -18.63162,40.7092 -41.54465,40.7092 l -34.40535,0.007 -34.40535,-0.009 c -22.91303,0 -41.54465,-18.26272 -41.54465,-40.70703 V 73.25486 c 0,-7.01127 1.81846,-13.61241 5.01921,-19.38027 3.0814,-5.54869 7.44093,-10.32052 12.69016,-13.93357 6.7487,-4.64597 14.96649,-7.37366 23.82443,-7.37366 h 68.83023 c 22.90435,0 41.53597,18.25187 41.53597,40.6875 z M 142.91403,0.01736 H 74.08597 v 0 C 40.54211,0.01736 12.12379,22.17957 3.038,52.4706 2.09839,55.60408 1.36493,58.82436 0.85498,62.11625 0.29295,65.74883 0,69.46821 0,73.25486 v 70.46207 c 0,40.40323 33.2444,73.2592 74.08597,73.2592 l 34.41403,0.007 34.41403,-0.009 c 40.8394,0 74.08597,-32.85597 74.08597,-73.2592 V 73.25486 C 217,32.87116 183.7556,0.01736 142.91403,0.01736 Z M 184.45,143.71693 c 0,22.44648 -18.63162,40.7092 -41.54465,40.7092 l -34.40535,0.007 -34.40535,-0.009 C 51.18162,184.42396 32.55,166.16124 32.55,143.71693 V 73.25486 c 0,-7.01127 1.81846,-13.61241 5.01921,-19.38027 3.0814,-5.54869 7.44093,-10.32052 12.69016,-13.93357 6.7487,-4.64597 14.96649,-7.37366 23.82443,-7.37366 h 68.83023 c 22.90435,0 41.53597,18.25187 41.53597,40.6875 z M 1007.5,994.387 c 7.2424,0 13.113,5.871 13.113,13.113 0,7.2424 -5.8706,13.113 -13.113,13.113 -7.242,0 -13.113,-5.8706 -13.113,-13.113 0,-7.242 5.871,-13.113 13.113,-13.113 z m -90.613,0 c -2.66023,0 -7.63766,0 -10.6361,0 -1.47913,0 -2.4769,0 -2.4769,0 H 902.689 900.86 899 v 26.226 h 1.86 1.829 1.085 c 0,0 1.00539,0 2.4769,0 3.18258,0 8.54608,0 10.6361,0 7.24166,0 13.113,-5.8714 13.113,-13.113 0,-7.2422 -5.87134,-13.113 -13.113,-13.113 z m -19.747,0 h -2.914 c 0,0 -1.80773,0 -4.123,0 -0.35408,0 -0.71988,0 -1.09306,0 -2.94258,0 -6.33442,0 -7.89694,0 -7.2447,0 -13.113,5.8728 -13.113,13.113 0,7.2394 5.8683,13.113 13.113,13.113 1.95176,0 5.14854,0 7.89694,0 0.37417,0 0.73978,0 1.09306,0 2.33653,0 4.123,0 4.123,0 h 2.914 1.86 v -26.226 z m -75.64,0 c 7.24241,0 13.113,5.871 13.113,13.113 0,7.2424 -5.87059,13.113 -13.113,13.113 -7.24203,0 -13.113,-5.8706 -13.113,-13.113 0,-7.242 5.87097,-13.113 13.113,-13.113 z m -59.613,0 c -2.66023,0 -7.63766,0 -10.6361,0 -1.47913,0 -2.4769,0 -2.4769,0 H 747.689 745.86 744 v 26.226 h 1.86 1.829 1.085 c 0,0 1.00539,0 2.4769,0 3.18258,0 8.54608,0 10.6361,0 7.24166,0 13.113,-5.8714 13.113,-13.113 0,-7.2422 -5.87134,-13.113 -13.113,-13.113 z m -19.747,0 h -2.914 c 0,0 -1.80773,0 -4.123,0 -0.35408,0 -0.71988,0 -1.09306,0 -2.94258,0 -6.33442,0 -7.89694,0 -7.2447,0 -13.113,5.8728 -13.113,13.113 0,7.2394 5.8683,13.113 13.113,13.113 1.95176,0 5.14854,0 7.89694,0 0.37417,0 0.73978,0 1.09306,0 2.33653,0 4.123,0 4.123,0 h 2.914 1.86 v -26.226 z m -137.64,0 c 7.24241,0 13.113,5.871 13.113,13.113 0,7.2424 -5.87059,13.113 -13.113,13.113 -7.24203,0 -13.113,-5.8706 -13.113,-13.113 0,-7.242 5.87097,-13.113 13.113,-13.113 z m -90.613,0 c -2.66023,0 -7.63766,0 -10.6361,0 -1.47913,0 -2.4769,0 -2.4769,0 H 499.689 497.86 496 v 26.226 h 1.86 1.829 1.085 c 0,0 1.00539,0 2.4769,0 3.18258,0 8.54608,0 10.6361,0 7.24166,0 13.113,-5.8714 13.113,-13.113 0,-7.2422 -5.87134,-13.113 -13.113,-13.113 z M 496,1020.613 V 994.387 H 480.5 465 v 26.226 h 15.5 z m -31,0 V 994.387 H 449.5 434 v 26.226 h 15.5 z m -31,0 V 994.387 H 418.5 403 v 26.226 h 15.5 z m -32.86,-26.226 h -2.914 c 0,0 -1.80773,0 -4.123,0 -0.35408,0 -0.71988,0 -1.09306,0 -2.94258,0 -6.33442,0 -7.89694,0 -7.2447,0 -13.113,5.8728 -13.113,13.113 0,7.2394 5.8683,13.113 13.113,13.113 1.95176,0 5.14854,0 7.89694,0 0.37417,0 0.73978,0 1.09306,0 2.33653,0 4.123,0 4.123,0 h 2.914 1.86 v -26.226 z m -106.64,0 c 7.24241,0 13.113,5.871 13.113,13.113 0,7.2424 -5.87059,13.113 -13.113,13.113 -7.24203,0 -13.113,-5.8706 -13.113,-13.113 0,-7.242 5.87097,-13.113 13.113,-13.113 z m 589,-31 c 7.24241,0 13.113,5.87097 13.113,13.113 0,7.24241 -5.87059,13.113 -13.113,13.113 -7.24203,0 -13.113,-5.87059 -13.113,-13.113 0,-7.24203 5.87097,-13.113 13.113,-13.113 z m -62,0 c 7.24241,0 13.113,5.87097 13.113,13.113 0,7.24241 -5.87059,13.113 -13.113,13.113 -7.24203,0 -13.113,-5.87059 -13.113,-13.113 0,-7.24203 5.87097,-13.113 13.113,-13.113 z m -62,0 c 7.24241,0 13.113,5.87097 13.113,13.113 0,7.24241 -5.87059,13.113 -13.113,13.113 -7.24203,0 -13.113,-5.87059 -13.113,-13.113 0,-7.24203 5.87097,-13.113 13.113,-13.113 z m -62,0 c 7.24241,0 13.113,5.87097 13.113,13.113 0,7.24241 -5.87059,13.113 -13.113,13.113 -7.24203,0 -13.113,-5.87059 -13.113,-13.113 0,-7.24203 5.87097,-13.113 13.113,-13.113 z m -59.613,0 c -2.66023,0 -7.63766,0 -10.6361,0 -1.47913,0 -2.4769,0 -2.4769,0 H 623.689 621.86 620 v 26.226 h 1.86 1.829 1.085 c 0,0 1.00539,0 2.4769,0 3.18258,0 8.54608,0 10.6361,0 7.24166,0 13.113,-5.8714 13.113,-13.113 0,-7.24216 -5.87134,-13.113 -13.113,-13.113 z M 620,989.613 V 963.387 H 604.5 589 v 26.226 h 15.5 z m -31,0 V 963.387 H 573.5 558 v 26.226 h 15.5 z m -31,0 V 963.387 H 542.5 527 v 26.226 h 15.5 z m -32.86,-26.226 h -2.914 c 0,0 -1.80773,0 -4.123,0 -0.35408,0 -0.71988,0 -1.09306,0 -2.94258,0 -6.33442,0 -7.89694,0 -7.2447,0 -13.113,5.87276 -13.113,13.113 0,7.23943 5.8683,13.113 13.113,13.113 1.95176,0 5.14854,0 7.89694,0 0.37417,0 0.73978,0 1.09306,0 2.33653,0 4.123,0 4.123,0 h 2.914 1.86 v -26.226 z m -104.253,0 c -2.66023,0 -7.63766,0 -10.6361,0 -1.47913,0 -2.4769,0 -2.4769,0 H 406.689 404.86 403 v 26.226 h 1.86 1.829 1.085 c 0,0 1.00539,0 2.4769,0 3.18258,0 8.54608,0 10.6361,0 7.24166,0 13.113,-5.8714 13.113,-13.113 0,-7.24216 -5.87134,-13.113 -13.113,-13.113 z m -19.747,0 h -2.914 c 0,0 -1.80773,0 -4.123,0 -0.35408,0 -0.71988,0 -1.09306,0 -2.94258,0 -6.33442,0 -7.89694,0 -7.2447,0 -13.113,5.87276 -13.113,13.113 0,7.23943 5.8683,13.113 13.113,13.113 1.95176,0 5.14854,0 7.89694,0 0.37417,0 0.73978,0 1.09306,0 2.33653,0 4.123,0 4.123,0 h 2.914 1.86 v -26.226 z m -73.253,0 c -2.66023,0 -7.63766,0 -10.6361,0 -1.47913,0 -2.4769,0 -2.4769,0 H 313.689 311.86 310 v 26.226 h 1.86 1.829 1.085 c 0,0 1.00539,0 2.4769,0 3.18258,0 8.54608,0 10.6361,0 7.24166,0 13.113,-5.8714 13.113,-13.113 0,-7.24216 -5.87134,-13.113 -13.113,-13.113 z m -19.747,0 h -2.914 c 0,0 -1.80773,0 -4.123,0 -0.35408,0 -0.71988,0 -1.09306,0 -2.94258,0 -6.33442,0 -7.89694,0 -7.2447,0 -13.113,5.87276 -13.113,13.113 0,7.23943 5.8683,13.113 13.113,13.113 1.95176,0 5.14854,0 7.89694,0 0.37417,0 0.73978,0 1.09306,0 2.33653,0 4.123,0 4.123,0 h 2.914 1.86 v -26.226 z m 637.36,-31 c 7.24241,0 13.113,5.87097 13.113,13.113 0,7.24241 -5.87059,13.113 -13.113,13.113 -7.24203,0 -13.113,-5.87059 -13.113,-13.113 0,-7.24203 5.87097,-13.113 13.113,-13.113 z m -62,0 c 7.24241,0 13.113,5.87097 13.113,13.113 0,7.24241 -5.87059,13.113 -13.113,13.113 -7.24203,0 -13.113,-5.87059 -13.113,-13.113 0,-7.24203 5.87097,-13.113 13.113,-13.113 z m -59.613,0 c -2.66023,0 -7.63766,0 -10.6361,0 -1.47913,0 -2.4769,0 -2.4769,0 H 809.689 807.86 806 v 26.226 h 1.86 1.829 1.085 c 0,0 1.00539,0 2.4769,0 3.18258,0 8.54608,0 10.6361,0 7.24166,0 13.113,-5.8714 13.113,-13.113 0,-7.24216 -5.87134,-13.113 -13.113,-13.113 z m -19.747,0 h -2.914 c 0,0 -1.80773,0 -4.123,0 -0.35408,0 -0.71988,0 -1.09306,0 -2.94258,0 -6.33442,0 -7.89694,0 -7.2447,0 -13.113,5.87276 -13.113,13.113 0,7.23943 5.8683,13.113 13.113,13.113 1.95176,0 5.14854,0 7.89694,0 0.37417,0 0.73978,0 1.09306,0 2.33653,0 4.123,0 4.123,0 h 2.914 1.86 v -26.226 z m -137.64,0 c 7.24241,0 13.113,5.87097 13.113,13.113 0,7.24241 -5.87059,13.113 -13.113,13.113 -7.24203,0 -13.113,-5.87059 -13.113,-13.113 0,-7.24203 5.87097,-13.113 13.113,-13.113 z m -62,0 c 7.24241,0 13.113,5.87097 13.113,13.113 0,7.24241 -5.87059,13.113 -13.113,13.113 -7.24203,0 -13.113,-5.87059 -13.113,-13.113 0,-7.24203 5.87097,-13.113 13.113,-13.113 z m -90.613,0 c -2.66023,0 -7.63766,0 -10.6361,0 -1.47913,0 -2.4769,0 -2.4769,0 H 499.689 497.86 496 v 26.226 h 1.86 1.829 1.085 c 0,0 1.00539,0 2.4769,0 3.18258,0 8.54608,0 10.6361,0 7.24166,0 13.113,-5.8714 13.113,-13.113 0,-7.24216 -5.87134,-13.113 -13.113,-13.113 z m -19.747,0 h -2.914 c 0,0 -1.80773,0 -4.123,0 -0.35408,0 -0.71988,0 -1.09306,0 -2.94258,0 -6.33442,0 -7.89694,0 -7.2447,0 -13.113,5.87276 -13.113,13.113 0,7.23943 5.8683,13.113 13.113,13.113 1.95176,0 5.14854,0 7.89694,0 0.37417,0 0.73978,0 1.09306,0 2.33653,0 4.123,0 4.123,0 h 2.914 1.86 v -26.226 z m -75.64,0 c 7.24241,0 13.113,5.87097 13.113,13.113 0,7.24241 -5.87059,13.113 -13.113,13.113 -7.24203,0 -13.113,-5.87059 -13.113,-13.113 0,-7.24203 5.87097,-13.113 13.113,-13.113 z m -62,0 c 7.24241,0 13.113,5.87097 13.113,13.113 0,7.24241 -5.87059,13.113 -13.113,13.113 -7.24203,0 -13.113,-5.87059 -13.113,-13.113 0,-7.24203 5.87097,-13.113 13.113,-13.113 z m -62,0 c 7.24241,0 13.113,5.87097 13.113,13.113 0,7.24241 -5.87059,13.113 -13.113,13.113 -7.24203,0 -13.113,-5.87059 -13.113,-13.113 0,-7.24203 5.87097,-13.113 13.113,-13.113 z m 684.387,-31 c -2.66023,0 -7.63766,0 -10.6361,0 -1.47913,0 -2.4769,0 -2.4769,0 H 964.689 962.86 961 v 26.226 h 1.86 1.829 1.085 c 0,0 1.00539,0 2.4769,0 3.18258,0 8.54608,0 10.6361,0 7.24166,0 13.113,-5.8714 13.113,-13.113 0,-7.24216 -5.87134,-13.113 -13.113,-13.113 z m -19.747,0 h -2.914 c 0,0 -1.80773,0 -4.123,0 -0.35408,0 -0.71988,0 -1.09306,0 -2.94258,0 -6.33442,0 -7.89694,0 -7.2447,0 -13.113,5.87276 -13.113,13.113 0,7.23943 5.8683,13.113 13.113,13.113 1.95176,0 5.14854,0 7.89694,0 0.37417,0 0.73978,0 1.09306,0 2.33653,0 4.123,0 4.123,0 h 2.914 1.86 v -26.226 z m -135.253,0 c -2.66023,0 -7.63766,0 -10.6361,0 -1.47913,0 -2.4769,0 -2.4769,0 H 809.689 807.86 806 v 26.226 h 1.86 1.829 1.085 c 0,0 1.00539,0 2.4769,0 3.18258,0 8.54608,0 10.6361,0 7.24166,0 13.113,-5.8714 13.113,-13.113 0,-7.24216 -5.87134,-13.113 -13.113,-13.113 z M 806,927.613 V 901.387 H 790.5 775 v 26.226 h 15.5 z m -32.86,-26.226 h -2.914 c 0,0 -1.80773,0 -4.123,0 -0.35408,0 -0.71988,0 -1.09306,0 -2.94258,0 -6.33442,0 -7.89694,0 -7.2447,0 -13.113,5.87276 -13.113,13.113 0,7.23943 5.8683,13.113 13.113,13.113 1.95176,0 5.14854,0 7.89694,0 0.37417,0 0.73978,0 1.09306,0 2.33653,0 4.123,0 4.123,0 h 2.914 1.86 v -26.226 z m -168.64,0 c 7.24241,0 13.113,5.87097 13.113,13.113 0,7.24241 -5.87059,13.113 -13.113,13.113 -7.24203,0 -13.113,-5.87059 -13.113,-13.113 0,-7.24203 5.87097,-13.113 13.113,-13.113 z m -245.613,0 c -2.66023,0 -7.63766,0 -10.6361,0 -1.47913,0 -2.4769,0 -2.4769,0 H 344.689 342.86 341 v 26.226 h 1.86 1.829 1.085 c 0,0 1.00539,0 2.4769,0 3.18258,0 8.54608,0 10.6361,0 7.24166,0 13.113,-5.8714 13.113,-13.113 0,-7.24216 -5.87134,-13.113 -13.113,-13.113 z m -19.747,0 h -2.914 c 0,0 -1.80773,0 -4.123,0 -0.35408,0 -0.71988,0 -1.09306,0 -2.94258,0 -6.33442,0 -7.89694,0 -7.2447,0 -13.113,5.87276 -13.113,13.113 0,7.23943 5.8683,13.113 13.113,13.113 1.95176,0 5.14854,0 7.89694,0 0.37417,0 0.73978,0 1.09306,0 2.33653,0 4.123,0 4.123,0 h 2.914 1.86 v -26.226 z m 577.747,-31 c -2.66023,0 -7.63766,0 -10.6361,0 -1.47913,0 -2.4769,0 -2.4769,0 H 902.689 900.86 899 v 26.226 h 1.86 1.829 1.085 c 0,0 1.00539,0 2.4769,0 3.18258,0 8.54608,0 10.6361,0 7.24166,0 13.113,-5.8714 13.113,-13.113 0,-7.24216 -5.87134,-13.113 -13.113,-13.113 z M 899,896.613 V 870.387 H 883.5 868 v 26.226 h 15.5 z m -31,0 V 870.387 H 852.5 837 v 26.226 h 15.5 z m -31,0 V 870.387 H 821.5 806 v 26.226 h 15.5 z m -31,0 V 870.387 H 790.5 775 v 26.226 h 15.5 z m -32.86,-26.226 h -2.914 c 0,0 -1.80773,0 -4.123,0 -0.35408,0 -0.71988,0 -1.09306,0 -2.94258,0 -6.33442,0 -7.89694,0 -7.2447,0 -13.113,5.87276 -13.113,13.113 0,7.23943 5.8683,13.113 13.113,13.113 1.95176,0 5.14854,0 7.89694,0 0.37417,0 0.73978,0 1.09306,0 2.33653,0 4.123,0 4.123,0 h 2.914 1.86 v -26.226 z m -261.64,0 c 7.24241,0 13.113,5.87097 13.113,13.113 0,7.24241 -5.87059,13.113 -13.113,13.113 -7.24203,0 -13.113,-5.87059 -13.113,-13.113 0,-7.24203 5.87097,-13.113 13.113,-13.113 z m -62,0 c 7.24241,0 13.113,5.87097 13.113,13.113 0,7.24241 -5.87059,13.113 -13.113,13.113 -7.24203,0 -13.113,-5.87059 -13.113,-13.113 0,-7.24203 5.87097,-13.113 13.113,-13.113 z m -90.613,0 c -2.66023,0 -7.63766,0 -10.6361,0 -1.47913,0 -2.4769,0 -2.4769,0 H 344.689 342.86 341 v 26.226 h 1.86 1.829 1.085 c 0,0 1.00539,0 2.4769,0 3.18258,0 8.54608,0 10.6361,0 7.24166,0 13.113,-5.8714 13.113,-13.113 0,-7.24216 -5.87134,-13.113 -13.113,-13.113 z m -19.747,0 h -2.914 c 0,0 -1.80773,0 -4.123,0 -0.35408,0 -0.71988,0 -1.09306,0 -2.94258,0 -6.33442,0 -7.89694,0 -7.2447,0 -13.113,5.87276 -13.113,13.113 0,7.23943 5.8683,13.113 13.113,13.113 1.95176,0 5.14854,0 7.89694,0 0.37417,0 0.73978,0 1.09306,0 2.33653,0 4.123,0 4.123,0 h 2.914 1.86 v -26.226 z m -75.64,0 c 7.24241,0 13.113,5.87097 13.113,13.113 0,7.24241 -5.87059,13.113 -13.113,13.113 -7.24203,0 -13.113,-5.87059 -13.113,-13.113 0,-7.24203 5.87097,-13.113 13.113,-13.113 z m 713,-31 c 7.24241,0 13.113,5.87097 13.113,13.113 0,7.24241 -5.87059,13.113 -13.113,13.113 -7.24203,0 -13.113,-5.87059 -13.113,-13.113 0,-7.24203 5.87097,-13.113 13.113,-13.113 z m -93,0 c 7.24241,0 13.113,5.87097 13.113,13.113 0,7.24241 -5.87059,13.113 -13.113,13.113 -7.24203,0 -13.113,-5.87059 -13.113,-13.113 0,-7.24203 5.87097,-13.113 13.113,-13.113 z m -121.613,0 c -2.66023,0 -7.63766,0 -10.6361,0 -1.47913,0 -2.4769,0 -2.4769,0 H 747.689 745.86 744 v 26.226 h 1.86 1.829 1.085 c 0,0 1.00539,0 2.4769,0 3.18258,0 8.54608,0 10.6361,0 7.24166,0 13.113,-5.8714 13.113,-13.113 0,-7.24216 -5.87134,-13.113 -13.113,-13.113 z m -19.747,0 h -2.914 c 0,0 -1.80773,0 -4.123,0 -0.35408,0 -0.71988,0 -1.09306,0 -2.94258,0 -6.33442,0 -7.89694,0 -7.2447,0 -13.113,5.87276 -13.113,13.113 0,7.23943 5.8683,13.113 13.113,13.113 1.95176,0 5.14854,0 7.89694,0 0.37417,0 0.73978,0 1.09306,0 2.33653,0 4.123,0 4.123,0 h 2.914 1.86 v -26.226 z m -75.64,0 c 7.24241,0 13.113,5.87097 13.113,13.113 0,7.24241 -5.87059,13.113 -13.113,13.113 -7.24203,0 -13.113,-5.87059 -13.113,-13.113 0,-7.24203 5.87097,-13.113 13.113,-13.113 z m -245.613,0 c -2.66023,0 -7.63766,0 -10.6361,0 -1.47913,0 -2.4769,0 -2.4769,0 H 406.689 404.86 403 v 26.226 h 1.86 1.829 1.085 c 0,0 1.00539,0 2.4769,0 3.18258,0 8.54608,0 10.6361,0 7.24166,0 13.113,-5.8714 13.113,-13.113 0,-7.24216 -5.87134,-13.113 -13.113,-13.113 z m -19.747,0 h -2.914 c 0,0 -1.80773,0 -4.123,0 -0.35408,0 -0.71988,0 -1.09306,0 -2.94258,0 -6.33442,0 -7.89694,0 -7.2447,0 -13.113,5.87276 -13.113,13.113 0,7.23943 5.8683,13.113 13.113,13.113 1.95176,0 5.14854,0 7.89694,0 0.37417,0 0.73978,0 1.09306,0 2.33653,0 4.123,0 4.123,0 h 2.914 1.86 v -26.226 z m -104.253,0 c -2.66023,0 -7.63766,0 -10.6361,0 -1.47913,0 -2.4769,0 -2.4769,0 H 282.689 280.86 279 v 26.226 h 1.86 1.829 1.085 c 0,0 1.00539,0 2.4769,0 3.18258,0 8.54608,0 10.6361,0 7.24166,0 13.113,-5.8714 13.113,-13.113 0,-7.24216 -5.87134,-13.113 -13.113,-13.113 z m -19.747,0 h -2.914 c 0,0 -1.80773,0 -4.123,0 -0.35408,0 -0.71988,0 -1.09306,0 -2.94258,0 -6.33442,0 -7.89694,0 -7.2447,0 -13.113,5.87276 -13.113,13.113 0,7.23943 5.8683,13.113 13.113,13.113 1.95176,0 5.14854,0 7.89694,0 0.37417,0 0.73978,0 1.09306,0 2.33653,0 4.123,0 4.123,0 h 2.914 1.86 v -26.226 z m 701.747,-31 c -2.66023,0 -7.63766,0 -10.6361,0 -1.47913,0 -2.4769,0 -2.4769,0 H 964.689 962.86 961 v 26.226 h 1.86 1.829 1.085 c 0,0 1.00539,0 2.4769,0 3.18258,0 8.54608,0 10.6361,0 7.24166,0 13.113,-5.8714 13.113,-13.113 0,-7.24216 -5.87134,-13.113 -13.113,-13.113 z m -19.747,0 h -2.914 c 0,0 -1.80773,0 -4.123,0 -0.35408,0 -0.71988,0 -1.09306,0 -2.94258,0 -6.33442,0 -7.89694,0 -7.2447,0 -13.113,5.87276 -13.113,13.113 0,7.23943 5.8683,13.113 13.113,13.113 1.95176,0 5.14854,0 7.89694,0 0.37417,0 0.73978,0 1.09306,0 2.33653,0 4.123,0 4.123,0 h 2.914 1.86 v -26.226 z m -75.64,0 c 7.24241,0 13.113,5.87097 13.113,13.113 0,7.24241 -5.87059,13.113 -13.113,13.113 -7.24203,0 -13.113,-5.87059 -13.113,-13.113 0,-7.24203 5.87097,-13.113 13.113,-13.113 z m -62,0 c 7.24241,0 13.113,5.87097 13.113,13.113 0,7.24241 -5.87059,13.113 -13.113,13.113 -7.24203,0 -13.113,-5.87059 -13.113,-13.113 0,-7.24203 5.87097,-13.113 13.113,-13.113 z m -62,0 c 7.24241,0 13.113,5.87097 13.113,13.113 0,7.24241 -5.87059,13.113 -13.113,13.113 -7.24203,0 -13.113,-5.87059 -13.113,-13.113 0,-7.24203 5.87097,-13.113 13.113,-13.113 z m -62,0 c 7.24241,0 13.113,5.87097 13.113,13.113 0,7.24241 -5.87059,13.113 -13.113,13.113 -7.24203,0 -13.113,-5.87059 -13.113,-13.113 0,-7.24203 5.87097,-13.113 13.113,-13.113 z m -59.613,0 c -2.66023,0 -7.63766,0 -10.6361,0 -1.47913,0 -2.4769,0 -2.4769,0 H 623.689 621.86 620 v 26.226 h 1.86 1.829 1.085 c 0,0 1.00539,0 2.4769,0 3.18258,0 8.54608,0 10.6361,0 7.24166,0 13.113,-5.8714 13.113,-13.113 0,-7.24216 -5.87134,-13.113 -13.113,-13.113 z m -19.747,0 h -2.914 c 0,0 -1.80773,0 -4.123,0 -0.35408,0 -0.71988,0 -1.09306,0 -2.94258,0 -6.33442,0 -7.89694,0 -7.2447,0 -13.113,5.87276 -13.113,13.113 0,7.23943 5.8683,13.113 13.113,13.113 1.95176,0 5.14854,0 7.89694,0 0.37417,0 0.73978,0 1.09306,0 2.33653,0 4.123,0 4.123,0 h 2.914 1.86 v -26.226 z m -197.253,0 c -2.66023,0 -7.63766,0 -10.6361,0 -1.47913,0 -2.4769,0 -2.4769,0 H 406.689 404.86 403 v 26.226 h 1.86 1.829 1.085 c 0,0 1.00539,0 2.4769,0 3.18258,0 8.54608,0 10.6361,0 7.24166,0 13.113,-5.8714 13.113,-13.113 0,-7.24216 -5.87134,-13.113 -13.113,-13.113 z M 403,834.613 V 808.387 H 387.5 372 v 26.226 h 15.5 z m -31,0 V 808.387 H 356.5 341 v 26.226 h 15.5 z m -32.86,-26.226 h -2.914 c 0,0 -1.80773,0 -4.123,0 -0.35408,0 -0.71988,0 -1.09306,0 -2.94258,0 -6.33442,0 -7.89694,0 -7.2447,0 -13.113,5.87276 -13.113,13.113 0,7.23943 5.8683,13.113 13.113,13.113 1.95176,0 5.14854,0 7.89694,0 0.37417,0 0.73978,0 1.09306,0 2.33653,0 4.123,0 4.123,0 h 2.914 1.86 v -26.226 z m -75.64,0 c 7.24241,0 13.113,5.87097 13.113,13.113 0,7.24241 -5.87059,13.113 -13.113,13.113 -7.24203,0 -13.113,-5.87059 -13.113,-13.113 0,-7.24203 5.87097,-13.113 13.113,-13.113 z m 682,-31 c 7.24241,0 13.113,5.87097 13.113,13.113 0,7.24241 -5.87059,13.113 -13.113,13.113 -7.24203,0 -13.113,-5.87059 -13.113,-13.113 0,-7.24203 5.87097,-13.113 13.113,-13.113 z m -62,0 c 7.24241,0 13.113,5.87097 13.113,13.113 0,7.24241 -5.87059,13.113 -13.113,13.113 -7.24203,0 -13.113,-5.87059 -13.113,-13.113 0,-7.24203 5.87097,-13.113 13.113,-13.113 z m -121.613,0 c -2.66023,0 -7.63766,0 -10.6361,0 -1.47913,0 -2.4769,0 -2.4769,0 H 747.689 745.86 744 v 26.226 h 1.86 1.829 1.085 c 0,0 1.00539,0 2.4769,0 3.18258,0 8.54608,0 10.6361,0 7.24166,0 13.113,-5.8714 13.113,-13.113 0,-7.24216 -5.87134,-13.113 -13.113,-13.113 z M 744,803.613 V 777.387 H 728.5 713 v 26.226 h 15.5 z m -31,0 V 777.387 H 697.5 682 v 26.226 h 15.5 z m -31,0 V 777.387 H 666.5 651 v 26.226 h 15.5 z m -31,0 V 777.387 H 635.5 620 v 26.226 h 15.5 z m -32.86,-26.226 h -2.914 c 0,0 -1.80773,0 -4.123,0 -0.35408,0 -0.71988,0 -1.09306,0 -2.94258,0 -6.33442,0 -7.89694,0 -7.2447,0 -13.113,5.87276 -13.113,13.113 0,7.23943 5.8683,13.113 13.113,13.113 1.95176,0 5.14854,0 7.89694,0 0.37417,0 0.73978,0 1.09306,0 2.33653,0 4.123,0 4.123,0 h 2.914 1.86 v -26.226 z m -73.253,0 c -2.66023,0 -7.63766,0 -10.6361,0 -1.47913,0 -2.4769,0 -2.4769,0 H 530.689 528.86 527 v 26.226 h 1.86 1.829 1.085 c 0,0 1.00539,0 2.4769,0 3.18258,0 8.54608,0 10.6361,0 7.24166,0 13.113,-5.8714 13.113,-13.113 0,-7.24216 -5.87134,-13.113 -13.113,-13.113 z M 527,803.613 V 777.387 H 511.5 496 v 26.226 h 15.5 z m -32.86,-26.226 h -2.914 c 0,0 -1.80773,0 -4.123,0 -0.35408,0 -0.71988,0 -1.09306,0 -2.94258,0 -6.33442,0 -7.89694,0 -7.2447,0 -13.113,5.87276 -13.113,13.113 0,7.23943 5.8683,13.113 13.113,13.113 1.95176,0 5.14854,0 7.89694,0 0.37417,0 0.73978,0 1.09306,0 2.33653,0 4.123,0 4.123,0 h 2.914 1.86 v -26.226 z m -137.64,0 c 7.24241,0 13.113,5.87097 13.113,13.113 0,7.24241 -5.87059,13.113 -13.113,13.113 -7.24203,0 -13.113,-5.87059 -13.113,-13.113 0,-7.24203 5.87097,-13.113 13.113,-13.113 z m -93,0 c 7.24241,0 13.113,5.87097 13.113,13.113 0,7.24241 -5.87059,13.113 -13.113,13.113 -7.24203,0 -13.113,-5.87059 -13.113,-13.113 0,-7.24203 5.87097,-13.113 13.113,-13.113 z m 744,-31 c 7.2424,0 13.113,5.87097 13.113,13.113 0,7.24241 -5.8706,13.113 -13.113,13.113 -7.242,0 -13.113,-5.87059 -13.113,-13.113 0,-7.24203 5.871,-13.113 13.113,-13.113 z m -90.613,0 c -2.66023,0 -7.63766,0 -10.6361,0 -1.47913,0 -2.4769,0 -2.4769,0 H 902.689 900.86 899 v 26.226 h 1.86 1.829 1.085 c 0,0 1.00539,0 2.4769,0 3.18258,0 8.54608,0 10.6361,0 7.24166,0 13.113,-5.8714 13.113,-13.113 0,-7.24216 -5.87134,-13.113 -13.113,-13.113 z M 899,772.613 V 746.387 H 883.5 868 v 26.226 h 15.5 z m -31,0 V 746.387 H 852.5 837 v 26.226 h 15.5 z m -31,0 V 746.387 H 821.5 806 v 26.226 h 15.5 z m -31,0 V 746.387 H 790.5 775 v 26.226 h 15.5 z m -32.86,-26.226 h -2.914 c 0,0 -1.80773,0 -4.123,0 -0.35408,0 -0.71988,0 -1.09306,0 -2.94258,0 -6.33442,0 -7.89694,0 -7.2447,0 -13.113,5.87276 -13.113,13.113 0,7.23943 5.8683,13.113 13.113,13.113 1.95176,0 5.14854,0 7.89694,0 0.37417,0 0.73978,0 1.09306,0 2.33653,0 4.123,0 4.123,0 h 2.914 1.86 v -26.226 z m -73.253,0 c -2.66023,0 -7.63766,0 -10.6361,0 -1.47913,0 -2.4769,0 -2.4769,0 H 685.689 683.86 682 v 26.226 h 1.86 1.829 1.085 c 0,0 1.00539,0 2.4769,0 3.18258,0 8.54608,0 10.6361,0 7.24166,0 13.113,-5.8714 13.113,-13.113 0,-7.24216 -5.87134,-13.113 -13.113,-13.113 z m -19.747,0 h -2.914 c 0,0 -1.80773,0 -4.123,0 -0.35408,0 -0.71988,0 -1.09306,0 -2.94258,0 -6.33442,0 -7.89694,0 -7.2447,0 -13.113,5.87276 -13.113,13.113 0,7.23943 5.8683,13.113 13.113,13.113 1.95176,0 5.14854,0 7.89694,0 0.37417,0 0.73978,0 1.09306,0 2.33653,0 4.123,0 4.123,0 h 2.914 1.86 v -26.226 z m -106.64,0 c 7.24241,0 13.113,5.87097 13.113,13.113 0,7.24241 -5.87059,13.113 -13.113,13.113 -7.24203,0 -13.113,-5.87059 -13.113,-13.113 0,-7.24203 5.87097,-13.113 13.113,-13.113 z m -62,0 c 7.24241,0 13.113,5.87097 13.113,13.113 0,7.24241 -5.87059,13.113 -13.113,13.113 -7.24203,0 -13.113,-5.87059 -13.113,-13.113 0,-7.24203 5.87097,-13.113 13.113,-13.113 z m -62,0 c 7.24241,0 13.113,5.87097 13.113,13.113 0,7.24241 -5.87059,13.113 -13.113,13.113 -7.24203,0 -13.113,-5.87059 -13.113,-13.113 0,-7.24203 5.87097,-13.113 13.113,-13.113 z m -90.613,0 c -2.66023,0 -7.63766,0 -10.6361,0 -1.47913,0 -2.4769,0 -2.4769,0 H 344.689 342.86 341 v 26.226 h 1.86 1.829 1.085 c 0,0 1.00539,0 2.4769,0 3.18258,0 8.54608,0 10.6361,0 7.24166,0 13.113,-5.8714 13.113,-13.113 0,-7.24216 -5.87134,-13.113 -13.113,-13.113 z m -19.747,0 h -2.914 c 0,0 -1.80773,0 -4.123,0 -0.35408,0 -0.71988,0 -1.09306,0 -2.94258,0 -6.33442,0 -7.89694,0 -7.2447,0 -13.113,5.87276 -13.113,13.113 0,7.23943 5.8683,13.113 13.113,13.113 1.95176,0 5.14854,0 7.89694,0 0.37417,0 0.73978,0 1.09306,0 2.33653,0 4.123,0 4.123,0 h 2.914 1.86 v -26.226 z m -135.253,0 c -2.66023,0 -7.63766,0 -10.6361,0 -1.47913,0 -2.4769,0 -2.4769,0 H 189.689 187.86 186 v 26.226 h 1.86 1.829 1.085 c 0,0 1.00539,0 2.4769,0 3.18258,0 8.54608,0 10.6361,0 7.24166,0 13.113,-5.8714 13.113,-13.113 0,-7.24216 -5.87134,-13.113 -13.113,-13.113 z M 186,772.613 V 746.387 H 170.5 155 v 26.226 h 15.5 z m -32.86,-26.226 h -2.914 c 0,0 -1.80773,0 -4.123,0 -0.35408,0 -0.71988,0 -1.09306,0 -2.94258,0 -6.33442,0 -7.89694,0 -7.2447,0 -13.113,5.87276 -13.113,13.113 0,7.23943 5.8683,13.113 13.113,13.113 1.95176,0 5.14854,0 7.89694,0 0.37417,0 0.73978,0 1.09306,0 2.33653,0 4.123,0 4.123,0 h 2.914 1.86 v -26.226 z m -73.253,0 c -2.660234,0 -7.637656,0 -10.6361,0 -1.479134,0 -2.4769,0 -2.4769,0 H 65.689 63.86 62 v 26.226 h 1.86 1.829 1.085 c 0,0 1.005392,0 2.4769,0 3.182584,0 8.54608,0 10.6361,0 7.241662,0 13.113,-5.8714 13.113,-13.113 0,-7.24216 -5.871338,-13.113 -13.113,-13.113 z M 62,772.613 V 746.387 H 46.5 31 v 26.226 H 46.5 Z M 29.14,746.387 h -2.914 c 0,0 -1.807734,0 -4.123,0 -0.354082,0 -0.719882,0 -1.09306,0 -2.942582,0 -6.334416,0 -7.89694,0 C 5.8683,746.387 0,752.25976 0,759.5 c 0,7.23943 5.8683,13.113 13.113,13.113 1.95176,0 5.148542,0 7.89694,0 0.37417,0 0.739784,0 1.09306,0 2.336532,0 4.123,0 4.123,0 H 29.14 31 v -26.226 z m 947.36,-31 c 7.24241,0 13.113,5.87097 13.113,13.113 0,7.24241 -5.87059,13.113 -13.113,13.113 -7.24203,0 -13.113,-5.87059 -13.113,-13.113 0,-7.24203 5.87097,-13.113 13.113,-13.113 z m -90.613,0 c -2.66023,0 -7.63766,0 -10.6361,0 -1.47913,0 -2.4769,0 -2.4769,0 H 871.689 869.86 868 v 26.226 h 1.86 1.829 1.085 c 0,0 1.00539,0 2.4769,0 3.18258,0 8.54608,0 10.6361,0 7.24166,0 13.113,-5.8714 13.113,-13.113 0,-7.24216 -5.87134,-13.113 -13.113,-13.113 z m -19.747,0 h -2.914 c 0,0 -1.80773,0 -4.123,0 -0.35408,0 -0.71988,0 -1.09306,0 -2.94258,0 -6.33442,0 -7.89694,0 -7.2447,0 -13.113,5.87276 -13.113,13.113 0,7.23943 5.8683,13.113 13.113,13.113 1.95176,0 5.14854,0 7.89694,0 0.37417,0 0.73978,0 1.09306,0 2.33653,0 4.123,0 4.123,0 h 2.914 1.86 v -26.226 z m -75.64,0 c 7.24241,0 13.113,5.87097 13.113,13.113 0,7.24241 -5.87059,13.113 -13.113,13.113 -7.24203,0 -13.113,-5.87059 -13.113,-13.113 0,-7.24203 5.87097,-13.113 13.113,-13.113 z m -62,0 c 7.24241,0 13.113,5.87097 13.113,13.113 0,7.24241 -5.87059,13.113 -13.113,13.113 -7.24203,0 -13.113,-5.87059 -13.113,-13.113 0,-7.24203 5.87097,-13.113 13.113,-13.113 z m -62,0 c 7.24241,0 13.113,5.87097 13.113,13.113 0,7.24241 -5.87059,13.113 -13.113,13.113 -7.24203,0 -13.113,-5.87059 -13.113,-13.113 0,-7.24203 5.87097,-13.113 13.113,-13.113 z m -183.613,0 c -2.66023,0 -7.63766,0 -10.6361,0 -1.47913,0 -2.4769,0 -2.4769,0 H 468.689 466.86 465 v 26.226 h 1.86 1.829 1.085 c 0,0 1.00539,0 2.4769,0 3.18258,0 8.54608,0 10.6361,0 7.24166,0 13.113,-5.8714 13.113,-13.113 0,-7.24216 -5.87134,-13.113 -13.113,-13.113 z M 465,741.613 V 715.387 H 449.5 434 v 26.226 h 15.5 z m -32.86,-26.226 h -2.914 c 0,0 -1.80773,0 -4.123,0 -0.35408,0 -0.71988,0 -1.09306,0 -2.94258,0 -6.33442,0 -7.89694,0 -7.2447,0 -13.113,5.87276 -13.113,13.113 0,7.23943 5.8683,13.113 13.113,13.113 1.95176,0 5.14854,0 7.89694,0 0.37417,0 0.73978,0 1.09306,0 2.33653,0 4.123,0 4.123,0 h 2.914 1.86 v -26.226 z m -106.64,0 c 7.24241,0 13.113,5.87097 13.113,13.113 0,7.24241 -5.87059,13.113 -13.113,13.113 -7.24203,0 -13.113,-5.87059 -13.113,-13.113 0,-7.24203 5.87097,-13.113 13.113,-13.113 z m -59.613,0 c -2.66023,0 -7.63766,0 -10.6361,0 -1.47913,0 -2.4769,0 -2.4769,0 H 251.689 249.86 248 v 26.226 h 1.86 1.829 1.085 c 0,0 1.00539,0 2.4769,0 3.18258,0 8.54608,0 10.6361,0 7.24166,0 13.113,-5.8714 13.113,-13.113 0,-7.24216 -5.87134,-13.113 -13.113,-13.113 z m -19.747,0 h -2.914 c 0,0 -1.80773,0 -4.123,0 -0.35408,0 -0.71988,0 -1.09306,0 -2.94258,0 -6.33442,0 -7.89694,0 -7.2447,0 -13.113,5.87276 -13.113,13.113 0,7.23943 5.8683,13.113 13.113,13.113 1.95176,0 5.14854,0 7.89694,0 0.37417,0 0.73978,0 1.09306,0 2.33653,0 4.123,0 4.123,0 h 2.914 1.86 v -26.226 z m -73.253,0 c -2.66023,0 -7.63766,0 -10.6361,0 -1.47913,0 -2.4769,0 -2.4769,0 H 158.689 156.86 155 v 26.226 h 1.86 1.829 1.085 c 0,0 1.00539,0 2.4769,0 3.18258,0 8.54608,0 10.6361,0 7.24166,0 13.113,-5.8714 13.113,-13.113 0,-7.24216 -5.87134,-13.113 -13.113,-13.113 z M 155,741.613 V 715.387 H 139.5 124 v 26.226 h 15.5 z m -32.86,-26.226 h -2.914 c 0,0 -1.80773,0 -4.123,0 -0.35408,0 -0.71988,0 -1.09306,0 -2.94258,0 -6.33442,0 -7.89694,0 -7.2447,0 -13.113,5.87276 -13.113,13.113 0,7.23943 5.8683,13.113 13.113,13.113 1.95176,0 5.14854,0 7.89694,0 0.37417,0 0.73978,0 1.09306,0 2.33653,0 4.123,0 4.123,0 h 2.914 1.86 v -26.226 z m 854.36,-31 c 7.24241,0 13.113,5.87097 13.113,13.113 0,7.24241 -5.87059,13.113 -13.113,13.113 -7.24203,0 -13.113,-5.87059 -13.113,-13.113 0,-7.24203 5.87097,-13.113 13.113,-13.113 z m -62,0 c 7.24241,0 13.113,5.87097 13.113,13.113 0,7.24241 -5.87059,13.113 -13.113,13.113 -7.24203,0 -13.113,-5.87059 -13.113,-13.113 0,-7.24203 5.87097,-13.113 13.113,-13.113 z m -59.613,0 c -2.66023,0 -7.63766,0 -10.6361,0 -1.47913,0 -2.4769,0 -2.4769,0 H 840.689 838.86 837 v 26.226 h 1.86 1.829 1.085 c 0,0 1.00539,0 2.4769,0 3.18258,0 8.54608,0 10.6361,0 7.24166,0 13.113,-5.8714 13.113,-13.113 0,-7.24216 -5.87134,-13.113 -13.113,-13.113 z m -19.747,0 h -2.914 c 0,0 -1.80773,0 -4.123,0 -0.35408,0 -0.71988,0 -1.09306,0 -2.94258,0 -6.33442,0 -7.89694,0 -7.2447,0 -13.113,5.87276 -13.113,13.113 0,7.23943 5.8683,13.113 13.113,13.113 1.95176,0 5.14854,0 7.89694,0 0.37417,0 0.73978,0 1.09306,0 2.33653,0 4.123,0 4.123,0 h 2.914 1.86 v -26.226 z m -106.64,0 c 7.24241,0 13.113,5.87097 13.113,13.113 0,7.24241 -5.87059,13.113 -13.113,13.113 -7.24203,0 -13.113,-5.87059 -13.113,-13.113 0,-7.24203 5.87097,-13.113 13.113,-13.113 z m -90.613,0 c -2.66023,0 -7.63766,0 -10.6361,0 -1.47913,0 -2.4769,0 -2.4769,0 H 623.689 621.86 620 v 26.226 h 1.86 1.829 1.085 c 0,0 1.00539,0 2.4769,0 3.18258,0 8.54608,0 10.6361,0 7.24166,0 13.113,-5.8714 13.113,-13.113 0,-7.24216 -5.87134,-13.113 -13.113,-13.113 z m -19.747,0 h -2.914 c 0,0 -1.80773,0 -4.123,0 -0.35408,0 -0.71988,0 -1.09306,0 -2.94258,0 -6.33442,0 -7.89694,0 -7.2447,0 -13.113,5.87276 -13.113,13.113 0,7.23943 5.8683,13.113 13.113,13.113 1.95176,0 5.14854,0 7.89694,0 0.37417,0 0.73978,0 1.09306,0 2.33653,0 4.123,0 4.123,0 h 2.914 1.86 v -26.226 z m -73.253,0 c -2.66023,0 -7.63766,0 -10.6361,0 -1.47913,0 -2.4769,0 -2.4769,0 H 530.689 528.86 527 v 26.226 h 1.86 1.829 1.085 c 0,0 1.00539,0 2.4769,0 3.18258,0 8.54608,0 10.6361,0 7.24166,0 13.113,-5.8714 13.113,-13.113 0,-7.24216 -5.87134,-13.113 -13.113,-13.113 z m -19.747,0 h -2.914 c 0,0 -1.80773,0 -4.123,0 -0.35408,0 -0.71988,0 -1.09306,0 -2.94258,0 -6.33442,0 -7.89694,0 -7.2447,0 -13.113,5.87276 -13.113,13.113 0,7.23943 5.8683,13.113 13.113,13.113 1.95176,0 5.14854,0 7.89694,0 0.37417,0 0.73978,0 1.09306,0 2.33653,0 4.123,0 4.123,0 h 2.914 1.86 v -26.226 z m -197.253,0 c -2.66023,0 -7.63766,0 -10.6361,0 -1.47913,0 -2.4769,0 -2.4769,0 H 313.689 311.86 310 v 26.226 h 1.86 1.829 1.085 c 0,0 1.00539,0 2.4769,0 3.18258,0 8.54608,0 10.6361,0 7.24166,0 13.113,-5.8714 13.113,-13.113 0,-7.24216 -5.87134,-13.113 -13.113,-13.113 z m -19.747,0 h -2.914 c 0,0 -1.80773,0 -4.123,0 -0.35408,0 -0.71988,0 -1.09306,0 -2.94258,0 -6.33442,0 -7.89694,0 -7.2447,0 -13.113,5.87276 -13.113,13.113 0,7.23943 5.8683,13.113 13.113,13.113 1.95176,0 5.14854,0 7.89694,0 0.37417,0 0.73978,0 1.09306,0 2.33653,0 4.123,0 4.123,0 h 2.914 1.86 v -26.226 z m -73.253,0 c -2.66023,0 -7.63766,0 -10.6361,0 -1.47913,0 -2.4769,0 -2.4769,0 H 220.689 218.86 217 v 26.226 h 1.86 1.829 1.085 c 0,0 1.00539,0 2.4769,0 3.18258,0 8.54608,0 10.6361,0 7.24166,0 13.113,-5.8714 13.113,-13.113 0,-7.24216 -5.87134,-13.113 -13.113,-13.113 z M 217,710.613 V 684.387 H 201.5 186 v 26.226 h 15.5 z m -32.86,-26.226 h -2.914 c 0,0 -1.80773,0 -4.123,0 -0.35408,0 -0.71988,0 -1.09306,0 -2.94258,0 -6.33442,0 -7.89694,0 -7.2447,0 -13.113,5.87276 -13.113,13.113 0,7.23943 5.8683,13.113 13.113,13.113 1.95176,0 5.14854,0 7.89694,0 0.37417,0 0.73978,0 1.09306,0 2.33653,0 4.123,0 4.123,0 h 2.914 1.86 v -26.226 z m -73.253,0 c -2.66023,0 -7.63766,0 -10.6361,0 -1.479134,0 -2.4769,0 -2.4769,0 H 96.689 94.86 93 v 26.226 h 1.86 1.829 1.085 c 0,0 1.005392,0 2.4769,0 3.18258,0 8.54608,0 10.6361,0 7.24166,0 13.113,-5.8714 13.113,-13.113 0,-7.24216 -5.87134,-13.113 -13.113,-13.113 z m -19.747,0 h -2.914 c 0,0 -1.807734,0 -4.123,0 -0.354082,0 -0.719882,0 -1.09306,0 -2.942582,0 -6.334416,0 -7.89694,0 -7.2447,0 -13.113,5.87276 -13.113,13.113 0,7.23943 5.8683,13.113 13.113,13.113 1.95176,0 5.148542,0 7.89694,0 0.37417,0 0.739784,0 1.09306,0 2.336532,0 4.123,0 4.123,0 H 91.14 93 v -26.226 z m 887.747,-31 c -2.66023,0 -7.63766,0 -10.6361,0 -1.47913,0 -2.4769,0 -2.4769,0 H 964.689 962.86 961 v 26.226 h 1.86 1.829 1.085 c 0,0 1.00539,0 2.4769,0 3.18258,0 8.54608,0 10.6361,0 7.24166,0 13.113,-5.8714 13.113,-13.113 0,-7.24216 -5.87134,-13.113 -13.113,-13.113 z m -19.747,0 h -2.914 c 0,0 -1.80773,0 -4.123,0 -0.35408,0 -0.71988,0 -1.09306,0 -2.94258,0 -6.33442,0 -7.89694,0 -7.2447,0 -13.113,5.87276 -13.113,13.113 0,7.23943 5.8683,13.113 13.113,13.113 1.95176,0 5.14854,0 7.89694,0 0.37417,0 0.73978,0 1.09306,0 2.33653,0 4.123,0 4.123,0 h 2.914 1.86 v -26.226 z m -104.253,0 c -2.66023,0 -7.63766,0 -10.6361,0 -1.47913,0 -2.4769,0 -2.4769,0 H 840.689 838.86 837 v 26.226 h 1.86 1.829 1.085 c 0,0 1.00539,0 2.4769,0 3.18258,0 8.54608,0 10.6361,0 7.24166,0 13.113,-5.8714 13.113,-13.113 0,-7.24216 -5.87134,-13.113 -13.113,-13.113 z m -19.747,0 h -2.914 c 0,0 -1.80773,0 -4.123,0 -0.35408,0 -0.71988,0 -1.09306,0 -2.94258,0 -6.33442,0 -7.89694,0 -7.2447,0 -13.113,5.87276 -13.113,13.113 0,7.23943 5.8683,13.113 13.113,13.113 1.95176,0 5.14854,0 7.89694,0 0.37417,0 0.73978,0 1.09306,0 2.33653,0 4.123,0 4.123,0 h 2.914 1.86 v -26.226 z m -73.253,0 c -2.66023,0 -7.63766,0 -10.6361,0 -1.47913,0 -2.4769,0 -2.4769,0 H 747.689 745.86 744 v 26.226 h 1.86 1.829 1.085 c 0,0 1.00539,0 2.4769,0 3.18258,0 8.54608,0 10.6361,0 7.24166,0 13.113,-5.8714 13.113,-13.113 0,-7.24216 -5.87134,-13.113 -13.113,-13.113 z M 744,679.613 V 653.387 H 728.5 713 v 26.226 h 15.5 z m -31,0 V 653.387 H 697.5 682 v 26.226 h 15.5 z m -32.86,-26.226 h -2.914 c 0,0 -1.80773,0 -4.123,0 -0.35408,0 -0.71988,0 -1.09306,0 -2.94258,0 -6.33442,0 -7.89694,0 -7.2447,0 -13.113,5.87276 -13.113,13.113 0,7.23943 5.8683,13.113 13.113,13.113 1.95176,0 5.14854,0 7.89694,0 0.37417,0 0.73978,0 1.09306,0 2.33653,0 4.123,0 4.123,0 h 2.914 1.86 v -26.226 z m -135.253,0 c -2.66023,0 -7.63766,0 -10.6361,0 -1.47913,0 -2.4769,0 -2.4769,0 H 530.689 528.86 527 v 26.226 h 1.86 1.829 1.085 c 0,0 1.00539,0 2.4769,0 3.18258,0 8.54608,0 10.6361,0 7.24166,0 13.113,-5.8714 13.113,-13.113 0,-7.24216 -5.87134,-13.113 -13.113,-13.113 z m -19.747,0 h -2.914 c 0,0 -1.80773,0 -4.123,0 -0.35408,0 -0.71988,0 -1.09306,0 -2.94258,0 -6.33442,0 -7.89694,0 -7.2447,0 -13.113,5.87276 -13.113,13.113 0,7.23943 5.8683,13.113 13.113,13.113 1.95176,0 5.14854,0 7.89694,0 0.37417,0 0.73978,0 1.09306,0 2.33653,0 4.123,0 4.123,0 h 2.914 1.86 v -26.226 z m -166.253,0 c -2.66023,0 -7.63766,0 -10.6361,0 -1.47913,0 -2.4769,0 -2.4769,0 H 344.689 342.86 341 v 26.226 h 1.86 1.829 1.085 c 0,0 1.00539,0 2.4769,0 3.18258,0 8.54608,0 10.6361,0 7.24166,0 13.113,-5.8714 13.113,-13.113 0,-7.24216 -5.87134,-13.113 -13.113,-13.113 z M 341,679.613 V 653.387 H 325.5 310 v 26.226 h 15.5 z m -32.86,-26.226 h -2.914 c 0,0 -1.80773,0 -4.123,0 -0.35408,0 -0.71988,0 -1.09306,0 -2.94258,0 -6.33442,0 -7.89694,0 -7.2447,0 -13.113,5.87276 -13.113,13.113 0,7.23943 5.8683,13.113 13.113,13.113 1.95176,0 5.14854,0 7.89694,0 0.37417,0 0.73978,0 1.09306,0 2.33653,0 4.123,0 4.123,0 h 2.914 1.86 v -26.226 z m -228.253,0 c -2.660234,0 -7.637656,0 -10.6361,0 -1.479134,0 -2.4769,0 -2.4769,0 H 65.689 63.86 62 v 26.226 h 1.86 1.829 1.085 c 0,0 1.005392,0 2.4769,0 3.182584,0 8.54608,0 10.6361,0 7.241662,0 13.113,-5.8714 13.113,-13.113 0,-7.24216 -5.871338,-13.113 -13.113,-13.113 z M 62,679.613 V 653.387 H 46.5 31 v 26.226 H 46.5 Z M 29.14,653.387 h -2.914 c 0,0 -1.807734,0 -4.123,0 -0.354082,0 -0.719882,0 -1.09306,0 -2.942582,0 -6.334416,0 -7.89694,0 C 5.8683,653.387 0,659.25976 0,666.5 c 0,7.23943 5.8683,13.113 13.113,13.113 1.95176,0 5.148542,0 7.89694,0 0.37417,0 0.739784,0 1.09306,0 2.336532,0 4.123,0 4.123,0 H 29.14 31 v -26.226 z m 980.747,-31 c -2.6602,0 -7.6377,0 -10.6361,0 -1.47913,0 -2.4769,0 -2.4769,0 H 995.689 993.86 992 v 26.226 h 1.86 1.829 1.085 c 0,0 1.00539,0 2.4769,0 3.1826,0 8.5461,0 10.6361,0 7.2417,0 13.113,-5.8714 13.113,-13.113 0,-7.24216 -5.8713,-13.113 -13.113,-13.113 z M 992,648.613 V 622.387 H 976.5 961 v 26.226 h 15.5 z m -32.86,-26.226 h -2.914 c 0,0 -1.80773,0 -4.123,0 -0.35408,0 -0.71988,0 -1.09306,0 -2.94258,0 -6.33442,0 -7.89694,0 -7.2447,0 -13.113,5.87276 -13.113,13.113 0,7.23943 5.8683,13.113 13.113,13.113 1.95176,0 5.14854,0 7.89694,0 0.37417,0 0.73978,0 1.09306,0 2.33653,0 4.123,0 4.123,0 h 2.914 1.86 v -26.226 z m -75.64,0 c 7.24241,0 13.113,5.87097 13.113,13.113 0,7.24241 -5.87059,13.113 -13.113,13.113 -7.24203,0 -13.113,-5.87059 -13.113,-13.113 0,-7.24203 5.87097,-13.113 13.113,-13.113 z m -62,0 c 7.24241,0 13.113,5.87097 13.113,13.113 0,7.24241 -5.87059,13.113 -13.113,13.113 -7.24203,0 -13.113,-5.87059 -13.113,-13.113 0,-7.24203 5.87097,-13.113 13.113,-13.113 z m -90.613,0 c -2.66023,0 -7.63766,0 -10.6361,0 -1.47913,0 -2.4769,0 -2.4769,0 H 716.689 714.86 713 v 26.226 h 1.86 1.829 1.085 c 0,0 1.00539,0 2.4769,0 3.18258,0 8.54608,0 10.6361,0 7.24166,0 13.113,-5.8714 13.113,-13.113 0,-7.24216 -5.87134,-13.113 -13.113,-13.113 z M 713,648.613 V 622.387 H 697.5 682 v 26.226 h 15.5 z m -31,0 V 622.387 H 666.5 651 v 26.226 h 15.5 z m -31,0 V 622.387 H 635.5 620 v 26.226 h 15.5 z m -32.86,-26.226 h -2.914 c 0,0 -1.80773,0 -4.123,0 -0.35408,0 -0.71988,0 -1.09306,0 -2.94258,0 -6.33442,0 -7.89694,0 -7.2447,0 -13.113,5.87276 -13.113,13.113 0,7.23943 5.8683,13.113 13.113,13.113 1.95176,0 5.14854,0 7.89694,0 0.37417,0 0.73978,0 1.09306,0 2.33653,0 4.123,0 4.123,0 h 2.914 1.86 v -26.226 z m -75.64,0 c 7.24241,0 13.113,5.87097 13.113,13.113 0,7.24241 -5.87059,13.113 -13.113,13.113 -7.24203,0 -13.113,-5.87059 -13.113,-13.113 0,-7.24203 5.87097,-13.113 13.113,-13.113 z m -59.613,0 c -2.66023,0 -7.63766,0 -10.6361,0 -1.47913,0 -2.4769,0 -2.4769,0 H 468.689 466.86 465 v 26.226 h 1.86 1.829 1.085 c 0,0 1.00539,0 2.4769,0 3.18258,0 8.54608,0 10.6361,0 7.24166,0 13.113,-5.8714 13.113,-13.113 0,-7.24216 -5.87134,-13.113 -13.113,-13.113 z m -19.747,0 h -2.914 c 0,0 -1.80773,0 -4.123,0 -0.35408,0 -0.71988,0 -1.09306,0 -2.94258,0 -6.33442,0 -7.89694,0 -7.2447,0 -13.113,5.87276 -13.113,13.113 0,7.23943 5.8683,13.113 13.113,13.113 1.95176,0 5.14854,0 7.89694,0 0.37417,0 0.73978,0 1.09306,0 2.33653,0 4.123,0 4.123,0 h 2.914 1.86 v -26.226 z m -104.253,0 c -2.66023,0 -7.63766,0 -10.6361,0 -1.47913,0 -2.4769,0 -2.4769,0 H 344.689 342.86 341 v 26.226 h 1.86 1.829 1.085 c 0,0 1.00539,0 2.4769,0 3.18258,0 8.54608,0 10.6361,0 7.24166,0 13.113,-5.8714 13.113,-13.113 0,-7.24216 -5.87134,-13.113 -13.113,-13.113 z M 341,648.613 V 622.387 H 325.5 310 v 26.226 h 15.5 z m -32.86,-26.226 h -2.914 c 0,0 -1.80773,0 -4.123,0 -0.35408,0 -0.71988,0 -1.09306,0 -2.94258,0 -6.33442,0 -7.89694,0 -7.2447,0 -13.113,5.87276 -13.113,13.113 0,7.23943 5.8683,13.113 13.113,13.113 1.95176,0 5.14854,0 7.89694,0 0.37417,0 0.73978,0 1.09306,0 2.33653,0 4.123,0 4.123,0 h 2.914 1.86 v -26.226 z m -73.253,0 c -2.66023,0 -7.63766,0 -10.6361,0 -1.47913,0 -2.4769,0 -2.4769,0 H 220.689 218.86 217 v 26.226 h 1.86 1.829 1.085 c 0,0 1.00539,0 2.4769,0 3.18258,0 8.54608,0 10.6361,0 7.24166,0 13.113,-5.8714 13.113,-13.113 0,-7.24216 -5.87134,-13.113 -13.113,-13.113 z M 217,648.613 V 622.387 H 201.5 186 v 26.226 h 15.5 z m -31,0 V 622.387 H 170.5 155 v 26.226 h 15.5 z m -32.86,-26.226 h -2.914 c 0,0 -1.80773,0 -4.123,0 -0.35408,0 -0.71988,0 -1.09306,0 -2.94258,0 -6.33442,0 -7.89694,0 -7.2447,0 -13.113,5.87276 -13.113,13.113 0,7.23943 5.8683,13.113 13.113,13.113 1.95176,0 5.14854,0 7.89694,0 0.37417,0 0.73978,0 1.09306,0 2.33653,0 4.123,0 4.123,0 h 2.914 1.86 v -26.226 z m 730.36,-31 c 7.24241,0 13.113,5.87097 13.113,13.113 0,7.24241 -5.87059,13.113 -13.113,13.113 -7.24203,0 -13.113,-5.87059 -13.113,-13.113 0,-7.24203 5.87097,-13.113 13.113,-13.113 z m -59.613,0 c -2.66023,0 -7.63766,0 -10.6361,0 -1.47913,0 -2.4769,0 -2.4769,0 H 809.689 807.86 806 v 26.226 h 1.86 1.829 1.085 c 0,0 1.00539,0 2.4769,0 3.18258,0 8.54608,0 10.6361,0 7.24166,0 13.113,-5.8714 13.113,-13.113 0,-7.24216 -5.87134,-13.113 -13.113,-13.113 z m -19.747,0 h -2.914 c 0,0 -1.80773,0 -4.123,0 -0.35408,0 -0.71988,0 -1.09306,0 -2.94258,0 -6.33442,0 -7.89694,0 -7.2447,0 -13.113,5.87276 -13.113,13.113 0,7.23943 5.8683,13.113 13.113,13.113 1.95176,0 5.14854,0 7.89694,0 0.37417,0 0.73978,0 1.09306,0 2.33653,0 4.123,0 4.123,0 h 2.914 1.86 v -26.226 z m -135.253,0 c -2.66023,0 -7.63766,0 -10.6361,0 -1.47913,0 -2.4769,0 -2.4769,0 H 654.689 652.86 651 v 26.226 h 1.86 1.829 1.085 c 0,0 1.00539,0 2.4769,0 3.18258,0 8.54608,0 10.6361,0 7.24166,0 13.113,-5.8714 13.113,-13.113 0,-7.24216 -5.87134,-13.113 -13.113,-13.113 z m -19.747,0 h -2.914 c 0,0 -1.80773,0 -4.123,0 -0.35408,0 -0.71988,0 -1.09306,0 -2.94258,0 -6.33442,0 -7.89694,0 -7.2447,0 -13.113,5.87276 -13.113,13.113 0,7.23943 5.8683,13.113 13.113,13.113 1.95176,0 5.14854,0 7.89694,0 0.37417,0 0.73978,0 1.09306,0 2.33653,0 4.123,0 4.123,0 h 2.914 1.86 v -26.226 z m -75.64,0 c 7.24241,0 13.113,5.87097 13.113,13.113 0,7.24241 -5.87059,13.113 -13.113,13.113 -7.24203,0 -13.113,-5.87059 -13.113,-13.113 0,-7.24203 5.87097,-13.113 13.113,-13.113 z m -59.613,0 c -2.66023,0 -7.63766,0 -10.6361,0 -1.47913,0 -2.4769,0 -2.4769,0 H 499.689 497.86 496 v 26.226 h 1.86 1.829 1.085 c 0,0 1.00539,0 2.4769,0 3.18258,0 8.54608,0 10.6361,0 7.24166,0 13.113,-5.8714 13.113,-13.113 0,-7.24216 -5.87134,-13.113 -13.113,-13.113 z m -19.747,0 h -2.914 c 0,0 -1.80773,0 -4.123,0 -0.35408,0 -0.71988,0 -1.09306,0 -2.94258,0 -6.33442,0 -7.89694,0 -7.2447,0 -13.113,5.87276 -13.113,13.113 0,7.23943 5.8683,13.113 13.113,13.113 1.95176,0 5.14854,0 7.89694,0 0.37417,0 0.73978,0 1.09306,0 2.33653,0 4.123,0 4.123,0 h 2.914 1.86 v -26.226 z m -73.253,0 c -2.66023,0 -7.63766,0 -10.6361,0 -1.47913,0 -2.4769,0 -2.4769,0 H 406.689 404.86 403 v 26.226 h 1.86 1.829 1.085 c 0,0 1.00539,0 2.4769,0 3.18258,0 8.54608,0 10.6361,0 7.24166,0 13.113,-5.8714 13.113,-13.113 0,-7.24216 -5.87134,-13.113 -13.113,-13.113 z M 403,617.613 V 591.387 H 387.5 372 v 26.226 h 15.5 z m -32.86,-26.226 h -2.914 c 0,0 -1.80773,0 -4.123,0 -0.35408,0 -0.71988,0 -1.09306,0 -2.94258,0 -6.33442,0 -7.89694,0 -7.2447,0 -13.113,5.87276 -13.113,13.113 0,7.23943 5.8683,13.113 13.113,13.113 1.95176,0 5.14854,0 7.89694,0 0.37417,0 0.73978,0 1.09306,0 2.33653,0 4.123,0 4.123,0 h 2.914 1.86 v -26.226 z m -106.64,0 c 7.24241,0 13.113,5.87097 13.113,13.113 0,7.24241 -5.87059,13.113 -13.113,13.113 -7.24203,0 -13.113,-5.87059 -13.113,-13.113 0,-7.24203 5.87097,-13.113 13.113,-13.113 z m -183.613,0 c -2.660234,0 -7.637656,0 -10.6361,0 -1.479134,0 -2.4769,0 -2.4769,0 H 65.689 63.86 62 v 26.226 h 1.86 1.829 1.085 c 0,0 1.005392,0 2.4769,0 3.182584,0 8.54608,0 10.6361,0 7.241662,0 13.113,-5.8714 13.113,-13.113 0,-7.24216 -5.871338,-13.113 -13.113,-13.113 z M 62,617.613 V 591.387 H 46.5 31 v 26.226 H 46.5 Z M 29.14,591.387 h -2.914 c 0,0 -1.807734,0 -4.123,0 -0.354082,0 -0.719882,0 -1.09306,0 -2.942582,0 -6.334416,0 -7.89694,0 C 5.8683,591.387 0,597.25976 0,604.5 c 0,7.23943 5.8683,13.113 13.113,13.113 1.95176,0 5.148542,0 7.89694,0 0.37417,0 0.739784,0 1.09306,0 2.336532,0 4.123,0 4.123,0 H 29.14 31 v -26.226 z m 949.747,-31 c -2.66023,0 -7.63766,0 -10.6361,0 -1.47913,0 -2.4769,0 -2.4769,0 H 964.689 962.86 961 v 26.226 h 1.86 1.829 1.085 c 0,0 1.00539,0 2.4769,0 3.18258,0 8.54608,0 10.6361,0 7.24166,0 13.113,-5.8714 13.113,-13.113 0,-7.24216 -5.87134,-13.113 -13.113,-13.113 z m -19.747,0 h -2.914 c 0,0 -1.80773,0 -4.123,0 -0.35408,0 -0.71988,0 -1.09306,0 -2.94258,0 -6.33442,0 -7.89694,0 -7.2447,0 -13.113,5.87276 -13.113,13.113 0,7.23943 5.8683,13.113 13.113,13.113 1.95176,0 5.14854,0 7.89694,0 0.37417,0 0.73978,0 1.09306,0 2.33653,0 4.123,0 4.123,0 h 2.914 1.86 v -26.226 z m -73.253,0 c -2.66023,0 -7.63766,0 -10.6361,0 -1.47913,0 -2.4769,0 -2.4769,0 H 871.689 869.86 868 v 26.226 h 1.86 1.829 1.085 c 0,0 1.00539,0 2.4769,0 3.18258,0 8.54608,0 10.6361,0 7.24166,0 13.113,-5.8714 13.113,-13.113 0,-7.24216 -5.87134,-13.113 -13.113,-13.113 z M 868,586.613 V 560.387 H 852.5 837 v 26.226 h 15.5 z m -32.86,-26.226 h -2.914 c 0,0 -1.80773,0 -4.123,0 -0.35408,0 -0.71988,0 -1.09306,0 -2.94258,0 -6.33442,0 -7.89694,0 -7.2447,0 -13.113,5.87276 -13.113,13.113 0,7.23943 5.8683,13.113 13.113,13.113 1.95176,0 5.14854,0 7.89694,0 0.37417,0 0.73978,0 1.09306,0 2.33653,0 4.123,0 4.123,0 h 2.914 1.86 v -26.226 z m -106.64,0 c 7.24241,0 13.113,5.87097 13.113,13.113 0,7.24241 -5.87059,13.113 -13.113,13.113 -7.24203,0 -13.113,-5.87059 -13.113,-13.113 0,-7.24203 5.87097,-13.113 13.113,-13.113 z m -90.613,0 c -2.66023,0 -7.63766,0 -10.6361,0 -1.47913,0 -2.4769,0 -2.4769,0 H 623.689 621.86 620 v 26.226 h 1.86 1.829 1.085 c 0,0 1.00539,0 2.4769,0 3.18258,0 8.54608,0 10.6361,0 7.24166,0 13.113,-5.8714 13.113,-13.113 0,-7.24216 -5.87134,-13.113 -13.113,-13.113 z m -19.747,0 h -2.914 c 0,0 -1.80773,0 -4.123,0 -0.35408,0 -0.71988,0 -1.09306,0 -2.94258,0 -6.33442,0 -7.89694,0 -7.2447,0 -13.113,5.87276 -13.113,13.113 0,7.23943 5.8683,13.113 13.113,13.113 1.95176,0 5.14854,0 7.89694,0 0.37417,0 0.73978,0 1.09306,0 2.33653,0 4.123,0 4.123,0 h 2.914 1.86 v -26.226 z m -73.253,0 c -2.66023,0 -7.63766,0 -10.6361,0 -1.47913,0 -2.4769,0 -2.4769,0 H 530.689 528.86 527 v 26.226 h 1.86 1.829 1.085 c 0,0 1.00539,0 2.4769,0 3.18258,0 8.54608,0 10.6361,0 7.24166,0 13.113,-5.8714 13.113,-13.113 0,-7.24216 -5.87134,-13.113 -13.113,-13.113 z M 527,586.613 V 560.387 H 511.5 496 v 26.226 h 15.5 z m -32.86,-26.226 h -2.914 c 0,0 -1.80773,0 -4.123,0 -0.35408,0 -0.71988,0 -1.09306,0 -2.94258,0 -6.33442,0 -7.89694,0 -7.2447,0 -13.113,5.87276 -13.113,13.113 0,7.23943 5.8683,13.113 13.113,13.113 1.95176,0 5.14854,0 7.89694,0 0.37417,0 0.73978,0 1.09306,0 2.33653,0 4.123,0 4.123,0 h 2.914 1.86 v -26.226 z m -104.253,0 c -2.66023,0 -7.63766,0 -10.6361,0 -1.47913,0 -2.4769,0 -2.4769,0 H 375.689 373.86 372 v 26.226 h 1.86 1.829 1.085 c 0,0 1.00539,0 2.4769,0 3.18258,0 8.54608,0 10.6361,0 7.24166,0 13.113,-5.8714 13.113,-13.113 0,-7.24216 -5.87134,-13.113 -13.113,-13.113 z m -19.747,0 h -2.914 c 0,0 -1.80773,0 -4.123,0 -0.35408,0 -0.71988,0 -1.09306,0 -2.94258,0 -6.33442,0 -7.89694,0 -7.2447,0 -13.113,5.87276 -13.113,13.113 0,7.23943 5.8683,13.113 13.113,13.113 1.95176,0 5.14854,0 7.89694,0 0.37417,0 0.73978,0 1.09306,0 2.33653,0 4.123,0 4.123,0 h 2.914 1.86 v -26.226 z m -168.64,0 c 7.24241,0 13.113,5.87097 13.113,13.113 0,7.24241 -5.87059,13.113 -13.113,13.113 -7.24203,0 -13.113,-5.87059 -13.113,-13.113 0,-7.24203 5.87097,-13.113 13.113,-13.113 z m -59.613,0 c -2.66023,0 -7.63766,0 -10.6361,0 -1.47913,0 -2.4769,0 -2.4769,0 H 127.689 125.86 124 v 26.226 h 1.86 1.829 1.085 c 0,0 1.00539,0 2.4769,0 3.18258,0 8.54608,0 10.6361,0 7.24166,0 13.113,-5.8714 13.113,-13.113 0,-7.24216 -5.87134,-13.113 -13.113,-13.113 z m -19.747,0 h -2.914 c 0,0 -1.80773,0 -4.123,0 -0.35408,0 -0.71988,0 -1.09306,0 -2.94258,0 -6.33442,0 -7.89694,0 -7.2447,0 -13.113,5.87276 -13.113,13.113 0,7.23943 5.8683,13.113 13.113,13.113 1.95176,0 5.14854,0 7.89694,0 0.37417,0 0.73978,0 1.09306,0 2.33653,0 4.123,0 4.123,0 h 2.914 1.86 v -26.226 z m -75.64,0 c 7.242406,0 13.113,5.87097 13.113,13.113 0,7.24241 -5.870594,13.113 -13.113,13.113 -7.242034,0 -13.113,-5.87059 -13.113,-13.113 0,-7.24203 5.870966,-13.113 13.113,-13.113 z m 932.387,-31 c -2.66023,0 -7.63766,0 -10.6361,0 -1.47913,0 -2.4769,0 -2.4769,0 H 964.689 962.86 961 v 26.226 h 1.86 1.829 1.085 c 0,0 1.00539,0 2.4769,0 3.18258,0 8.54608,0 10.6361,0 7.24166,0 13.113,-5.8714 13.113,-13.113 0,-7.24216 -5.87134,-13.113 -13.113,-13.113 z M 961,555.613 V 529.387 H 945.5 930 v 26.226 h 15.5 z m -32.86,-26.226 h -2.914 c 0,0 -1.80773,0 -4.123,0 -0.35408,0 -0.71988,0 -1.09306,0 -2.94258,0 -6.33442,0 -7.89694,0 -7.2447,0 -13.113,5.87276 -13.113,13.113 0,7.23943 5.8683,13.113 13.113,13.113 1.95176,0 5.14854,0 7.89694,0 0.37417,0 0.73978,0 1.09306,0 2.33653,0 4.123,0 4.123,0 h 2.914 1.86 v -26.226 z m -106.64,0 c 7.24241,0 13.113,5.87097 13.113,13.113 0,7.24241 -5.87059,13.113 -13.113,13.113 -7.24203,0 -13.113,-5.87059 -13.113,-13.113 0,-7.24203 5.87097,-13.113 13.113,-13.113 z m -217,0 c 7.24241,0 13.113,5.87097 13.113,13.113 0,7.24241 -5.87059,13.113 -13.113,13.113 -7.24203,0 -13.113,-5.87059 -13.113,-13.113 0,-7.24203 5.87097,-13.113 13.113,-13.113 z m -59.613,0 c -2.66023,0 -7.63766,0 -10.6361,0 -1.47913,0 -2.4769,0 -2.4769,0 H 530.689 528.86 527 v 26.226 h 1.86 1.829 1.085 c 0,0 1.00539,0 2.4769,0 3.18258,0 8.54608,0 10.6361,0 7.24166,0 13.113,-5.8714 13.113,-13.113 0,-7.24216 -5.87134,-13.113 -13.113,-13.113 z M 527,555.613 V 529.387 H 511.5 496 v 26.226 h 15.5 z m -32.86,-26.226 h -2.914 c 0,0 -1.80773,0 -4.123,0 -0.35408,0 -0.71988,0 -1.09306,0 -2.94258,0 -6.33442,0 -7.89694,0 -7.2447,0 -13.113,5.87276 -13.113,13.113 0,7.23943 5.8683,13.113 13.113,13.113 1.95176,0 5.14854,0 7.89694,0 0.37417,0 0.73978,0 1.09306,0 2.33653,0 4.123,0 4.123,0 h 2.914 1.86 v -26.226 z m -104.253,0 c -2.66023,0 -7.63766,0 -10.6361,0 -1.47913,0 -2.4769,0 -2.4769,0 H 375.689 373.86 372 v 26.226 h 1.86 1.829 1.085 c 0,0 1.00539,0 2.4769,0 3.18258,0 8.54608,0 10.6361,0 7.24166,0 13.113,-5.8714 13.113,-13.113 0,-7.24216 -5.87134,-13.113 -13.113,-13.113 z m -19.747,0 h -2.914 c 0,0 -1.80773,0 -4.123,0 -0.35408,0 -0.71988,0 -1.09306,0 -2.94258,0 -6.33442,0 -7.89694,0 -7.2447,0 -13.113,5.87276 -13.113,13.113 0,7.23943 5.8683,13.113 13.113,13.113 1.95176,0 5.14854,0 7.89694,0 0.37417,0 0.73978,0 1.09306,0 2.33653,0 4.123,0 4.123,0 h 2.914 1.86 v -26.226 z m -73.253,0 c -2.66023,0 -7.63766,0 -10.6361,0 -1.47913,0 -2.4769,0 -2.4769,0 H 282.689 280.86 279 v 26.226 h 1.86 1.829 1.085 c 0,0 1.00539,0 2.4769,0 3.18258,0 8.54608,0 10.6361,0 7.24166,0 13.113,-5.8714 13.113,-13.113 0,-7.24216 -5.87134,-13.113 -13.113,-13.113 z m -19.747,0 h -2.914 c 0,0 -1.80773,0 -4.123,0 -0.35408,0 -0.71988,0 -1.09306,0 -2.94258,0 -6.33442,0 -7.89694,0 -7.2447,0 -13.113,5.87276 -13.113,13.113 0,7.23943 5.8683,13.113 13.113,13.113 1.95176,0 5.14854,0 7.89694,0 0.37417,0 0.73978,0 1.09306,0 2.33653,0 4.123,0 4.123,0 h 2.914 1.86 v -26.226 z m -137.64,0 c 7.24241,0 13.113,5.87097 13.113,13.113 0,7.24241 -5.87059,13.113 -13.113,13.113 -7.24203,0 -13.113,-5.87059 -13.113,-13.113 0,-7.24203 5.87097,-13.113 13.113,-13.113 z m -124,0 c 7.242406,0 13.113,5.87097 13.113,13.113 0,7.24241 -5.870594,13.113 -13.113,13.113 -7.242034,0 -13.113,-5.87059 -13.113,-13.113 0,-7.24203 5.870966,-13.113 13.113,-13.113 z m 994.387,-31 c -2.6602,0 -7.6377,0 -10.6361,0 -1.47913,0 -2.4769,0 -2.4769,0 H 995.689 993.86 992 v 26.226 h 1.86 1.829 1.085 c 0,0 1.00539,0 2.4769,0 3.1826,0 8.5461,0 10.6361,0 7.2417,0 13.113,-5.8714 13.113,-13.113 0,-7.24216 -5.8713,-13.113 -13.113,-13.113 z m -19.747,0 h -2.914 c 0,0 -1.80773,0 -4.123,0 -0.35408,0 -0.71988,0 -1.09306,0 -2.94258,0 -6.33442,0 -7.89694,0 -7.2447,0 -13.113,5.87276 -13.113,13.113 0,7.23943 5.8683,13.113 13.113,13.113 1.95176,0 5.14854,0 7.89694,0 0.37417,0 0.73978,0 1.09306,0 2.33653,0 4.123,0 4.123,0 h 2.914 1.86 v -26.226 z m -73.253,0 c -2.66023,0 -7.63766,0 -10.6361,0 -1.47913,0 -2.4769,0 -2.4769,0 H 902.689 900.86 899 v 26.226 h 1.86 1.829 1.085 c 0,0 1.00539,0 2.4769,0 3.18258,0 8.54608,0 10.6361,0 7.24166,0 13.113,-5.8714 13.113,-13.113 0,-7.24216 -5.87134,-13.113 -13.113,-13.113 z M 899,524.613 V 498.387 H 883.5 868 v 26.226 h 15.5 z m -31,0 V 498.387 H 852.5 837 v 26.226 h 15.5 z m -32.86,-26.226 h -2.914 c 0,0 -1.80773,0 -4.123,0 -0.35408,0 -0.71988,0 -1.09306,0 -2.94258,0 -6.33442,0 -7.89694,0 -7.2447,0 -13.113,5.87276 -13.113,13.113 0,7.23943 5.8683,13.113 13.113,13.113 1.95176,0 5.14854,0 7.89694,0 0.37417,0 0.73978,0 1.09306,0 2.33653,0 4.123,0 4.123,0 h 2.914 1.86 v -26.226 z m -135.253,0 c -2.66023,0 -7.63766,0 -10.6361,0 -1.47913,0 -2.4769,0 -2.4769,0 H 685.689 683.86 682 v 26.226 h 1.86 1.829 1.085 c 0,0 1.00539,0 2.4769,0 3.18258,0 8.54608,0 10.6361,0 7.24166,0 13.113,-5.8714 13.113,-13.113 0,-7.24216 -5.87134,-13.113 -13.113,-13.113 z m -19.747,0 h -2.914 c 0,0 -1.80773,0 -4.123,0 -0.35408,0 -0.71988,0 -1.09306,0 -2.94258,0 -6.33442,0 -7.89694,0 -7.2447,0 -13.113,5.87276 -13.113,13.113 0,7.23943 5.8683,13.113 13.113,13.113 1.95176,0 5.14854,0 7.89694,0 0.37417,0 0.73978,0 1.09306,0 2.33653,0 4.123,0 4.123,0 h 2.914 1.86 v -26.226 z m -137.64,0 c 7.24241,0 13.113,5.87097 13.113,13.113 0,7.24241 -5.87059,13.113 -13.113,13.113 -7.24203,0 -13.113,-5.87059 -13.113,-13.113 0,-7.24203 5.87097,-13.113 13.113,-13.113 z m -62,0 c 7.24241,0 13.113,5.87097 13.113,13.113 0,7.24241 -5.87059,13.113 -13.113,13.113 -7.24203,0 -13.113,-5.87059 -13.113,-13.113 0,-7.24203 5.87097,-13.113 13.113,-13.113 z m -93,0 c 7.24241,0 13.113,5.87097 13.113,13.113 0,7.24241 -5.87059,13.113 -13.113,13.113 -7.24203,0 -13.113,-5.87059 -13.113,-13.113 0,-7.24203 5.87097,-13.113 13.113,-13.113 z m -59.613,0 c -2.66023,0 -7.63766,0 -10.6361,0 -1.47913,0 -2.4769,0 -2.4769,0 H 313.689 311.86 310 v 26.226 h 1.86 1.829 1.085 c 0,0 1.00539,0 2.4769,0 3.18258,0 8.54608,0 10.6361,0 7.24166,0 13.113,-5.8714 13.113,-13.113 0,-7.24216 -5.87134,-13.113 -13.113,-13.113 z M 310,524.613 V 498.387 H 294.5 279 v 26.226 h 15.5 z m -32.86,-26.226 h -2.914 c 0,0 -1.80773,0 -4.123,0 -0.35408,0 -0.71988,0 -1.09306,0 -2.94258,0 -6.33442,0 -7.89694,0 -7.2447,0 -13.113,5.87276 -13.113,13.113 0,7.23943 5.8683,13.113 13.113,13.113 1.95176,0 5.14854,0 7.89694,0 0.37417,0 0.73978,0 1.09306,0 2.33653,0 4.123,0 4.123,0 h 2.914 1.86 v -26.226 z m -75.64,0 c 7.24241,0 13.113,5.87097 13.113,13.113 0,7.24241 -5.87059,13.113 -13.113,13.113 -7.24203,0 -13.113,-5.87059 -13.113,-13.113 0,-7.24203 5.87097,-13.113 13.113,-13.113 z m -121.613,0 c -2.660234,0 -7.637656,0 -10.6361,0 -1.479134,0 -2.4769,0 -2.4769,0 H 65.689 63.86 62 v 26.226 h 1.86 1.829 1.085 c 0,0 1.005392,0 2.4769,0 3.182584,0 8.54608,0 10.6361,0 7.241662,0 13.113,-5.8714 13.113,-13.113 0,-7.24216 -5.871338,-13.113 -13.113,-13.113 z M 62,524.613 V 498.387 H 46.5 31 v 26.226 H 46.5 Z M 29.14,498.387 h -2.914 c 0,0 -1.807734,0 -4.123,0 -0.354082,0 -0.719882,0 -1.09306,0 -2.942582,0 -6.334416,0 -7.89694,0 C 5.8683,498.387 0,504.25976 0,511.5 c 0,7.23943 5.8683,13.113 13.113,13.113 1.95176,0 5.148542,0 7.89694,0 0.37417,0 0.739784,0 1.09306,0 2.336532,0 4.123,0 4.123,0 H 29.14 31 v -26.226 z m 978.36,-31 c 7.2424,0 13.113,5.87097 13.113,13.113 0,7.24241 -5.8706,13.113 -13.113,13.113 -7.242,0 -13.113,-5.87059 -13.113,-13.113 0,-7.24203 5.871,-13.113 13.113,-13.113 z m -121.613,0 c -2.66023,0 -7.63766,0 -10.6361,0 -1.47913,0 -2.4769,0 -2.4769,0 H 871.689 869.86 868 v 26.226 h 1.86 1.829 1.085 c 0,0 1.00539,0 2.4769,0 3.18258,0 8.54608,0 10.6361,0 7.24166,0 13.113,-5.8714 13.113,-13.113 0,-7.24216 -5.87134,-13.113 -13.113,-13.113 z M 868,493.613 V 467.387 H 852.5 837 v 26.226 h 15.5 z m -31,0 V 467.387 H 821.5 806 v 26.226 h 15.5 z m -32.86,-26.226 h -2.914 c 0,0 -1.80773,0 -4.123,0 -0.35408,0 -0.71988,0 -1.09306,0 -2.94258,0 -6.33442,0 -7.89694,0 -7.2447,0 -13.113,5.87276 -13.113,13.113 0,7.23943 5.8683,13.113 13.113,13.113 1.95176,0 5.14854,0 7.89694,0 0.37417,0 0.73978,0 1.09306,0 2.33653,0 4.123,0 4.123,0 h 2.914 1.86 v -26.226 z m -104.253,0 c -2.66023,0 -7.63766,0 -10.6361,0 -1.47913,0 -2.4769,0 -2.4769,0 H 685.689 683.86 682 v 26.226 h 1.86 1.829 1.085 c 0,0 1.00539,0 2.4769,0 3.18258,0 8.54608,0 10.6361,0 7.24166,0 13.113,-5.8714 13.113,-13.113 0,-7.24216 -5.87134,-13.113 -13.113,-13.113 z m -19.747,0 h -2.914 c 0,0 -1.80773,0 -4.123,0 -0.35408,0 -0.71988,0 -1.09306,0 -2.94258,0 -6.33442,0 -7.89694,0 -7.2447,0 -13.113,5.87276 -13.113,13.113 0,7.23943 5.8683,13.113 13.113,13.113 1.95176,0 5.14854,0 7.89694,0 0.37417,0 0.73978,0 1.09306,0 2.33653,0 4.123,0 4.123,0 h 2.914 1.86 v -26.226 z m -75.64,0 c 7.24241,0 13.113,5.87097 13.113,13.113 0,7.24241 -5.87059,13.113 -13.113,13.113 -7.24203,0 -13.113,-5.87059 -13.113,-13.113 0,-7.24203 5.87097,-13.113 13.113,-13.113 z m -62,0 c 7.24241,0 13.113,5.87097 13.113,13.113 0,7.24241 -5.87059,13.113 -13.113,13.113 -7.24203,0 -13.113,-5.87059 -13.113,-13.113 0,-7.24203 5.87097,-13.113 13.113,-13.113 z m -93,0 c 7.24241,0 13.113,5.87097 13.113,13.113 0,7.24241 -5.87059,13.113 -13.113,13.113 -7.24203,0 -13.113,-5.87059 -13.113,-13.113 0,-7.24203 5.87097,-13.113 13.113,-13.113 z m -152.613,0 c -2.66023,0 -7.63766,0 -10.6361,0 -1.47913,0 -2.4769,0 -2.4769,0 H 282.689 280.86 279 v 26.226 h 1.86 1.829 1.085 c 0,0 1.00539,0 2.4769,0 3.18258,0 8.54608,0 10.6361,0 7.24166,0 13.113,-5.8714 13.113,-13.113 0,-7.24216 -5.87134,-13.113 -13.113,-13.113 z M 279,493.613 V 467.387 H 263.5 248 v 26.226 h 15.5 z m -32.86,-26.226 h -2.914 c 0,0 -1.80773,0 -4.123,0 -0.35408,0 -0.71988,0 -1.09306,0 -2.94258,0 -6.33442,0 -7.89694,0 -7.2447,0 -13.113,5.87276 -13.113,13.113 0,7.23943 5.8683,13.113 13.113,13.113 1.95176,0 5.14854,0 7.89694,0 0.37417,0 0.73978,0 1.09306,0 2.33653,0 4.123,0 4.123,0 h 2.914 1.86 v -26.226 z m -106.64,0 c 7.24241,0 13.113,5.87097 13.113,13.113 0,7.24241 -5.87059,13.113 -13.113,13.113 -7.24203,0 -13.113,-5.87059 -13.113,-13.113 0,-7.24203 5.87097,-13.113 13.113,-13.113 z m -62,0 c 7.242406,0 13.113,5.87097 13.113,13.113 0,7.24241 -5.870594,13.113 -13.113,13.113 -7.242034,0 -13.113,-5.87059 -13.113,-13.113 0,-7.24203 5.870966,-13.113 13.113,-13.113 z m -62,0 c 7.242406,0 13.113,5.87097 13.113,13.113 0,7.24241 -5.870594,13.113 -13.113,13.113 -7.242034,0 -13.113,-5.87059 -13.113,-13.113 0,-7.24203 5.870966,-13.113 13.113,-13.113 z m 961,-31 c 7.24241,0 13.113,5.87097 13.113,13.113 0,7.24241 -5.87059,13.113 -13.113,13.113 -7.24203,0 -13.113,-5.87059 -13.113,-13.113 0,-7.24203 5.87097,-13.113 13.113,-13.113 z m -155,0 c 7.24241,0 13.113,5.87097 13.113,13.113 0,7.24241 -5.87059,13.113 -13.113,13.113 -7.24203,0 -13.113,-5.87059 -13.113,-13.113 0,-7.24203 5.87097,-13.113 13.113,-13.113 z m -59.613,0 c -2.66023,0 -7.63766,0 -10.6361,0 -1.47913,0 -2.4769,0 -2.4769,0 H 747.689 745.86 744 v 26.226 h 1.86 1.829 1.085 c 0,0 1.00539,0 2.4769,0 3.18258,0 8.54608,0 10.6361,0 7.24166,0 13.113,-5.8714 13.113,-13.113 0,-7.24216 -5.87134,-13.113 -13.113,-13.113 z M 744,462.613 V 436.387 H 728.5 713 v 26.226 h 15.5 z m -32.86,-26.226 h -2.914 c 0,0 -1.80773,0 -4.123,0 -0.35408,0 -0.71988,0 -1.09306,0 -2.94258,0 -6.33442,0 -7.89694,0 -7.2447,0 -13.113,5.87276 -13.113,13.113 0,7.23943 5.8683,13.113 13.113,13.113 1.95176,0 5.14854,0 7.89694,0 0.37417,0 0.73978,0 1.09306,0 2.33653,0 4.123,0 4.123,0 h 2.914 1.86 v -26.226 z m -228.253,0 c -2.66023,0 -7.63766,0 -10.6361,0 -1.47913,0 -2.4769,0 -2.4769,0 H 468.689 466.86 465 v 26.226 h 1.86 1.829 1.085 c 0,0 1.00539,0 2.4769,0 3.18258,0 8.54608,0 10.6361,0 7.24166,0 13.113,-5.8714 13.113,-13.113 0,-7.24216 -5.87134,-13.113 -13.113,-13.113 z M 465,462.613 V 436.387 H 449.5 434 v 26.226 h 15.5 z m -32.86,-26.226 h -2.914 c 0,0 -1.80773,0 -4.123,0 -0.35408,0 -0.71988,0 -1.09306,0 -2.94258,0 -6.33442,0 -7.89694,0 -7.2447,0 -13.113,5.87276 -13.113,13.113 0,7.23943 5.8683,13.113 13.113,13.113 1.95176,0 5.14854,0 7.89694,0 0.37417,0 0.73978,0 1.09306,0 2.33653,0 4.123,0 4.123,0 h 2.914 1.86 v -26.226 z m -135.253,0 c -2.66023,0 -7.63766,0 -10.6361,0 -1.47913,0 -2.4769,0 -2.4769,0 H 282.689 280.86 279 v 26.226 h 1.86 1.829 1.085 c 0,0 1.00539,0 2.4769,0 3.18258,0 8.54608,0 10.6361,0 7.24166,0 13.113,-5.8714 13.113,-13.113 0,-7.24216 -5.87134,-13.113 -13.113,-13.113 z m -19.747,0 h -2.914 c 0,0 -1.80773,0 -4.123,0 -0.35408,0 -0.71988,0 -1.09306,0 -2.94258,0 -6.33442,0 -7.89694,0 -7.2447,0 -13.113,5.87276 -13.113,13.113 0,7.23943 5.8683,13.113 13.113,13.113 1.95176,0 5.14854,0 7.89694,0 0.37417,0 0.73978,0 1.09306,0 2.33653,0 4.123,0 4.123,0 h 2.914 1.86 v -26.226 z m -75.64,0 c 7.24241,0 13.113,5.87097 13.113,13.113 0,7.24241 -5.87059,13.113 -13.113,13.113 -7.24203,0 -13.113,-5.87059 -13.113,-13.113 0,-7.24203 5.87097,-13.113 13.113,-13.113 z m -90.613,0 c -2.66023,0 -7.63766,0 -10.6361,0 -1.479134,0 -2.4769,0 -2.4769,0 H 96.689 94.86 93 v 26.226 h 1.86 1.829 1.085 c 0,0 1.005392,0 2.4769,0 3.18258,0 8.54608,0 10.6361,0 7.24166,0 13.113,-5.8714 13.113,-13.113 0,-7.24216 -5.87134,-13.113 -13.113,-13.113 z m -19.747,0 h -2.914 c 0,0 -1.807734,0 -4.123,0 -0.354082,0 -0.719882,0 -1.09306,0 -2.942582,0 -6.334416,0 -7.89694,0 -7.2447,0 -13.113,5.87276 -13.113,13.113 0,7.23943 5.8683,13.113 13.113,13.113 1.95176,0 5.148542,0 7.89694,0 0.37417,0 0.739784,0 1.09306,0 2.336532,0 4.123,0 4.123,0 H 91.14 93 v -26.226 z m -75.64,0 c 7.242406,0 13.113,5.87097 13.113,13.113 0,7.24241 -5.870594,13.113 -13.113,13.113 -7.242034,0 -13.113,-5.87059 -13.113,-13.113 0,-7.24203 5.870966,-13.113 13.113,-13.113 z m 992,-31 c 7.2424,0 13.113,5.87097 13.113,13.113 0,7.24241 -5.8706,13.113 -13.113,13.113 -7.242,0 -13.113,-5.87059 -13.113,-13.113 0,-7.24203 5.871,-13.113 13.113,-13.113 z m -62,0 c 7.24241,0 13.113,5.87097 13.113,13.113 0,7.24241 -5.87059,13.113 -13.113,13.113 -7.24203,0 -13.113,-5.87059 -13.113,-13.113 0,-7.24203 5.87097,-13.113 13.113,-13.113 z m -183.613,0 c -2.66023,0 -7.63766,0 -10.6361,0 -1.47913,0 -2.4769,0 -2.4769,0 H 747.689 745.86 744 v 26.226 h 1.86 1.829 1.085 c 0,0 1.00539,0 2.4769,0 3.18258,0 8.54608,0 10.6361,0 7.24166,0 13.113,-5.8714 13.113,-13.113 0,-7.24216 -5.87134,-13.113 -13.113,-13.113 z M 744,431.613 V 405.387 H 728.5 713 v 26.226 h 15.5 z m -31,0 V 405.387 H 697.5 682 v 26.226 h 15.5 z m -31,0 V 405.387 H 666.5 651 v 26.226 h 15.5 z m -31,0 V 405.387 H 635.5 620 v 26.226 h 15.5 z m -31,0 V 405.387 H 604.5 589 v 26.226 h 15.5 z m -32.86,-26.226 h -2.914 c 0,0 -1.80773,0 -4.123,0 -0.35408,0 -0.71988,0 -1.09306,0 -2.94258,0 -6.33442,0 -7.89694,0 -7.2447,0 -13.113,5.87276 -13.113,13.113 0,7.23943 5.8683,13.113 13.113,13.113 1.95176,0 5.14854,0 7.89694,0 0.37417,0 0.73978,0 1.09306,0 2.33653,0 4.123,0 4.123,0 h 2.914 1.86 v -26.226 z m -104.253,0 c -2.66023,0 -7.63766,0 -10.6361,0 -1.47913,0 -2.4769,0 -2.4769,0 H 468.689 466.86 465 v 26.226 h 1.86 1.829 1.085 c 0,0 1.00539,0 2.4769,0 3.18258,0 8.54608,0 10.6361,0 7.24166,0 13.113,-5.8714 13.113,-13.113 0,-7.24216 -5.87134,-13.113 -13.113,-13.113 z M 465,431.613 V 405.387 H 449.5 434 v 26.226 h 15.5 z m -32.86,-26.226 h -2.914 c 0,0 -1.80773,0 -4.123,0 -0.35408,0 -0.71988,0 -1.09306,0 -2.94258,0 -6.33442,0 -7.89694,0 -7.2447,0 -13.113,5.87276 -13.113,13.113 0,7.23943 5.8683,13.113 13.113,13.113 1.95176,0 5.14854,0 7.89694,0 0.37417,0 0.73978,0 1.09306,0 2.33653,0 4.123,0 4.123,0 h 2.914 1.86 v -26.226 z m -73.253,0 c -2.66023,0 -7.63766,0 -10.6361,0 -1.47913,0 -2.4769,0 -2.4769,0 H 344.689 342.86 341 v 26.226 h 1.86 1.829 1.085 c 0,0 1.00539,0 2.4769,0 3.18258,0 8.54608,0 10.6361,0 7.24166,0 13.113,-5.8714 13.113,-13.113 0,-7.24216 -5.87134,-13.113 -13.113,-13.113 z m -19.747,0 h -2.914 c 0,0 -1.80773,0 -4.123,0 -0.35408,0 -0.71988,0 -1.09306,0 -2.94258,0 -6.33442,0 -7.89694,0 -7.2447,0 -13.113,5.87276 -13.113,13.113 0,7.23943 5.8683,13.113 13.113,13.113 1.95176,0 5.14854,0 7.89694,0 0.37417,0 0.73978,0 1.09306,0 2.33653,0 4.123,0 4.123,0 h 2.914 1.86 v -26.226 z m -166.253,0 c -2.66023,0 -7.63766,0 -10.6361,0 -1.47913,0 -2.4769,0 -2.4769,0 H 158.689 156.86 155 v 26.226 h 1.86 1.829 1.085 c 0,0 1.00539,0 2.4769,0 3.18258,0 8.54608,0 10.6361,0 7.24166,0 13.113,-5.8714 13.113,-13.113 0,-7.24216 -5.87134,-13.113 -13.113,-13.113 z M 155,431.613 V 405.387 H 139.5 124 v 26.226 h 15.5 z m -32.86,-26.226 h -2.914 c 0,0 -1.80773,0 -4.123,0 -0.35408,0 -0.71988,0 -1.09306,0 -2.94258,0 -6.33442,0 -7.89694,0 -7.2447,0 -13.113,5.87276 -13.113,13.113 0,7.23943 5.8683,13.113 13.113,13.113 1.95176,0 5.14854,0 7.89694,0 0.37417,0 0.73978,0 1.09306,0 2.33653,0 4.123,0 4.123,0 h 2.914 1.86 v -26.226 z m -73.253,0 c -2.660234,0 -7.637656,0 -10.6361,0 -1.479134,0 -2.4769,0 -2.4769,0 H 34.689 32.86 31 v 26.226 h 1.86 1.829 1.085 c 0,0 1.005392,0 2.4769,0 3.182584,0 8.54608,0 10.6361,0 7.241662,0 13.113,-5.8714 13.113,-13.113 0,-7.24216 -5.871338,-13.113 -13.113,-13.113 z m -19.747,0 h -2.914 c 0,0 -1.807734,0 -4.123,0 -0.354082,0 -0.719882,0 -1.09306,0 -2.942582,0 -6.334416,0 -7.89694,0 C 5.8683,405.387 0,411.25976 0,418.5 c 0,7.23943 5.8683,13.113 13.113,13.113 1.95176,0 5.148542,0 7.89694,0 0.37417,0 0.739784,0 1.09306,0 2.336532,0 4.123,0 4.123,0 H 29.14 31 v -26.226 z m 947.36,-31 c 7.24241,0 13.113,5.87097 13.113,13.113 0,7.24241 -5.87059,13.113 -13.113,13.113 -7.24203,0 -13.113,-5.87059 -13.113,-13.113 0,-7.24203 5.87097,-13.113 13.113,-13.113 z m -59.613,0 c -2.66023,0 -7.63766,0 -10.6361,0 -1.47913,0 -2.4769,0 -2.4769,0 H 902.689 900.86 899 v 26.226 h 1.86 1.829 1.085 c 0,0 1.00539,0 2.4769,0 3.18258,0 8.54608,0 10.6361,0 7.24166,0 13.113,-5.8714 13.113,-13.113 0,-7.24216 -5.87134,-13.113 -13.113,-13.113 z M 899,400.613 V 374.387 H 883.5 868 v 26.226 h 15.5 z m -31,0 V 374.387 H 852.5 837 v 26.226 h 15.5 z m -32.86,-26.226 h -2.914 c 0,0 -1.80773,0 -4.123,0 -0.35408,0 -0.71988,0 -1.09306,0 -2.94258,0 -6.33442,0 -7.89694,0 -7.2447,0 -13.113,5.87276 -13.113,13.113 0,7.23943 5.8683,13.113 13.113,13.113 1.95176,0 5.14854,0 7.89694,0 0.37417,0 0.73978,0 1.09306,0 2.33653,0 4.123,0 4.123,0 h 2.914 1.86 v -26.226 z m -73.253,0 c -2.66023,0 -7.63766,0 -10.6361,0 -1.47913,0 -2.4769,0 -2.4769,0 H 747.689 745.86 744 v 26.226 h 1.86 1.829 1.085 c 0,0 1.00539,0 2.4769,0 3.18258,0 8.54608,0 10.6361,0 7.24166,0 13.113,-5.8714 13.113,-13.113 0,-7.24216 -5.87134,-13.113 -13.113,-13.113 z m -19.747,0 h -2.914 c 0,0 -1.80773,0 -4.123,0 -0.35408,0 -0.71988,0 -1.09306,0 -2.94258,0 -6.33442,0 -7.89694,0 -7.2447,0 -13.113,5.87276 -13.113,13.113 0,7.23943 5.8683,13.113 13.113,13.113 1.95176,0 5.14854,0 7.89694,0 0.37417,0 0.73978,0 1.09306,0 2.33653,0 4.123,0 4.123,0 h 2.914 1.86 v -26.226 z m -75.64,0 c 7.24241,0 13.113,5.87097 13.113,13.113 0,7.24241 -5.87059,13.113 -13.113,13.113 -7.24203,0 -13.113,-5.87059 -13.113,-13.113 0,-7.24203 5.87097,-13.113 13.113,-13.113 z m -59.613,0 c -2.66023,0 -7.63766,0 -10.6361,0 -1.47913,0 -2.4769,0 -2.4769,0 H 592.689 590.86 589 v 26.226 h 1.86 1.829 1.085 c 0,0 1.00539,0 2.4769,0 3.18258,0 8.54608,0 10.6361,0 7.24166,0 13.113,-5.8714 13.113,-13.113 0,-7.24216 -5.87134,-13.113 -13.113,-13.113 z M 589,400.613 V 374.387 H 573.5 558 v 26.226 h 15.5 z m -31,0 V 374.387 H 542.5 527 v 26.226 h 15.5 z m -32.86,-26.226 h -2.914 c 0,0 -1.80773,0 -4.123,0 -0.35408,0 -0.71988,0 -1.09306,0 -2.94258,0 -6.33442,0 -7.89694,0 -7.2447,0 -13.113,5.87276 -13.113,13.113 0,7.23943 5.8683,13.113 13.113,13.113 1.95176,0 5.14854,0 7.89694,0 0.37417,0 0.73978,0 1.09306,0 2.33653,0 4.123,0 4.123,0 h 2.914 1.86 v -26.226 z m -104.253,0 c -2.66023,0 -7.63766,0 -10.6361,0 -1.47913,0 -2.4769,0 -2.4769,0 H 406.689 404.86 403 v 26.226 h 1.86 1.829 1.085 c 0,0 1.00539,0 2.4769,0 3.18258,0 8.54608,0 10.6361,0 7.24166,0 13.113,-5.8714 13.113,-13.113 0,-7.24216 -5.87134,-13.113 -13.113,-13.113 z m -19.747,0 h -2.914 c 0,0 -1.80773,0 -4.123,0 -0.35408,0 -0.71988,0 -1.09306,0 -2.94258,0 -6.33442,0 -7.89694,0 -7.2447,0 -13.113,5.87276 -13.113,13.113 0,7.23943 5.8683,13.113 13.113,13.113 1.95176,0 5.14854,0 7.89694,0 0.37417,0 0.73978,0 1.09306,0 2.33653,0 4.123,0 4.123,0 h 2.914 1.86 v -26.226 z m -135.253,0 c -2.66023,0 -7.63766,0 -10.6361,0 -1.47913,0 -2.4769,0 -2.4769,0 H 251.689 249.86 248 v 26.226 h 1.86 1.829 1.085 c 0,0 1.00539,0 2.4769,0 3.18258,0 8.54608,0 10.6361,0 7.24166,0 13.113,-5.8714 13.113,-13.113 0,-7.24216 -5.87134,-13.113 -13.113,-13.113 z M 248,400.613 V 374.387 H 232.5 217 v 26.226 h 15.5 z m -32.86,-26.226 h -2.914 c 0,0 -1.80773,0 -4.123,0 -0.35408,0 -0.71988,0 -1.09306,0 -2.94258,0 -6.33442,0 -7.89694,0 -7.2447,0 -13.113,5.87276 -13.113,13.113 0,7.23943 5.8683,13.113 13.113,13.113 1.95176,0 5.14854,0 7.89694,0 0.37417,0 0.73978,0 1.09306,0 2.33653,0 4.123,0 4.123,0 h 2.914 1.86 v -26.226 z m -106.64,0 c 7.24241,0 13.113,5.87097 13.113,13.113 0,7.24241 -5.87059,13.113 -13.113,13.113 -7.24203,0 -13.113,-5.87059 -13.113,-13.113 0,-7.24203 5.87097,-13.113 13.113,-13.113 z m 899,-31 c 7.2424,0 13.113,5.87097 13.113,13.113 0,7.24241 -5.8706,13.113 -13.113,13.113 -7.242,0 -13.113,-5.87059 -13.113,-13.113 0,-7.24203 5.871,-13.113 13.113,-13.113 z m -124,0 c 7.24241,0 13.113,5.87097 13.113,13.113 0,7.24241 -5.87059,13.113 -13.113,13.113 -7.24203,0 -13.113,-5.87059 -13.113,-13.113 0,-7.24203 5.87097,-13.113 13.113,-13.113 z m -93,0 c 7.24241,0 13.113,5.87097 13.113,13.113 0,7.24241 -5.87059,13.113 -13.113,13.113 -7.24203,0 -13.113,-5.87059 -13.113,-13.113 0,-7.24203 5.87097,-13.113 13.113,-13.113 z m -124,0 c 7.24241,0 13.113,5.87097 13.113,13.113 0,7.24241 -5.87059,13.113 -13.113,13.113 -7.24203,0 -13.113,-5.87059 -13.113,-13.113 0,-7.24203 5.87097,-13.113 13.113,-13.113 z m -90.613,0 c -2.66023,0 -7.63766,0 -10.6361,0 -1.47913,0 -2.4769,0 -2.4769,0 H 561.689 559.86 558 v 26.226 h 1.86 1.829 1.085 c 0,0 1.00539,0 2.4769,0 3.18258,0 8.54608,0 10.6361,0 7.24166,0 13.113,-5.8714 13.113,-13.113 0,-7.24216 -5.87134,-13.113 -13.113,-13.113 z m -19.747,0 h -2.914 c 0,0 -1.80773,0 -4.123,0 -0.35408,0 -0.71988,0 -1.09306,0 -2.94258,0 -6.33442,0 -7.89694,0 -7.2447,0 -13.113,5.87276 -13.113,13.113 0,7.23943 5.8683,13.113 13.113,13.113 1.95176,0 5.14854,0 7.89694,0 0.37417,0 0.73978,0 1.09306,0 2.33653,0 4.123,0 4.123,0 h 2.914 1.86 v -26.226 z m -228.253,0 c -2.66023,0 -7.63766,0 -10.6361,0 -1.47913,0 -2.4769,0 -2.4769,0 H 313.689 311.86 310 v 26.226 h 1.86 1.829 1.085 c 0,0 1.00539,0 2.4769,0 3.18258,0 8.54608,0 10.6361,0 7.24166,0 13.113,-5.8714 13.113,-13.113 0,-7.24216 -5.87134,-13.113 -13.113,-13.113 z M 310,369.613 V 343.387 H 294.5 279 v 26.226 h 15.5 z m -31,0 V 343.387 H 263.5 248 v 26.226 h 15.5 z m -32.86,-26.226 h -2.914 c 0,0 -1.80773,0 -4.123,0 -0.35408,0 -0.71988,0 -1.09306,0 -2.94258,0 -6.33442,0 -7.89694,0 -7.2447,0 -13.113,5.87276 -13.113,13.113 0,7.23943 5.8683,13.113 13.113,13.113 1.95176,0 5.14854,0 7.89694,0 0.37417,0 0.73978,0 1.09306,0 2.33653,0 4.123,0 4.123,0 h 2.914 1.86 v -26.226 z m -135.253,0 c -2.66023,0 -7.63766,0 -10.6361,0 -1.479134,0 -2.4769,0 -2.4769,0 H 96.689 94.86 93 v 26.226 h 1.86 1.829 1.085 c 0,0 1.005392,0 2.4769,0 3.18258,0 8.54608,0 10.6361,0 7.24166,0 13.113,-5.8714 13.113,-13.113 0,-7.24216 -5.87134,-13.113 -13.113,-13.113 z M 93,369.613 V 343.387 H 77.5 62 v 26.226 h 15.5 z m -31,0 V 343.387 H 46.5 31 v 26.226 H 46.5 Z M 29.14,343.387 h -2.914 c 0,0 -1.807734,0 -4.123,0 -0.354082,0 -0.719882,0 -1.09306,0 -2.942582,0 -6.334416,0 -7.89694,0 C 5.8683,343.387 0,349.25976 0,356.5 c 0,7.23943 5.8683,13.113 13.113,13.113 1.95176,0 5.148542,0 7.89694,0 0.37417,0 0.739784,0 1.09306,0 2.336532,0 4.123,0 4.123,0 H 29.14 31 v -26.226 z m 947.36,-31 c 7.24241,0 13.113,5.87097 13.113,13.113 0,7.24241 -5.87059,13.113 -13.113,13.113 -7.24203,0 -13.113,-5.87059 -13.113,-13.113 0,-7.24203 5.87097,-13.113 13.113,-13.113 z m -124,0 c 7.24241,0 13.113,5.87097 13.113,13.113 0,7.24241 -5.87059,13.113 -13.113,13.113 -7.24203,0 -13.113,-5.87059 -13.113,-13.113 0,-7.24203 5.87097,-13.113 13.113,-13.113 z m -121.613,0 c -2.66023,0 -7.63766,0 -10.6361,0 -1.47913,0 -2.4769,0 -2.4769,0 H 716.689 714.86 713 v 26.226 h 1.86 1.829 1.085 c 0,0 1.00539,0 2.4769,0 3.18258,0 8.54608,0 10.6361,0 7.24166,0 13.113,-5.8714 13.113,-13.113 0,-7.24216 -5.87134,-13.113 -13.113,-13.113 z m -19.747,0 h -2.914 c 0,0 -1.80773,0 -4.123,0 -0.35408,0 -0.71988,0 -1.09306,0 -2.94258,0 -6.33442,0 -7.89694,0 -7.2447,0 -13.113,5.87276 -13.113,13.113 0,7.23943 5.8683,13.113 13.113,13.113 1.95176,0 5.14854,0 7.89694,0 0.37417,0 0.73978,0 1.09306,0 2.33653,0 4.123,0 4.123,0 h 2.914 1.86 v -26.226 z m -75.64,0 c 7.24241,0 13.113,5.87097 13.113,13.113 0,7.24241 -5.87059,13.113 -13.113,13.113 -7.24203,0 -13.113,-5.87059 -13.113,-13.113 0,-7.24203 5.87097,-13.113 13.113,-13.113 z m -90.613,0 c -2.66023,0 -7.63766,0 -10.6361,0 -1.47913,0 -2.4769,0 -2.4769,0 H 530.689 528.86 527 v 26.226 h 1.86 1.829 1.085 c 0,0 1.00539,0 2.4769,0 3.18258,0 8.54608,0 10.6361,0 7.24166,0 13.113,-5.8714 13.113,-13.113 0,-7.24216 -5.87134,-13.113 -13.113,-13.113 z M 527,338.613 V 312.387 H 511.5 496 v 26.226 h 15.5 z m -31,0 V 312.387 H 480.5 465 v 26.226 h 15.5 z m -31,0 V 312.387 H 449.5 434 v 26.226 h 15.5 z m -32.86,-26.226 h -2.914 c 0,0 -1.80773,0 -4.123,0 -0.35408,0 -0.71988,0 -1.09306,0 -2.94258,0 -6.33442,0 -7.89694,0 -7.2447,0 -13.113,5.87276 -13.113,13.113 0,7.23943 5.8683,13.113 13.113,13.113 1.95176,0 5.14854,0 7.89694,0 0.37417,0 0.73978,0 1.09306,0 2.33653,0 4.123,0 4.123,0 h 2.914 1.86 v -26.226 z m -104.253,0 c -2.66023,0 -7.63766,0 -10.6361,0 -1.47913,0 -2.4769,0 -2.4769,0 H 313.689 311.86 310 v 26.226 h 1.86 1.829 1.085 c 0,0 1.00539,0 2.4769,0 3.18258,0 8.54608,0 10.6361,0 7.24166,0 13.113,-5.8714 13.113,-13.113 0,-7.24216 -5.87134,-13.113 -13.113,-13.113 z m -19.747,0 h -2.914 c 0,0 -1.80773,0 -4.123,0 -0.35408,0 -0.71988,0 -1.09306,0 -2.94258,0 -6.33442,0 -7.89694,0 -7.2447,0 -13.113,5.87276 -13.113,13.113 0,7.23943 5.8683,13.113 13.113,13.113 1.95176,0 5.14854,0 7.89694,0 0.37417,0 0.73978,0 1.09306,0 2.33653,0 4.123,0 4.123,0 h 2.914 1.86 v -26.226 z m -73.253,0 c -2.66023,0 -7.63766,0 -10.6361,0 -1.47913,0 -2.4769,0 -2.4769,0 H 220.689 218.86 217 v 26.226 h 1.86 1.829 1.085 c 0,0 1.00539,0 2.4769,0 3.18258,0 8.54608,0 10.6361,0 7.24166,0 13.113,-5.8714 13.113,-13.113 0,-7.24216 -5.87134,-13.113 -13.113,-13.113 z m -19.747,0 h -2.914 c 0,0 -1.80773,0 -4.123,0 -0.35408,0 -0.71988,0 -1.09306,0 -2.94258,0 -6.33442,0 -7.89694,0 -7.2447,0 -13.113,5.87276 -13.113,13.113 0,7.23943 5.8683,13.113 13.113,13.113 1.95176,0 5.14854,0 7.89694,0 0.37417,0 0.73978,0 1.09306,0 2.33653,0 4.123,0 4.123,0 h 2.914 1.86 v -26.226 z m -135.253,0 c -2.660234,0 -7.637656,0 -10.6361,0 -1.479134,0 -2.4769,0 -2.4769,0 H 65.689 63.86 62 v 26.226 h 1.86 1.829 1.085 c 0,0 1.005392,0 2.4769,0 3.182584,0 8.54608,0 10.6361,0 7.241662,0 13.113,-5.8714 13.113,-13.113 0,-7.24216 -5.871338,-13.113 -13.113,-13.113 z m -19.747,0 h -2.914 c 0,0 -1.807734,0 -4.123,0 -0.354082,0 -0.719882,0 -1.09306,0 -2.942582,0 -6.334416,0 -7.89694,0 -7.2447,0 -13.113,5.87276 -13.113,13.113 0,7.23943 5.8683,13.113 13.113,13.113 1.95176,0 5.148542,0 7.89694,0 0.37417,0 0.739784,0 1.09306,0 2.336532,0 4.123,0 4.123,0 H 60.14 62 v -26.226 z m 887.747,-31 c -2.66023,0 -7.63766,0 -10.6361,0 -1.47913,0 -2.4769,0 -2.4769,0 H 933.689 931.86 930 v 26.226 h 1.86 1.829 1.085 c 0,0 1.00539,0 2.4769,0 3.18258,0 8.54608,0 10.6361,0 7.24166,0 13.113,-5.8714 13.113,-13.113 0,-7.24216 -5.87134,-13.113 -13.113,-13.113 z m -19.747,0 h -2.914 c 0,0 -1.80773,0 -4.123,0 -0.35408,0 -0.71988,0 -1.09306,0 -2.94258,0 -6.33442,0 -7.89694,0 -7.2447,0 -13.113,5.87276 -13.113,13.113 0,7.23943 5.8683,13.113 13.113,13.113 1.95176,0 5.14854,0 7.89694,0 0.37417,0 0.73978,0 1.09306,0 2.33653,0 4.123,0 4.123,0 h 2.914 1.86 v -26.226 z m -73.253,0 c -2.66023,0 -7.63766,0 -10.6361,0 -1.47913,0 -2.4769,0 -2.4769,0 H 840.689 838.86 837 v 26.226 h 1.86 1.829 1.085 c 0,0 1.00539,0 2.4769,0 3.18258,0 8.54608,0 10.6361,0 7.24166,0 13.113,-5.8714 13.113,-13.113 0,-7.24216 -5.87134,-13.113 -13.113,-13.113 z M 837,307.613 V 281.387 H 821.5 806 v 26.226 h 15.5 z m -32.86,-26.226 h -2.914 c 0,0 -1.80773,0 -4.123,0 -0.35408,0 -0.71988,0 -1.09306,0 -2.94258,0 -6.33442,0 -7.89694,0 -7.2447,0 -13.113,5.87276 -13.113,13.113 0,7.23943 5.8683,13.113 13.113,13.113 1.95176,0 5.14854,0 7.89694,0 0.37417,0 0.73978,0 1.09306,0 2.33653,0 4.123,0 4.123,0 h 2.914 1.86 v -26.226 z m -75.64,0 c 7.24241,0 13.113,5.87097 13.113,13.113 0,7.24241 -5.87059,13.113 -13.113,13.113 -7.24203,0 -13.113,-5.87059 -13.113,-13.113 0,-7.24203 5.87097,-13.113 13.113,-13.113 z m -62,0 c 7.24241,0 13.113,5.87097 13.113,13.113 0,7.24241 -5.87059,13.113 -13.113,13.113 -7.24203,0 -13.113,-5.87059 -13.113,-13.113 0,-7.24203 5.87097,-13.113 13.113,-13.113 z m -90.613,0 c -2.66023,0 -7.63766,0 -10.6361,0 -1.47913,0 -2.4769,0 -2.4769,0 H 561.689 559.86 558 v 26.226 h 1.86 1.829 1.085 c 0,0 1.00539,0 2.4769,0 3.18258,0 8.54608,0 10.6361,0 7.24166,0 13.113,-5.8714 13.113,-13.113 0,-7.24216 -5.87134,-13.113 -13.113,-13.113 z m -19.747,0 h -2.914 c 0,0 -1.80773,0 -4.123,0 -0.35408,0 -0.71988,0 -1.09306,0 -2.94258,0 -6.33442,0 -7.89694,0 -7.2447,0 -13.113,5.87276 -13.113,13.113 0,7.23943 5.8683,13.113 13.113,13.113 1.95176,0 5.14854,0 7.89694,0 0.37417,0 0.73978,0 1.09306,0 2.33653,0 4.123,0 4.123,0 h 2.914 1.86 v -26.226 z m -75.64,0 c 7.24241,0 13.113,5.87097 13.113,13.113 0,7.24241 -5.87059,13.113 -13.113,13.113 -7.24203,0 -13.113,-5.87059 -13.113,-13.113 0,-7.24203 5.87097,-13.113 13.113,-13.113 z m -124,0 c 7.24241,0 13.113,5.87097 13.113,13.113 0,7.24241 -5.87059,13.113 -13.113,13.113 -7.24203,0 -13.113,-5.87059 -13.113,-13.113 0,-7.24203 5.87097,-13.113 13.113,-13.113 z m -93,0 c 7.24241,0 13.113,5.87097 13.113,13.113 0,7.24241 -5.87059,13.113 -13.113,13.113 -7.24203,0 -13.113,-5.87059 -13.113,-13.113 0,-7.24203 5.87097,-13.113 13.113,-13.113 z m -124,0 c 7.24241,0 13.113,5.87097 13.113,13.113 0,7.24241 -5.87059,13.113 -13.113,13.113 -7.24203,0 -13.113,-5.87059 -13.113,-13.113 0,-7.24203 5.87097,-13.113 13.113,-13.113 z m -124,0 c 7.242406,0 13.113,5.87097 13.113,13.113 0,7.24241 -5.870594,13.113 -13.113,13.113 -7.242034,0 -13.113,-5.87059 -13.113,-13.113 0,-7.24203 5.870966,-13.113 13.113,-13.113 z m 961,-31 c 7.24241,0 13.113,5.87097 13.113,13.113 0,7.24241 -5.87059,13.113 -13.113,13.113 -7.24203,0 -13.113,-5.87059 -13.113,-13.113 0,-7.24203 5.87097,-13.113 13.113,-13.113 z m -121.613,0 c -2.66023,0 -7.63766,0 -10.6361,0 -1.47913,0 -2.4769,0 -2.4769,0 H 840.689 838.86 837 v 26.226 h 1.86 1.829 1.085 c 0,0 1.00539,0 2.4769,0 3.18258,0 8.54608,0 10.6361,0 7.24166,0 13.113,-5.8714 13.113,-13.113 0,-7.24216 -5.87134,-13.113 -13.113,-13.113 z m -19.747,0 h -2.914 c 0,0 -1.80773,0 -4.123,0 -0.35408,0 -0.71988,0 -1.09306,0 -2.94258,0 -6.33442,0 -7.89694,0 -7.2447,0 -13.113,5.87276 -13.113,13.113 0,7.23943 5.8683,13.113 13.113,13.113 1.95176,0 5.14854,0 7.89694,0 0.37417,0 0.73978,0 1.09306,0 2.33653,0 4.123,0 4.123,0 h 2.914 1.86 v -26.226 z m -73.253,0 c -2.66023,0 -7.63766,0 -10.6361,0 -1.47913,0 -2.4769,0 -2.4769,0 H 747.689 745.86 744 v 26.226 h 1.86 1.829 1.085 c 0,0 1.00539,0 2.4769,0 3.18258,0 8.54608,0 10.6361,0 7.24166,0 13.113,-5.8714 13.113,-13.113 0,-7.24216 -5.87134,-13.113 -13.113,-13.113 z M 744,276.613 V 250.387 H 728.5 713 v 26.226 h 15.5 z m -31,0 V 250.387 H 697.5 682 v 26.226 h 15.5 z m -31,0 V 250.387 H 666.5 651 v 26.226 h 15.5 z m -31,0 V 250.387 H 635.5 620 v 26.226 h 15.5 z m -32.86,-26.226 h -2.914 c 0,0 -1.80773,0 -4.123,0 -0.35408,0 -0.71988,0 -1.09306,0 -2.94258,0 -6.33442,0 -7.89694,0 -7.2447,0 -13.113,5.87276 -13.113,13.113 0,7.23943 5.8683,13.113 13.113,13.113 1.95176,0 5.14854,0 7.89694,0 0.37417,0 0.73978,0 1.09306,0 2.33653,0 4.123,0 4.123,0 h 2.914 1.86 v -26.226 z m -75.64,0 c 7.24241,0 13.113,5.87097 13.113,13.113 0,7.24241 -5.87059,13.113 -13.113,13.113 -7.24203,0 -13.113,-5.87059 -13.113,-13.113 0,-7.24203 5.87097,-13.113 13.113,-13.113 z m -62,0 c 7.24241,0 13.113,5.87097 13.113,13.113 0,7.24241 -5.87059,13.113 -13.113,13.113 -7.24203,0 -13.113,-5.87059 -13.113,-13.113 0,-7.24203 5.87097,-13.113 13.113,-13.113 z m -62,0 c 7.24241,0 13.113,5.87097 13.113,13.113 0,7.24241 -5.87059,13.113 -13.113,13.113 -7.24203,0 -13.113,-5.87059 -13.113,-13.113 0,-7.24203 5.87097,-13.113 13.113,-13.113 z m -62,0 c 7.24241,0 13.113,5.87097 13.113,13.113 0,7.24241 -5.87059,13.113 -13.113,13.113 -7.24203,0 -13.113,-5.87059 -13.113,-13.113 0,-7.24203 5.87097,-13.113 13.113,-13.113 z m -62,0 c 7.24241,0 13.113,5.87097 13.113,13.113 0,7.24241 -5.87059,13.113 -13.113,13.113 -7.24203,0 -13.113,-5.87059 -13.113,-13.113 0,-7.24203 5.87097,-13.113 13.113,-13.113 z m -59.613,0 c -2.66023,0 -7.63766,0 -10.6361,0 -1.47913,0 -2.4769,0 -2.4769,0 H 220.689 218.86 217 v 26.226 h 1.86 1.829 1.085 c 0,0 1.00539,0 2.4769,0 3.18258,0 8.54608,0 10.6361,0 7.24166,0 13.113,-5.8714 13.113,-13.113 0,-7.24216 -5.87134,-13.113 -13.113,-13.113 z M 217,276.613 V 250.387 H 201.5 186 v 26.226 h 15.5 z m -31,0 V 250.387 H 170.5 155 v 26.226 h 15.5 z m -32.86,-26.226 h -2.914 c 0,0 -1.80773,0 -4.123,0 -0.35408,0 -0.71988,0 -1.09306,0 -2.94258,0 -6.33442,0 -7.89694,0 -7.2447,0 -13.113,5.87276 -13.113,13.113 0,7.23943 5.8683,13.113 13.113,13.113 1.95176,0 5.14854,0 7.89694,0 0.37417,0 0.73978,0 1.09306,0 2.33653,0 4.123,0 4.123,0 h 2.914 1.86 v -26.226 z m 546.747,-31 c -2.66023,0 -7.63766,0 -10.6361,0 -1.47913,0 -2.4769,0 -2.4769,0 H 685.689 683.86 682 v 26.226 h 1.86 1.829 1.085 c 0,0 1.00539,0 2.4769,0 3.18258,0 8.54608,0 10.6361,0 7.24166,0 13.113,-5.8714 13.113,-13.113 0,-7.24216 -5.87134,-13.113 -13.113,-13.113 z M 682,245.613 V 219.387 H 666.5 651 v 26.226 h 15.5 z m -31,0 V 219.387 H 635.5 620 v 26.226 h 15.5 z m -32.86,-26.226 h -2.914 c 0,0 -1.80773,0 -4.123,0 -0.35408,0 -0.71988,0 -1.09306,0 -2.94258,0 -6.33442,0 -7.89694,0 -7.2447,0 -13.113,5.87276 -13.113,13.113 0,7.23943 5.8683,13.113 13.113,13.113 1.95176,0 5.14854,0 7.89694,0 0.37417,0 0.73978,0 1.09306,0 2.33653,0 4.123,0 4.123,0 h 2.914 1.86 v -26.226 z m -73.253,0 c -2.66023,0 -7.63766,0 -10.6361,0 -1.47913,0 -2.4769,0 -2.4769,0 H 530.689 528.86 527 v 26.226 h 1.86 1.829 1.085 c 0,0 1.00539,0 2.4769,0 3.18258,0 8.54608,0 10.6361,0 7.24166,0 13.113,-5.8714 13.113,-13.113 0,-7.24216 -5.87134,-13.113 -13.113,-13.113 z M 527,245.613 V 219.387 H 511.5 496 v 26.226 h 15.5 z m -31,0 V 219.387 H 480.5 465 v 26.226 h 15.5 z m -31,0 V 219.387 H 449.5 434 v 26.226 h 15.5 z m -31,0 V 219.387 H 418.5 403 v 26.226 h 15.5 z m -31,0 V 219.387 H 387.5 372 v 26.226 h 15.5 z m -31,0 V 219.387 H 356.5 341 v 26.226 h 15.5 z m -31,0 V 219.387 H 325.5 310 v 26.226 h 15.5 z m -31,0 V 219.387 H 294.5 279 v 26.226 h 15.5 z m -32.86,-26.226 h -2.914 c 0,0 -1.80773,0 -4.123,0 -0.35408,0 -0.71988,0 -1.09306,0 -2.94258,0 -6.33442,0 -7.89694,0 -7.2447,0 -13.113,5.87276 -13.113,13.113 0,7.23943 5.8683,13.113 13.113,13.113 1.95176,0 5.14854,0 7.89694,0 0.37417,0 0.73978,0 1.09306,0 2.33653,0 4.123,0 4.123,0 h 2.914 1.86 v -26.226 z m 482.36,-31 c 7.24241,0 13.113,5.87097 13.113,13.113 0,7.24241 -5.87059,13.113 -13.113,13.113 -7.24203,0 -13.113,-5.87059 -13.113,-13.113 0,-7.24203 5.87097,-13.113 13.113,-13.113 z m -62,0 c 7.24241,0 13.113,5.87097 13.113,13.113 0,7.24241 -5.87059,13.113 -13.113,13.113 -7.24203,0 -13.113,-5.87059 -13.113,-13.113 0,-7.24203 5.87097,-13.113 13.113,-13.113 z m -62,0 c 7.24241,0 13.113,5.87097 13.113,13.113 0,7.24241 -5.87059,13.113 -13.113,13.113 -7.24203,0 -13.113,-5.87059 -13.113,-13.113 0,-7.24203 5.87097,-13.113 13.113,-13.113 z m -62,0 c 7.24241,0 13.113,5.87097 13.113,13.113 0,7.24241 -5.87059,13.113 -13.113,13.113 -7.24203,0 -13.113,-5.87059 -13.113,-13.113 0,-7.24203 5.87097,-13.113 13.113,-13.113 z m -62,0 c 7.24241,0 13.113,5.87097 13.113,13.113 0,7.24241 -5.87059,13.113 -13.113,13.113 -7.24203,0 -13.113,-5.87059 -13.113,-13.113 0,-7.24203 5.87097,-13.113 13.113,-13.113 z m -62,0 c 7.24241,0 13.113,5.87097 13.113,13.113 0,7.24241 -5.87059,13.113 -13.113,13.113 -7.24203,0 -13.113,-5.87059 -13.113,-13.113 0,-7.24203 5.87097,-13.113 13.113,-13.113 z m -62,0 c 7.24241,0 13.113,5.87097 13.113,13.113 0,7.24241 -5.87059,13.113 -13.113,13.113 -7.24203,0 -13.113,-5.87059 -13.113,-13.113 0,-7.24203 5.87097,-13.113 13.113,-13.113 z m -62,0 c 7.24241,0 13.113,5.87097 13.113,13.113 0,7.24241 -5.87059,13.113 -13.113,13.113 -7.24203,0 -13.113,-5.87059 -13.113,-13.113 0,-7.24203 5.87097,-13.113 13.113,-13.113 z m -62,0 c 7.24241,0 13.113,5.87097 13.113,13.113 0,7.24241 -5.87059,13.113 -13.113,13.113 -7.24203,0 -13.113,-5.87059 -13.113,-13.113 0,-7.24203 5.87097,-13.113 13.113,-13.113 z m 496,-31 c 7.24241,0 13.113,5.87097 13.113,13.113 0,7.24241 -5.87059,13.113 -13.113,13.113 -7.24203,0 -13.113,-5.87059 -13.113,-13.113 0,-7.24203 5.87097,-13.113 13.113,-13.113 z m -59.613,0 c -2.66023,0 -7.63766,0 -10.6361,0 -1.47913,0 -2.4769,0 -2.4769,0 H 685.689 683.86 682 v 26.226 h 1.86 1.829 1.085 c 0,0 1.00539,0 2.4769,0 3.18258,0 8.54608,0 10.6361,0 7.24166,0 13.113,-5.8714 13.113,-13.113 0,-7.24216 -5.87134,-13.113 -13.113,-13.113 z M 682,183.613 V 157.387 H 666.5 651 v 26.226 h 15.5 z m -32.86,-26.226 h -2.914 c 0,0 -1.80773,0 -4.123,0 -0.35408,0 -0.71988,0 -1.09306,0 -2.94258,0 -6.33442,0 -7.89694,0 -7.2447,0 -13.113,5.87276 -13.113,13.113 0,7.23943 5.8683,13.113 13.113,13.113 1.95176,0 5.14854,0 7.89694,0 0.37417,0 0.73978,0 1.09306,0 2.33653,0 4.123,0 4.123,0 h 2.914 1.86 v -26.226 z m -135.253,0 c -2.66023,0 -7.63766,0 -10.6361,0 -1.47913,0 -2.4769,0 -2.4769,0 H 499.689 497.86 496 v 26.226 h 1.86 1.829 1.085 c 0,0 1.00539,0 2.4769,0 3.18258,0 8.54608,0 10.6361,0 7.24166,0 13.113,-5.8714 13.113,-13.113 0,-7.24216 -5.87134,-13.113 -13.113,-13.113 z m -19.747,0 h -2.914 c 0,0 -1.80773,0 -4.123,0 -0.35408,0 -0.71988,0 -1.09306,0 -2.94258,0 -6.33442,0 -7.89694,0 -7.2447,0 -13.113,5.87276 -13.113,13.113 0,7.23943 5.8683,13.113 13.113,13.113 1.95176,0 5.14854,0 7.89694,0 0.37417,0 0.73978,0 1.09306,0 2.33653,0 4.123,0 4.123,0 h 2.914 1.86 v -26.226 z m -197.253,0 c -2.66023,0 -7.63766,0 -10.6361,0 -1.47913,0 -2.4769,0 -2.4769,0 H 282.689 280.86 279 v 26.226 h 1.86 1.829 1.085 c 0,0 1.00539,0 2.4769,0 3.18258,0 8.54608,0 10.6361,0 7.24166,0 13.113,-5.8714 13.113,-13.113 0,-7.24216 -5.87134,-13.113 -13.113,-13.113 z m -19.747,0 h -2.914 c 0,0 -1.80773,0 -4.123,0 -0.35408,0 -0.71988,0 -1.09306,0 -2.94258,0 -6.33442,0 -7.89694,0 -7.2447,0 -13.113,5.87276 -13.113,13.113 0,7.23943 5.8683,13.113 13.113,13.113 1.95176,0 5.14854,0 7.89694,0 0.37417,0 0.73978,0 1.09306,0 2.33653,0 4.123,0 4.123,0 h 2.914 1.86 v -26.226 z m 484.747,-31 c -2.66023,0 -7.63766,0 -10.6361,0 -1.47913,0 -2.4769,0 -2.4769,0 H 747.689 745.86 744 v 26.226 h 1.86 1.829 1.085 c 0,0 1.00539,0 2.4769,0 3.18258,0 8.54608,0 10.6361,0 7.24166,0 13.113,-5.8714 13.113,-13.113 0,-7.24216 -5.87134,-13.113 -13.113,-13.113 z m -19.747,0 h -2.914 c 0,0 -1.80773,0 -4.123,0 -0.35408,0 -0.71988,0 -1.09306,0 -2.94258,0 -6.33442,0 -7.89694,0 -7.2447,0 -13.113,5.87276 -13.113,13.113 0,7.23943 5.8683,13.113 13.113,13.113 1.95176,0 5.14854,0 7.89694,0 0.37417,0 0.73978,0 1.09306,0 2.33653,0 4.123,0 4.123,0 h 2.914 1.86 v -26.226 z m -75.64,0 c 7.24241,0 13.113,5.87097 13.113,13.113 0,7.24241 -5.87059,13.113 -13.113,13.113 -7.24203,0 -13.113,-5.87059 -13.113,-13.113 0,-7.24203 5.87097,-13.113 13.113,-13.113 z m -62,0 c 7.24241,0 13.113,5.87097 13.113,13.113 0,7.24241 -5.87059,13.113 -13.113,13.113 -7.24203,0 -13.113,-5.87059 -13.113,-13.113 0,-7.24203 5.87097,-13.113 13.113,-13.113 z m -62,0 c 7.24241,0 13.113,5.87097 13.113,13.113 0,7.24241 -5.87059,13.113 -13.113,13.113 -7.24203,0 -13.113,-5.87059 -13.113,-13.113 0,-7.24203 5.87097,-13.113 13.113,-13.113 z m -59.613,0 c -2.66023,0 -7.63766,0 -10.6361,0 -1.47913,0 -2.4769,0 -2.4769,0 H 468.689 466.86 465 v 26.226 h 1.86 1.829 1.085 c 0,0 1.00539,0 2.4769,0 3.18258,0 8.54608,0 10.6361,0 7.24166,0 13.113,-5.8714 13.113,-13.113 0,-7.24216 -5.87134,-13.113 -13.113,-13.113 z M 465,152.613 V 126.387 H 449.5 434 v 26.226 h 15.5 z m -32.86,-26.226 h -2.914 c 0,0 -1.80773,0 -4.123,0 -0.35408,0 -0.71988,0 -1.09306,0 -2.94258,0 -6.33442,0 -7.89694,0 -7.2447,0 -13.113,5.87276 -13.113,13.113 0,7.23943 5.8683,13.113 13.113,13.113 1.95176,0 5.14854,0 7.89694,0 0.37417,0 0.73978,0 1.09306,0 2.33653,0 4.123,0 4.123,0 h 2.914 1.86 v -26.226 z m -106.64,0 c 7.24241,0 13.113,5.87097 13.113,13.113 0,7.24241 -5.87059,13.113 -13.113,13.113 -7.24203,0 -13.113,-5.87059 -13.113,-13.113 0,-7.24203 5.87097,-13.113 13.113,-13.113 z m 436.387,-31 c -2.66023,0 -7.63766,0 -10.6361,0 -1.47913,0 -2.4769,0 -2.4769,0 H 747.689 745.86 744 v 26.226 h 1.86 1.829 1.085 c 0,0 1.00539,0 2.4769,0 3.18258,0 8.54608,0 10.6361,0 7.24166,0 13.113,-5.8714 13.113,-13.113 0,-7.24216 -5.87134,-13.113 -13.113,-13.113 z m -19.747,0 h -2.914 c 0,0 -1.80773,0 -4.123,0 -0.35408,0 -0.71988,0 -1.09306,0 -2.94258,0 -6.33442,0 -7.89694,0 -7.2447,0 -13.113,5.87276 -13.113,13.113 0,7.23943 5.8683,13.113 13.113,13.113 1.95176,0 5.14854,0 7.89694,0 0.37417,0 0.73978,0 1.09306,0 2.33653,0 4.123,0 4.123,0 H 742.14 744 V 95.387 Z m -137.64,0 c 7.24241,0 13.113,5.87097 13.113,13.113 0,7.24241 -5.87059,13.113 -13.113,13.113 -7.24203,0 -13.113,-5.87059 -13.113,-13.113 0,-7.24203 5.87097,-13.113 13.113,-13.113 z m -186,0 c 7.24241,0 13.113,5.87097 13.113,13.113 0,7.24241 -5.87059,13.113 -13.113,13.113 -7.24203,0 -13.113,-5.87059 -13.113,-13.113 0,-7.24203 5.87097,-13.113 13.113,-13.113 z m -62,0 c 7.24241,0 13.113,5.87097 13.113,13.113 0,7.24241 -5.87059,13.113 -13.113,13.113 -7.24203,0 -13.113,-5.87059 -13.113,-13.113 0,-7.24203 5.87097,-13.113 13.113,-13.113 z m 343.387,-31 c -2.66023,0 -7.63766,0 -10.6361,0 -1.47913,0 -2.4769,0 -2.4769,0 H 685.689 683.86 682 v 26.226 h 1.86 1.829 1.085 c 0,0 1.00539,0 2.4769,0 3.18258,0 8.54608,0 10.6361,0 7.24166,0 13.113,-5.8714 13.113,-13.113 0,-7.242158 -5.87134,-13.113 -13.113,-13.113 z m -19.747,0 h -2.914 c 0,0 -1.80773,0 -4.123,0 -0.35408,0 -0.71988,0 -1.09306,0 -2.94258,0 -6.33442,0 -7.89694,0 -7.2447,0 -13.113,5.872764 -13.113,13.113 0,7.23943 5.8683,13.113 13.113,13.113 1.95176,0 5.14854,0 7.89694,0 0.37417,0 0.73978,0 1.09306,0 2.33653,0 4.123,0 4.123,0 H 680.14 682 V 64.387 Z m -106.64,0 c 7.24241,0 13.113,5.870966 13.113,13.113 0,7.242406 -5.87059,13.113 -13.113,13.113 -7.24203,0 -13.113,-5.870594 -13.113,-13.113 0,-7.242034 5.87097,-13.113 13.113,-13.113 z m -59.613,0 c -2.66023,0 -7.63766,0 -10.6361,0 -1.47913,0 -2.4769,0 -2.4769,0 H 499.689 497.86 496 v 26.226 h 1.86 1.829 1.085 c 0,0 1.00539,0 2.4769,0 3.18258,0 8.54608,0 10.6361,0 7.24166,0 13.113,-5.8714 13.113,-13.113 0,-7.242158 -5.87134,-13.113 -13.113,-13.113 z M 496,90.613 V 64.387 H 480.5 465 v 26.226 h 15.5 z M 463.14,64.387 h -2.914 c 0,0 -1.80773,0 -4.123,0 -0.35408,0 -0.71988,0 -1.09306,0 -2.94258,0 -6.33442,0 -7.89694,0 -7.2447,0 -13.113,5.872764 -13.113,13.113 0,7.23943 5.8683,13.113 13.113,13.113 1.95176,0 5.14854,0 7.89694,0 0.37417,0 0.73978,0 1.09306,0 2.33653,0 4.123,0 4.123,0 H 463.14 465 V 64.387 Z m -135.253,0 c -2.66023,0 -7.63766,0 -10.6361,0 -1.47913,0 -2.4769,0 -2.4769,0 H 313.689 311.86 310 v 26.226 h 1.86 1.829 1.085 c 0,0 1.00539,0 2.4769,0 3.18258,0 8.54608,0 10.6361,0 7.24166,0 13.113,-5.8714 13.113,-13.113 0,-7.242158 -5.87134,-13.113 -13.113,-13.113 z m -19.747,0 h -2.914 c 0,0 -1.80773,0 -4.123,0 -0.35408,0 -0.71988,0 -1.09306,0 -2.94258,0 -6.33442,0 -7.89694,0 -7.2447,0 -13.113,5.872764 -13.113,13.113 0,7.23943 5.8683,13.113 13.113,13.113 1.95176,0 5.14854,0 7.89694,0 0.37417,0 0.73978,0 1.09306,0 2.33653,0 4.123,0 4.123,0 H 308.14 310 V 64.387 Z m 329.747,-31 c -2.66023,0 -7.63766,0 -10.6361,0 -1.47913,0 -2.4769,0 -2.4769,0 H 623.689 621.86 620 v 26.226 h 1.86 1.829 1.085 c 0,0 1.00539,0 2.4769,0 3.18258,0 8.54608,0 10.6361,0 7.24166,0 13.113,-5.8714 13.113,-13.113 0,-7.242158 -5.87134,-13.113 -13.113,-13.113 z m -19.747,0 h -2.914 c 0,0 -1.80773,0 -4.123,0 -0.35408,0 -0.71988,0 -1.09306,0 -2.94258,0 -6.33442,0 -7.89694,0 -7.2447,0 -13.113,5.872764 -13.113,13.113 0,7.23943 5.8683,13.113 13.113,13.113 1.95176,0 5.14854,0 7.89694,0 0.37417,0 0.73978,0 1.09306,0 2.33653,0 4.123,0 4.123,0 H 618.14 620 V 33.387 Z m -137.64,0 c 7.24241,0 13.113,5.870966 13.113,13.113 0,7.242406 -5.87059,13.113 -13.113,13.113 -7.24203,0 -13.113,-5.870594 -13.113,-13.113 0,-7.242034 5.87097,-13.113 13.113,-13.113 z m -59.613,0 c -2.66023,0 -7.63766,0 -10.6361,0 -1.47913,0 -2.4769,0 -2.4769,0 H 406.689 404.86 403 v 26.226 h 1.86 1.829 1.085 c 0,0 1.00539,0 2.4769,0 3.18258,0 8.54608,0 10.6361,0 7.24166,0 13.113,-5.8714 13.113,-13.113 0,-7.242158 -5.87134,-13.113 -13.113,-13.113 z m -19.747,0 h -2.914 c 0,0 -1.80773,0 -4.123,0 -0.35408,0 -0.71988,0 -1.09306,0 -2.94258,0 -6.33442,0 -7.89694,0 -7.2447,0 -13.113,5.872764 -13.113,13.113 0,7.23943 5.8683,13.113 13.113,13.113 1.95176,0 5.14854,0 7.89694,0 0.37417,0 0.73978,0 1.09306,0 2.33653,0 4.123,0 4.123,0 H 401.14 403 V 33.387 Z m -73.253,0 c -2.66023,0 -7.63766,0 -10.6361,0 -1.47913,0 -2.4769,0 -2.4769,0 H 313.689 311.86 310 v 26.226 h 1.86 1.829 1.085 c 0,0 1.00539,0 2.4769,0 3.18258,0 8.54608,0 10.6361,0 7.24166,0 13.113,-5.8714 13.113,-13.113 0,-7.242158 -5.87134,-13.113 -13.113,-13.113 z M 310,59.613 V 33.387 H 294.5 279 v 26.226 h 15.5 z M 277.14,33.387 h -2.914 c 0,0 -1.80773,0 -4.123,0 -0.35408,0 -0.71988,0 -1.09306,0 -2.94258,0 -6.33442,0 -7.89694,0 -7.2447,0 -13.113,5.872764 -13.113,13.113 0,7.23943 5.8683,13.113 13.113,13.113 1.95176,0 5.14854,0 7.89694,0 0.37417,0 0.73978,0 1.09306,0 2.33653,0 4.123,0 4.123,0 H 277.14 279 V 33.387 Z m 484.747,-31 c -2.66023,0 -7.63766,0 -10.6361,0 -1.47913,0 -2.4769,0 -2.4769,0 H 747.689 745.86 744 v 26.226 h 1.86 1.829 1.085 c 0,0 1.00539,0 2.4769,0 3.18258,0 8.54608,0 10.6361,0 C 769.12866,28.613 775,22.7416 775,15.5 775,8.257842 769.12866,2.387 761.887,2.387 Z M 744,28.613 V 2.387 H 728.5 713 v 26.226 h 15.5 z M 711.14,2.387 h -2.914 c 0,0 -1.80773,0 -4.123,0 -0.35408,0 -0.71988,0 -1.09306,0 -2.94258,0 -6.33442,0 -7.89694,0 C 687.8683,2.387 682,8.259764 682,15.5 c 0,7.23943 5.8683,13.113 13.113,13.113 1.95176,0 5.14854,0 7.89694,0 0.37417,0 0.73978,0 1.09306,0 2.33653,0 4.123,0 4.123,0 H 711.14 713 V 2.387 Z m -73.253,0 c -2.66023,0 -7.63766,0 -10.6361,0 -1.47913,0 -2.4769,0 -2.4769,0 H 623.689 621.86 620 v 26.226 h 1.86 1.829 1.085 c 0,0 1.00539,0 2.4769,0 3.18258,0 8.54608,0 10.6361,0 C 645.12866,28.613 651,22.7416 651,15.5 651,8.257842 645.12866,2.387 637.887,2.387 Z m -19.747,0 h -2.914 c 0,0 -1.80773,0 -4.123,0 -0.35408,0 -0.71988,0 -1.09306,0 -2.94258,0 -6.33442,0 -7.89694,0 C 594.8683,2.387 589,8.259764 589,15.5 c 0,7.23943 5.8683,13.113 13.113,13.113 1.95176,0 5.14854,0 7.89694,0 0.37417,0 0.73978,0 1.09306,0 2.33653,0 4.123,0 4.123,0 H 618.14 620 V 2.387 Z m -106.64,0 c 7.24241,0 13.113,5.870966 13.113,13.113 0,7.242406 -5.87059,13.113 -13.113,13.113 -7.24203,0 -13.113,-5.870594 -13.113,-13.113 0,-7.242034 5.87097,-13.113 13.113,-13.113 z m -62,0 c 7.24241,0 13.113,5.870966 13.113,13.113 0,7.242406 -5.87059,13.113 -13.113,13.113 -7.24203,0 -13.113,-5.870594 -13.113,-13.113 0,-7.242034 5.87097,-13.113 13.113,-13.113 z m -59.613,0 c -2.66023,0 -7.63766,0 -10.6361,0 -1.47913,0 -2.4769,0 -2.4769,0 H 375.689 373.86 372 v 26.226 h 1.86 1.829 1.085 c 0,0 1.00539,0 2.4769,0 3.18258,0 8.54608,0 10.6361,0 C 397.12866,28.613 403,22.7416 403,15.5 403,8.257842 397.12866,2.387 389.887,2.387 Z m -19.747,0 h -2.914 c 0,0 -1.80773,0 -4.123,0 -0.35408,0 -0.71988,0 -1.09306,0 -2.94258,0 -6.33442,0 -7.89694,0 C 346.8683,2.387 341,8.259764 341,15.5 c 0,7.23943 5.8683,13.113 13.113,13.113 1.95176,0 5.14854,0 7.89694,0 0.37417,0 0.73978,0 1.09306,0 2.33653,0 4.123,0 4.123,0 H 370.14 372 V 2.387 Z" /><g
     transform="matrix(8.525,0,0,8.525,341,341)"
     width="341"
     height="341"
     id="g10563"><svg
   height="40"
   width="40"
   version="1.1"
   id="svg667"
   sodipodi:docname="wifi_inside.svg"
   inkscape:version="1.2.1 (9c6d41e410, 2022-07-14)">
  <defs
   id="defs671" />
  <sodipodi:namedview
   id="namedview669"
   pagecolor="#ffffff"
   bordercolor="#000000"
   borderopacity="0.25"
   inkscape:showpageshadow="2"
   inkscape:pageopacity="0.0"
   inkscape:pagecheckerboard="true"
   inkscape:deskcolor="#d1d1d1"
   showgrid="false"
   inkscape:zoom="0.66015626"
   inkscape:cx="401.42011"
   inkscape:cy="615.00591"
   inkscape:window-width="1920"
   inkscape:window-height="1011"
   inkscape:window-x="0"
   inkscape:window-y="32"
   inkscape:window-maximized="1"
   inkscape:current-layer="Layer_1" />
  <circle
   style="fill:#000000;stroke-width:10"
   id="path4302"
   cx="20"
   cy="20"
   r="20" />
  <path
   d="m 10.919288,22.635352 q -0.537383,-0.537383 -0.554302,-1.326136 -0.01611,-0.788752 0.588141,-1.259264 2.014179,-1.644376 4.245889,-2.500805 2.232516,-0.855624 4.784079,-0.855624 2.551562,0 4.784078,0.838705 2.23171,0.83951 4.245889,2.484691 0.604254,0.503545 0.621173,1.275378 0.01692,0.771834 -0.587334,1.343055 -0.537383,0.536577 -1.326136,0.570415 -0.788752,0.03384 -1.426844,-0.436674 -1.543667,-1.174669 -3.105059,-1.695133 -1.560586,-0.520464 -3.205767,-0.520464 -1.645182,0 -3.205768,0.520464 -1.561392,0.520464 -3.105059,1.695133 -0.638091,0.470513 -1.426844,0.436674 -0.788753,-0.03384 -1.326136,-0.570415 z m -5.6735399,-5.67354 q -0.5365773,-0.570415 -0.5534964,-1.376087 -0.016919,-0.805672 0.5534964,-1.309217 3.0212684,-2.618432 6.7813389,-4.129067 3.76007,-1.5106342 7.956008,-1.5106342 4.195938,0 7.956007,1.5106342 3.76007,1.510635 6.781339,4.129067 0.604253,0.503545 0.587334,1.292298 -0.01692,0.788752 -0.587334,1.393006 -0.537383,0.537383 -1.326136,0.570416 -0.788753,0.03384 -1.393006,-0.469707 -2.618433,-2.148726 -5.606669,-3.357234 -2.987431,-1.208507 -6.411535,-1.208507 -3.424105,0 -6.411535,1.208507 -2.988237,1.208508 -5.5728315,3.357234 -0.638092,0.503545 -1.426845,0.469707 -0.788752,-0.03303 -1.3261354,-0.570416 z M 19.983095,31.363193 q -1.275379,0 -2.215597,-0.940219 -0.940219,-0.939413 -0.940219,-2.248629 0,-1.276184 0.940219,-2.198678 0.940218,-0.9233 2.215597,-0.9233 1.275378,0 2.215597,0.9233 0.940218,0.922494 0.940218,2.198678 0,1.309216 -0.940218,2.248629 -0.940219,0.940219 -2.215597,0.940219 z"
   id="path665"
   style="fill:#ffffff;stroke-width:0.805672" />
</svg>
</g></g></svg>
