<?xml version="1.0" encoding="UTF-8" standalone="no"?>
<svg
   version="1.1"
   id="Layer_1"
   x="0px"
   y="0px"
   width="1980"
   height="1980"
   viewBox="0 0 1980 1980"
   enable-background="new 0 0 2220 2220"
   xml:space="preserve"
   sodipodi:docname="wifi.svg"
   inkscape:version="1.1.1 (3bf5ae0d25, 2021-09-20)"
   xmlns:inkscape="http://www.inkscape.org/namespaces/inkscape"
   xmlns:sodipodi="http://sodipodi.sourceforge.net/DTD/sodipodi-0.dtd"
   xmlns="http://www.w3.org/2000/svg"
   xmlns:svg="http://www.w3.org/2000/svg"
   xmlns:rdf="http://www.w3.org/1999/02/22-rdf-syntax-ns#"
   xmlns:cc="http://creativecommons.org/ns#"
   xmlns:dc="http://purl.org/dc/elements/1.1/"><defs
   id="defs5770" /><sodipodi:namedview
   id="namedview5768"
   pagecolor="#ffffff"
   bordercolor="#666666"
   borderopacity="1.0"
   inkscape:pageshadow="2"
   inkscape:pageopacity="0.0"
   inkscape:pagecheckerboard="0"
   showgrid="false"
   fit-margin-top="0"
   fit-margin-left="0"
   fit-margin-right="0"
   fit-margin-bottom="0"
   inkscape:zoom="0.32"
   inkscape:cx="1148.4375"
   inkscape:cy="1067.1875"
   inkscape:window-width="1920"
   inkscape:window-height="1017"
   inkscape:window-x="-8"
   inkscape:window-y="-8"
   inkscape:window-maximized="1"
   inkscape:current-layer="g5765" />
<g
   id="g5765"><g
     transform="matrix(1.8,0,0,1.8,120,1680)"
     id="g5754"><g
       style="fill:#000000"
       id="g5752">
<g
   id="g5750">
	<g
   id="g5748">
		<g
   id="g5744">
			<path
   id="path5742"
   d="M 27.351,100 C 12.261,100 -0.014,87.968 -0.014,73.192 V 26.794 c 0,-4.616 1.2,-8.96 3.301,-12.761 C 5.316,10.375 8.188,7.231 11.647,4.859 16.09,1.801 21.506,0 27.336,0 h 45.327 c 15.076,0 27.351,12.018 27.351,26.793 v 46.398 c 0,14.775 -12.274,26.808 -27.351,26.808 H 50 27.351 Z m 866.66667,-866.66667 c -15.09,0 -27.365,-12.032 -27.365,-26.808 v -46.398 c 0,-4.616 1.2,-8.96 3.301,-12.761 2.029,-3.658 4.901,-6.802 8.36,-9.174 4.443,-3.058 9.859,-4.859 15.689,-4.859 h 45.327 c 15.076,0 27.351,12.018 27.351,26.793 v 46.398 c 0,14.775 -12.274,26.808 -27.351,26.808 h -22.663 -22.649 z m 59.65333,-166.648 h -74.00867 v 0 c -36.06866,0 -66.626,23.83034 -76.39566,56.40134 -1.01034,3.36933 -1.799,6.832 -2.34734,10.37166 -0.60433,3.906 -0.91933,7.90534 -0.91933,11.977 v 75.76567 c 0,43.44433 35.74667,78.77333 79.66233,78.77333 l 37.00434,0.007 37.00433,-0.009 c 43.91334,0 79.6623,-35.329 79.6623,-78.77333 v -75.76367 c 0,-43.42333 -35.74663,-78.75 -79.6623,-78.75 z m 44.66234,154.51567 c 0,24.136 -20.034,43.77333 -44.67167,43.77333 l -36.995,0.007 -36.995,-0.009 C 855.034,-735.02767 835,-754.66501 835,-778.79867 v -75.766 c 0,-7.539 1.95533,-14.637 5.397,-20.839 3.31333,-5.96633 8.001,-11.09733 13.64533,-14.98233 7.25667,-4.99567 16.093,-7.92867 25.61767,-7.92867 h 74.011 c 24.62834,0 44.66234,19.62567 44.66234,43.75 z M 216.66667,-300 c 9.20513,0 16.66667,7.462 16.66667,16.66666 0,9.20514 -7.46154,16.66667 -16.66667,16.66667 C 207.462,-266.66667 200,-274.1282 200,-283.33334 200,-292.538 207.462,-300 216.66667,-300 Z m 16.66667,-16.66667 c 0,-3.88473 0,-16.66667 0,-16.66667 0,0 11.34673,0 16.66666,0 4.15494,0 16.66667,0 16.66667,0 0,0 0,11.6174 0,16.66667 0,9.20427 -7.4624,16.66667 -16.66667,16.66667 -9.20473,0 -16.66666,-7.4624 -16.66666,-16.66667 z m -50,16.66667 c -3.88474,0 -16.66667,0 -16.66667,0 0,0 0,-11.34714 0,-16.66667 0,-4.15493 0,-16.66667 0,-16.66667 0,0 11.6174,0 16.66667,0 9.20426,0 16.66666,7.46194 16.66666,16.66667 C 200,-307.4624 192.5376,-300 183.33334,-300 Z M 150,-333.33334 c 3.88467,0 16.66667,0 16.66667,0 0,0 0,11.34547 0,16.66667 0,4.15367 0,16.66667 0,16.66667 0,0 -11.6146,0 -16.66667,0 -9.20793,0 -16.66666,-7.46527 -16.66666,-16.66667 0,-9.20247 7.45873,-16.66667 16.66666,-16.66667 z M 49.999997,-300 c -3.88473,0 -16.66666,0 -16.66666,0 0,0 0,-11.34714 0,-16.66667 0,-4.15493 0,-16.66667 0,-16.66667 0,0 11.6174,0 16.66666,0 9.20427,0 16.66667,7.46194 16.66667,16.66667 0,9.20427 -7.4624,16.66667 -16.66667,16.66667 z m -16.66666,0 v -33.33334 H -3.3333333e-6 C 6.6666667e-5,-314.92387 14.923537,-300 33.333337,-300 Z m 933.333333,-50 c 0,-3.88474 0,-16.66667 0,-16.66667 0,0 11.34673,0 16.66667,0 4.15493,0 16.66666,0 16.66666,0 0,0 0,11.6174 0,16.66667 0,9.20426 -7.4624,16.66666 -16.66666,16.66666 -9.20474,0 -16.66667,-7.4624 -16.66667,-16.66666 z m -683.33333,16.66666 c -3.88474,0 -16.66667,0 -16.66667,0 0,0 0,-11.34713 0,-16.66666 0,-4.15494 0,-16.66667 0,-16.66667 0,0 11.6174,0 16.66667,0 9.20426,0 16.66666,7.46193 16.66666,16.66667 0,9.20426 -7.4624,16.66666 -16.66666,16.66666 z m -50,0 h 33.33333 v -33.33333 c -18.40927,7e-5 -33.33333,14.9236 -33.33333,33.33333 z M 83.333337,-366.66667 c 9.20513,0 16.66666,7.462 16.66666,16.66667 0,9.20513 -7.46153,16.66666 -16.66666,16.66666 -9.20467,0 -16.66667,-7.46153 -16.66667,-16.66666 0,-9.20467 7.462,-16.66667 16.66667,-16.66667 z m -83.3333403333333,0 H 33.333337 v 33.33333 H -3.3333333e-6 Z M 1033.3333,-400 H 1000 v 33.33333 c 18.4095,0 33.3333,-14.92387 33.3333,-33.33333 z m -66.66663,0 H 1000 v 33.33333 H 966.66667 Z M 200,-383.33334 c 0,-3.88473 0,-16.66666 0,-16.66666 0,0 11.34674,0 16.66667,0 4.15493,0 16.66667,0 16.66667,0 0,0 0,11.6174 0,16.66666 0,9.20427 -7.4624,16.66667 -16.66667,16.66667 -9.20473,0 -16.66667,-7.4624 -16.66667,-16.66667 z m -50,16.66667 c -3.88473,0 -16.66666,0 -16.66666,0 0,0 0,-11.34713 0,-16.66667 0,-4.15493 0,-16.66666 0,-16.66666 0,0 11.6174,0 16.66666,0 9.20427,0 16.66667,7.46193 16.66667,16.66666 0,9.20427 -7.4624,16.66667 -16.66667,16.66667 z M 116.66667,-400 c 3.88467,0 16.66667,0 16.66667,0 0,0 0,11.34546 0,16.66666 0,4.15367 0,16.66667 0,16.66667 0,0 -11.6146,0 -16.66667,0 -9.20793,0 -16.666673,-7.46527 -16.666673,-16.66667 0,-9.20246 7.458743,-16.66666 16.666673,-16.66666 z M -3.3333332e-6,-400 H 33.333337 v 33.33333 H -3.3333332e-6 Z M 1000,-433.33334 V -400 h 33.3333 c 0,-18.4098 -14.9238,-33.33334 -33.3333,-33.33334 z m -33.33333,0 H 1000 V -400 H 966.66667 Z M 250,-400 c -3.88473,0 -16.66666,0 -16.66666,0 0,0 0,-11.34714 0,-16.66667 0,-4.15493 0,-16.66667 0,-16.66667 0,0 11.6174,0 16.66666,0 9.20427,0 16.66667,7.46194 16.66667,16.66667 0,9.20427 -7.4624,16.66667 -16.66667,16.66667 z m -50,-33.33334 h 33.33334 V -400 H 200 Z M 200,-400 v -33.33334 H 166.66667 C 166.66674,-414.92387 181.5902,-400 200,-400 Z m -150.000003,0 c -3.88473,0 -16.66666,0 -16.66666,0 0,0 0,-11.34714 0,-16.66667 0,-4.15493 0,-16.66667 0,-16.66667 0,0 11.6174,0 16.66666,0 9.20427,0 16.66667,7.46194 16.66667,16.66667 0,9.20427 -7.4624,16.66667 -16.66667,16.66667 z M -3.3333331e-6,-433.33334 H 33.333337 V -400 H -3.3333331e-6 Z M 966.66667,-466.66667 H 1000 v 33.33333 h -33.33333 z m 0,33.33333 v -33.33333 h -33.33334 c 7e-5,18.40947 14.92354,33.33333 33.33334,33.33333 z M 900,-466.66667 h -33.33333 v 33.33333 c 18.40946,0 33.33333,-14.92386 33.33333,-33.33333 z m -50,0 c 3.88467,0 16.66667,0 16.66667,0 0,0 0,11.34547 0,16.66667 0,4.15366 0,16.66666 0,16.66666 0,0 -11.6146,0 -16.66667,0 -9.20793,0 -16.66667,-7.46526 -16.66667,-16.66666 0,-9.20247 7.45874,-16.66667 16.66667,-16.66667 z m -566.66666,0 c 9.20513,0 16.66666,7.462 16.66666,16.66667 0,9.20513 -7.46153,16.66666 -16.66666,16.66666 -9.20467,0 -16.66667,-7.46153 -16.66667,-16.66666 0,-9.20467 7.462,-16.66667 16.66667,-16.66667 z m -83.33334,0 h 33.33334 v 33.33333 H 200 Z m -33.33333,0 H 200 v 33.33333 h -33.33333 z m -33.33333,0 h 33.33333 v 33.33333 h -33.33333 z m -16.66667,0 c 3.88467,0 16.66667,0 16.66667,0 0,0 0,11.34547 0,16.66667 0,4.15366 0,16.66666 0,16.66666 0,0 -11.6146,0 -16.66667,0 -9.20793,0 -16.666673,-7.46526 -16.666673,-16.66666 0,-9.20247 7.458743,-16.66667 16.666673,-16.66667 z m -116.6666733333332,0 H 33.333337 v 33.33333 H -3.3333332e-6 Z m -33.3333296666668,0 H -3.3333332e-6 v 33.33333 H -33.333333 Z m 0,33.33333 v -33.33333 h -33.33333 c 6e-5,18.40947 14.92353,33.33333 33.33333,33.33333 z M 966.66667,-500 v 33.33333 H 1000 C 1000,-485.07647 985.07614,-500 966.66667,-500 Z m -33.33334,0 h 33.33334 v 33.33333 H 933.33333 Z M 900,-483.33334 c 0,3.8844 0,16.66667 0,16.66667 0,0 -11.34627,0 -16.66667,-8e-4 -4.15493,8e-4 -16.66666,0 -16.66666,0 0,0 0,-11.61607 0,-16.66627 4e-4,-9.2042 7.46193,-16.66626 16.66626,-16.66626 9.20467,0 16.66707,7.462 16.66707,16.66666 z m -100,0 c 0,-3.88473 0,-16.66666 0,-16.66666 0,0 11.34673,0 16.66667,0 4.15493,0 16.66666,0 16.66666,0 0,0 0,11.6174 0,16.66666 0,9.20427 -7.4624,16.66667 -16.66666,16.66667 -9.20474,0 -16.66667,-7.4624 -16.66667,-16.66667 z M 750,-500 c 9.20514,0 16.66667,7.462 16.66667,16.66666 0,9.20514 -7.46153,16.66667 -16.66667,16.66667 -9.20466,0 -16.66666,-7.46153 -16.66666,-16.66667 C 733.33334,-492.538 740.79534,-500 750,-500 Z m -550,0 h 33.33334 v 33.33333 H 200 Z m -166.666663,16.66666 c 0,3.8844 0,16.66667 0,16.66667 0,0 -11.34627,0 -16.66667,-8e-4 -4.15493,8e-4 -16.6666703333332,0 -16.6666703333332,0 0,0 0,-11.61607 0,-16.66627 C 3.9666667e-4,-492.53794 7.4619367,-500 16.666267,-500 c 9.20467,0 16.66707,7.462 16.66707,16.66666 z m -66.66667,0 c 0,3.8844 0,16.66667 0,16.66667 0,0 -11.34627,0 -16.66667,-8e-4 -4.15493,8e-4 -16.66666,0 -16.66666,0 0,0 0,-11.61607 0,-16.66627 4e-4,-9.2042 7.46193,-16.66626 16.66626,-16.66626 9.20467,0 16.66707,7.462 16.66707,16.66666 z m 966.666663,-50 V -500 h 33.33334 c 0,-18.4098 -14.92387,-33.33334 -33.33334,-33.33334 z m 0,33.33334 v -33.33334 H 900 c 7e-5,18.40947 14.92353,33.33334 33.33333,33.33334 z M 800,-533.33334 h 33.33333 V -500 H 800 Z m -16.66667,0 c 3.88467,0 16.66667,0 16.66667,0 0,0 0,11.34547 0,16.66667 0,4.15367 0,16.66667 0,16.66667 0,0 -11.6146,0 -16.66667,0 -9.20793,0 -16.66666,-7.46527 -16.66666,-16.66667 0,-9.20247 7.45873,-16.66667 16.66666,-16.66667 z m -83.33333,0 H 666.66667 V -500 C 685.07614,-500 700,-514.92387 700,-533.33334 Z m -366.66666,0 h 33.33333 V -500 h -33.33333 z m -33.33334,0 h 33.33334 V -500 H 300 Z M 300,-500 v -33.33334 H 266.66667 C 266.66674,-514.92387 281.5902,-500 300,-500 Z m -100,-33.33334 h 33.33334 V -500 H 200 Z M 150,-500 c -3.88473,0 -16.66666,0 -16.66666,0 0,0 0,-11.34714 0,-16.66667 0,-4.15493 0,-16.66667 0,-16.66667 0,0 11.6174,0 16.66666,0 9.20427,0 16.66667,7.46194 16.66667,16.66667 C 166.66667,-507.4624 159.20427,-500 150,-500 Z M 99.999997,-533.33334 H 133.33334 V -500 H 99.999997 Z m -33.33333,0 h 33.33333 V -500 h -33.33333 z m -16.66667,0 c 3.88467,0 16.66667,0 16.66667,0 0,0 0,11.34547 0,16.66667 0,4.15367 0,16.66667 0,16.66667 0,0 -11.6146,0 -16.66667,0 -9.20793,0 -16.66666,-7.46527 -16.66666,-16.66667 0,-9.20247 7.45873,-16.66667 16.66666,-16.66667 z M 966.66667,-550 c 0,-3.88474 0,-16.66667 0,-16.66667 0,0 11.34673,0 16.66667,0 4.15493,0 16.66666,0 16.66666,0 0,0 0,11.6174 0,16.66667 0,9.20426 -7.4624,16.66666 -16.66666,16.66666 -9.20474,0 -16.66667,-7.4624 -16.66667,-16.66666 z m -33.33334,0 c 0,3.8844 0,16.66666 0,16.66666 0,0 -11.34626,0 -16.66666,-8e-4 -4.15494,8e-4 -16.66667,0 -16.66667,0 0,0 0,-11.61606 0,-16.66626 4e-4,-9.2042 7.46193,-16.66627 16.66627,-16.66627 9.20466,0 16.66706,7.462 16.66706,16.66667 z M 800,-566.66667 h 33.33333 v 33.33333 H 800 Z m -133.33333,0 v 33.33333 H 700 c 0,-18.4098 -14.92386,-33.33333 -33.33333,-33.33333 z m -33.33333,0 h 33.33333 v 33.33333 h -33.33333 z m -33.33334,0 h 33.33334 v 33.33333 H 600 Z m -233.33333,0 H 400 v 33.33333 h -33.33333 z m -33.33333,0 h 33.33333 v 33.33333 H 333.33334 Z M 300,-550 c 0,3.8844 0,16.66666 0,16.66666 0,0 -11.34626,0 -16.66666,-8e-4 -4.15494,8e-4 -16.66667,0 -16.66667,0 0,0 0,-11.61606 0,-16.66626 4e-4,-9.2042 7.46193,-16.66627 16.66627,-16.66627 9.20466,0 16.66706,7.462 16.66706,16.66667 z m -100,-16.66667 h 33.33334 v 33.33333 H 200 Z m -16.66666,0 c 3.88466,0 16.66666,0 16.66666,0 0,0 0,11.34547 0,16.66667 0,4.15366 0,16.66666 0,16.66666 0,0 -11.6146,0 -16.66666,0 -9.20794,0 -16.66667,-7.46526 -16.66667,-16.66666 0,-9.20247 7.45873,-16.66667 16.66667,-16.66667 z m -50,16.66667 c 0,3.8844 0,16.66666 0,16.66666 0,0 -11.34627,0 -16.66667,-8e-4 -4.15493,8e-4 -16.666673,0 -16.666673,0 0,0 0,-11.61606 0,-16.66626 4.03e-4,-9.2042 7.461943,-16.66627 16.666273,-16.66627 9.20467,0 16.66707,7.462 16.66707,16.66667 z m -116.666673,16.66666 c -3.88473,0 -16.6666703333332,0 -16.6666703333332,0 0,0 0,-11.34713 0,-16.66666 0,-4.15494 0,-16.66667 0,-16.66667 0,0 11.6174003333332,0 16.6666703333332,0 9.20427,0 16.66667,7.46193 16.66667,16.66667 0,9.20426 -7.4624,16.66666 -16.66667,16.66666 z m -66.66667,-33.33333 c 3.88467,0 16.66667,0 16.66667,0 0,0 0,11.34547 0,16.66667 0,4.15366 0,16.66666 0,16.66666 0,0 -11.6146,0 -16.66667,0 -9.20793,0 -16.66666,-7.46526 -16.66666,-16.66666 0,-9.20247 7.45873,-16.66667 16.66666,-16.66667 z M 1033.3333,-600 H 1000 v 33.33333 c 18.4095,0 33.3333,-14.92387 33.3333,-33.33333 z m -66.66663,0 H 1000 v 33.33333 h -33.33333 z m -83.33334,0 c 9.20514,0 16.66667,7.462 16.66667,16.66666 0,9.20514 -7.46153,16.66667 -16.66667,16.66667 -9.20466,0 -16.66666,-7.46153 -16.66666,-16.66667 0,-9.20466 7.462,-16.66666 16.66666,-16.66666 z m -50,16.66666 c 0,3.8844 0,16.66667 0,16.66667 0,0 -11.34626,0 -16.66666,-8e-4 -4.15494,8e-4 -16.66667,0 -16.66667,0 0,0 0,-11.61607 0,-16.66627 4e-4,-9.2042 7.46193,-16.66626 16.66627,-16.66626 9.20466,0 16.66706,7.462 16.66706,16.66666 z M 750,-600 c 9.20514,0 16.66667,7.462 16.66667,16.66666 0,9.20514 -7.46153,16.66667 -16.66667,16.66667 -9.20466,0 -16.66666,-7.46153 -16.66666,-16.66667 C 733.33334,-592.538 740.79534,-600 750,-600 Z m -116.66666,0 v 33.33333 h 33.33333 C 666.66667,-585.07647 651.7428,-600 633.33334,-600 Z M 600,-600 h 33.33334 v 33.33333 H 600 Z m -50,0 c 9.20514,0 16.66667,7.462 16.66667,16.66666 0,9.20514 -7.46153,16.66667 -16.66667,16.66667 -9.20466,0 -16.66666,-7.46153 -16.66666,-16.66667 C 533.33334,-592.538 540.79534,-600 550,-600 Z m -216.66666,33.33333 h 33.33333 V -600 c -18.40927,6e-5 -33.33333,14.9236 -33.33333,33.33333 z M 266.66667,-600 h -33.33333 v 33.33333 c 18.40946,0 33.33333,-14.92387 33.33333,-33.33333 z M 200,-600 h 33.33334 v 33.33333 H 200 Z m -50,0 c 9.20514,0 16.66667,7.462 16.66667,16.66666 0,9.20514 -7.46153,16.66667 -16.66667,16.66667 -9.20466,0 -16.66666,-7.46153 -16.66666,-16.66667 C 133.33334,-592.538 140.79534,-600 150,-600 Z m -83.333333,16.66666 c 0,-3.88473 0,-16.66666 0,-16.66666 0,0 11.34673,0 16.66667,0 4.15493,0 16.66666,0 16.66666,0 0,0 0,11.6174 0,16.66666 0,9.20427 -7.4624,16.66667 -16.66666,16.66667 -9.20474,0 -16.66667,-7.4624 -16.66667,-16.66667 z m -66.6666703333332,0 c 0,3.8844 0,16.66667 0,16.66667 0,0 -11.3462596666668,0 -16.6666596666668,-8e-4 -4.15494,8e-4 -16.66667,0 -16.66667,0 0,0 0,-11.61607 0,-16.66627 4e-4,-9.2042 7.46193,-16.66626 16.66627,-16.66626 9.2046597,0 16.6670596666669,7.462 16.6670596666668,16.66666 z M 1000,-633.33334 h 33.3333 V -600 H 1000 Z m -33.33333,0 H 1000 V -600 h -33.33333 z m -33.33334,0 h 33.33334 V -600 h -33.33334 z m 0,33.33334 v -33.33334 H 900 c 7e-5,18.40947 14.92353,33.33334 33.33333,33.33334 z m -150,-33.33334 c 9.20514,0 16.66667,7.462 16.66667,16.66667 0,9.20513 -7.46153,16.66667 -16.66667,16.66667 -9.20466,0 -16.66666,-7.46154 -16.66666,-16.66667 0,-9.20467 7.462,-16.66667 16.66666,-16.66667 z m -183.33333,0 V -600 h 33.33334 c 0,-18.4098 -14.92387,-33.33334 -33.33334,-33.33334 z M 600,-600 v -33.33334 H 566.66667 C 566.66674,-614.92387 581.5902,-600 600,-600 Z m -366.66666,-33.33334 h 33.33333 V -600 H 233.33334 Z M 200,-600 h 33.33334 v -33.33334 C 214.92407,-633.33327 200,-618.40974 200,-600 Z m -83.33333,0 c -3.88473,0 -16.666673,0 -16.666673,0 0,0 0,-11.34714 0,-16.66667 0,-4.15493 0,-16.66667 0,-16.66667 0,0 11.617403,0 16.666673,0 9.20427,0 16.66667,7.46194 16.66667,16.66667 0,9.20427 -7.4624,16.66667 -16.66667,16.66667 z m -50.000003,0 h 33.33333 v -33.33334 c -18.40926,7e-5 -33.33333,14.9236 -33.33333,33.33334 z M 1000,-666.66667 v 33.33333 h 33.3333 c 0,-18.4098 -14.9238,-33.33333 -33.3333,-33.33333 z m -33.33333,33.33333 H 1000 v -33.33333 c -18.40926,7e-5 -33.33333,14.9236 -33.33333,33.33333 z M 900,-666.66667 v 33.33333 h 33.33333 c 0,-18.4098 -14.92386,-33.33333 -33.33333,-33.33333 z m -33.33333,0 H 900 v 33.33333 h -33.33333 z m -16.66667,0 c 3.88467,0 16.66667,0 16.66667,0 0,0 0,11.34547 0,16.66667 0,4.15366 0,16.66666 0,16.66666 0,0 -11.6146,0 -16.66667,0 -9.20793,0 -16.66667,-7.46526 -16.66667,-16.66666 0,-9.20247 7.45874,-16.66667 16.66667,-16.66667 z M 700,-650 c 0,-3.88474 0,-16.66667 0,-16.66667 0,0 11.34674,0 16.66667,0 4.15493,0 16.66667,0 16.66667,0 0,0 0,11.6174 0,16.66667 0,9.20426 -7.4624,16.66666 -16.66667,16.66666 C 707.46194,-633.33334 700,-640.79574 700,-650 Z M 566.66667,-666.66667 H 600 v 33.33333 h -33.33333 z m -333.33333,0 h 33.33333 v 33.33333 h -33.33333 z m -83.33334,0 c 9.20514,0 16.66667,7.462 16.66667,16.66667 0,9.20513 -7.46153,16.66666 -16.66667,16.66666 -9.20466,0 -16.66666,-7.46153 -16.66666,-16.66666 0,-9.20467 7.462,-16.66667 16.66666,-16.66667 z m -100.000003,0 c 9.20514,0 16.66667,7.462 16.66667,16.66667 0,9.20513 -7.46153,16.66666 -16.66667,16.66666 -9.20466,0 -16.66666,-7.46153 -16.66666,-16.66666 0,-9.20467 7.462,-16.66667 16.66666,-16.66667 z M 766.66667,-700 h -33.33333 v 33.33333 c 18.40946,0 33.33333,-14.92387 33.33333,-33.33333 z M 700,-700 h 33.33334 v 33.33333 H 700 Z m -33.33333,0 H 700 v 33.33333 H 666.66667 Z M 650,-700 c 3.88467,0 16.66667,0 16.66667,0 0,0 0,11.34546 0,16.66666 0,4.15367 0,16.66667 0,16.66667 0,0 -11.6146,0 -16.66667,0 -9.20793,0 -16.66666,-7.46527 -16.66666,-16.66667 C 633.33334,-692.5358 640.79207,-700 650,-700 Z m -50,16.66666 c 0,3.8844 0,16.66667 0,16.66667 0,0 -11.34626,0 -16.66666,-8e-4 -4.15494,8e-4 -16.66667,0 -16.66667,0 0,0 0,-11.61607 0,-16.66627 4e-4,-9.2042 7.46193,-16.66626 16.66627,-16.66626 9.20466,0 16.66706,7.462 16.66706,16.66666 z m -333.33333,0 c 0,3.8844 0,16.66667 0,16.66667 0,0 -11.34627,0 -16.66667,-8e-4 -4.15493,8e-4 -16.66666,0 -16.66666,0 0,0 0,-11.61607 0,-16.66627 4e-4,-9.2042 7.46193,-16.66626 16.66626,-16.66626 9.20467,0 16.66707,7.462 16.66707,16.66666 z m 500,-33.33333 c 0,3.8844 0,16.66667 0,16.66667 0,0 -11.34627,0 -16.66667,-8e-4 -4.15493,8e-4 -16.66666,0 -16.66666,0 0,0 0,-11.61607 0,-16.66627 4e-4,-9.2042 7.46193,-16.66627 16.66626,-16.66627 9.20467,0 16.66707,7.462 16.66707,16.66667 z m -66.66667,0 c 0,3.8844 0,16.66667 0,16.66667 0,0 -11.34626,0 -16.66666,-8e-4 -4.15494,8e-4 -16.66667,0 -16.66667,0 0,0 0,-11.61607 0,-16.66627 4e-4,-9.2042 7.46193,-16.66627 16.66627,-16.66627 9.20466,0 16.66706,7.462 16.66706,16.66667 z m -83.33333,-16.66667 c 9.20513,0 16.66667,7.462 16.66667,16.66667 0,9.20513 -7.46154,16.66667 -16.66667,16.66667 C 607.462,-700 600,-707.46154 600,-716.66667 c 0,-9.20467 7.462,-16.66667 16.66667,-16.66667 z m -66.66667,0 c 9.20514,0 16.66667,7.462 16.66667,16.66667 0,9.20513 -7.46153,16.66667 -16.66667,16.66667 -9.20466,0 -16.66666,-7.46154 -16.66666,-16.66667 0,-9.20467 7.462,-16.66667 16.66666,-16.66667 z m 50,250 c 0,-3.88473 0,-16.66666 0,-16.66666 0,0 11.34674,0 16.66667,0 4.15493,0 16.66667,0 16.66667,0 0,0 0,11.6174 0,16.66666 0,9.20427 -7.4624,16.66667 -16.66667,16.66667 -9.20473,0 -16.66667,-7.4624 -16.66667,-16.66667 z m 33.33334,-50 h 33.33333 V -500 h -33.33333 z m -33.33334,0 h 33.33334 V -500 H 600 Z M 600,-500 v -33.33334 H 566.66667 C 566.66674,-514.92387 581.5902,-500 600,-500 Z m -33.33333,-33.33334 H 600 v -33.33333 c -18.40926,7e-5 -33.33333,14.9236 -33.33333,33.33333 z M 27.350997,-766.66667 c -15.09,0 -27.36500033,-12.032 -27.36500033,-26.808 v -46.398 c 0,-4.616 1.20000003,-8.96 3.30100003,-12.761 2.029,-3.658 4.901,-6.802 8.3600003,-9.174 4.443,-3.058 9.859,-4.859 15.689,-4.859 h 45.327 c 15.076,0 27.351003,12.018 27.351003,26.793 v 46.398 c 0,14.775 -12.274003,26.808 -27.351003,26.808 h -22.663 -22.649 z m 59.65334,-166.648 h -74.00867 v 0 c -36.06867,0 -66.626,23.83034 -76.39567,56.40134 -1.01033,3.36933 -1.799,6.832 -2.34733,10.37166 -0.60433,3.906 -0.91933,7.90534 -0.91933,11.977 v 75.76567 c 0,43.44433 35.74666,78.77333 79.66233,78.77333 l 37.00433,0.007 37.00434,-0.009 c 43.913333,0 79.662333,-35.329 79.662333,-78.77333 v -75.76367 c 0,-43.42333 -35.74667,-78.75 -79.662333,-78.75 z M 131.66667,-778.799 c 0,24.136 -20.034,43.77333 -44.671673,43.77333 l -36.995,0.007 -36.995,-0.009 c -24.63766,0 -44.67166,-19.63734 -44.67166,-43.771 v -75.766 c 0,-7.539 1.95533,-14.637 5.397,-20.839 3.31333,-5.96633 8.001,-11.09733 13.64533,-14.98233 7.2566697,-4.99567 16.0929997,-7.92867 25.61767,-7.92867 h 74.011 c 24.628333,0 44.662333,19.62567 44.662333,43.75 z M 450,-566.66667 c -3.88473,0 -16.66667,0 -16.66667,0 0,0 0,-11.34713 0,-16.66667 0,-4.15493 0,-16.66666 0,-16.66666 0,0 11.6174,0 16.66667,0 9.20427,0 16.66667,7.46193 16.66667,16.66666 0,9.20427 -7.4624,16.66667 -16.66667,16.66667 z M 400,-600 h 33.33333 v 33.33333 H 400 Z m -33.33333,0 H 400 v 33.33333 h -33.33333 z m 166.66666,-33.33334 H 500 V -600 c 18.40947,0 33.33333,-14.92387 33.33333,-33.33334 z m -50,0 c 3.88467,0 16.66667,0 16.66667,0 0,0 0,11.34547 0,16.66667 0,4.15367 0,16.66667 0,16.66667 0,0 -11.6146,0 -16.66667,0 -9.20793,0 -16.66666,-7.46527 -16.66666,-16.66667 0,-9.20247 7.45873,-16.66667 16.66666,-16.66667 z m -116.66666,0 H 400 V -600 H 366.66667 Z M 533.33333,-650 c 0,3.8844 0,16.66666 0,16.66666 0,0 -11.34626,0 -16.66666,-8e-4 -4.15494,8e-4 -16.66667,0 -16.66667,0 0,0 0,-11.61606 0,-16.66626 4e-4,-9.2042 7.46193,-16.66627 16.66627,-16.66627 9.20466,0 16.66706,7.462 16.66706,16.66667 z m -100,0 c 0,-3.88474 0,-16.66667 0,-16.66667 0,0 11.34674,0 16.66667,0 4.15493,0 16.66667,0 16.66667,0 0,0 0,11.6174 0,16.66667 0,9.20426 -7.4624,16.66666 -16.66667,16.66666 -9.20473,0 -16.66667,-7.4624 -16.66667,-16.66666 z M 400,-650 c 0,3.8844 0,16.66666 0,16.66666 0,0 -11.34627,0 -16.66667,-8e-4 -4.15493,8e-4 -16.66666,0 -16.66666,0 0,0 0,-11.61606 0,-16.66626 4e-4,-9.2042 7.46193,-16.66627 16.66626,-16.66627 9.20467,0 16.66707,7.462 16.66707,16.66667 z m -83.33333,-16.66667 c 9.20513,0 16.66666,7.462 16.66666,16.66667 0,9.20513 -7.46153,16.66666 -16.66666,16.66666 C 307.462,-633.33334 300,-640.79487 300,-650 c 0,-9.20467 7.462,-16.66667 16.66667,-16.66667 z M 433.33333,-700 v 33.33333 h 33.33334 C 466.66667,-685.07647 451.7428,-700 433.33333,-700 Z m 0,33.33333 V -700 H 400 c 7e-5,18.40946 14.92353,33.33333 33.33333,33.33333 z m -100,-16.66667 c 0,-3.88473 0,-16.66666 0,-16.66666 0,0 11.34674,0 16.66667,0 4.15493,0 16.66667,0 16.66667,0 0,0 0,11.6174 0,16.66666 0,9.20427 -7.4624,16.66667 -16.66667,16.66667 -9.20473,0 -16.66667,-7.4624 -16.66667,-16.66667 z m 33.33334,-33.33333 c 0,3.8844 0,16.66667 0,16.66667 0,0 -11.34627,0 -16.66667,-8e-4 -4.15493,8e-4 -16.66667,0 -16.66667,0 0,0 0,-11.61607 0,-16.66627 4e-4,-9.2042 7.46194,-16.66627 16.66627,-16.66627 9.20467,0 16.66707,7.462 16.66707,16.66667 z m -100,0 c 0,-3.88473 0,-16.66667 0,-16.66667 0,0 11.34673,0 16.66666,0 4.15494,0 16.66667,0 16.66667,0 0,0 0,11.6174 0,16.66667 0,9.20427 -7.4624,16.66667 -16.66667,16.66667 -9.20473,0 -16.66666,-7.4624 -16.66666,-16.66667 z m 50,-16.66667 c -3.88474,0 -16.66667,0 -16.66667,0 0,0 0,-11.34713 0,-16.66666 0,-4.15494 0,-16.66667 0,-16.66667 0,0 11.6174,0 16.66667,0 9.20426,0 16.66666,7.46193 16.66666,16.66667 0,9.20426 -7.4624,16.66666 -16.66666,16.66666 z m -50,0 H 300 v -33.33333 c -18.40927,7e-5 -33.33333,14.9236 -33.33333,33.33333 z m 200,16.66667 c 0,-3.88473 0,-16.66667 0,-16.66667 0,0 11.34673,0 16.66666,0 4.15494,0 16.66667,0 16.66667,0 0,0 0,11.6174 0,16.66667 0,9.20427 -7.4624,16.66667 -16.66667,16.66667 -9.20473,0 -16.66666,-7.4624 -16.66666,-16.66667 z M 400,-733.33334 h 33.33333 V -700 H 400 Z m -200,16.66667 c 0,-3.88473 0,-16.66667 0,-16.66667 0,0 11.34673,0 16.66667,0 4.15493,0 16.66666,0 16.66666,0 0,0 0,11.6174 0,16.66667 0,9.20427 -7.4624,16.66667 -16.66666,16.66667 C 207.46193,-700 200,-707.4624 200,-716.66667 Z m 0,-50 h 33.33333 v 33.33333 H 200 Z M 266.66667,-800 h -33.33334 v 33.33333 c 18.40947,0 33.33334,-14.92386 33.33334,-33.33333 z M 200,-800 h 33.33333 v 33.33333 H 200 Z m 33.33333,-33.33333 V -800 h 33.33334 c 0,-18.4098 -14.92387,-33.33333 -33.33334,-33.33333 z M 200,-800 h 33.33333 v -33.33333 C 214.92407,-833.33327 200,-818.40973 200,-800 Z m 266.66667,33.33333 H 500 v 33.33333 H 466.66667 Z M 433.33333,-750 c 0,3.8844 0,16.66666 0,16.66666 0,0 -11.34626,0 -16.66666,-8e-4 -4.15494,8e-4 -16.66667,0 -16.66667,0 0,0 0,-11.61606 0,-16.66626 4e-4,-9.2042 7.46193,-16.66627 16.66627,-16.66627 9.20466,0 16.66706,7.462 16.66706,16.66667 z m 333.33334,-50 h -33.33334 v 33.33333 c 18.40947,0 33.33334,-14.92386 33.33334,-33.33333 z M 700,-800 h 33.33333 v 33.33333 H 700 Z m -33.33333,0 H 700 v 33.33333 h -33.33333 z m -33.33334,0 h 33.33334 v 33.33333 H 633.33333 Z M 600,-800 h 33.33333 v 33.33333 H 600 Z m -33.33333,0 H 600 v 33.33333 h -33.33333 z m -33.33334,0 h 33.33334 v 33.33333 H 533.33333 Z M 500,-800 h 33.33333 v 33.33333 H 500 Z m -33.33333,33.33333 H 500 V -800 c -18.40927,7e-5 -33.33333,14.9236 -33.33333,33.33333 z m -100,-16.66666 c 0,-3.88474 0,-16.66667 0,-16.66667 0,0 11.34673,0 16.66666,0 4.15494,0 16.66667,0 16.66667,0 0,0 0,11.6174 0,16.66667 0,9.20426 -7.4624,16.66666 -16.66667,16.66666 -9.20473,0 -16.66666,-7.4624 -16.66666,-16.66666 z m 0,-50 V -800 H 400 c 0,-18.4098 -14.92387,-33.33333 -33.33333,-33.33333 z m -33.33334,0 h 33.33334 V -800 h -33.33334 z m -16.66666,0 c 3.88466,0 16.66666,0 16.66666,0 0,0 0,11.34546 0,16.66666 0,4.15367 0,16.66667 0,16.66667 0,0 -11.6146,0 -16.66666,0 C 307.45873,-800 300,-807.46527 300,-816.66667 c 0,-9.20246 7.45873,-16.66666 16.66667,-16.66666 z m 416.66666,0 h 33.33334 V -800 H 733.33333 Z M 700,-800 h 33.33333 v -33.33333 C 714.92407,-833.33327 700,-818.40973 700,-800 Z m -100,-16.66667 c 0,3.8844 0,16.66667 0,16.66667 0,0 -11.34627,0 -16.66667,-8e-4 -4.15493,8e-4 -16.66666,0 -16.66666,0 0,0 0,-11.61607 0,-16.66627 4e-4,-9.2042 7.46193,-16.66626 16.66626,-16.66626 9.20467,0 16.66707,7.462 16.66707,16.66666 z m -66.66667,0 c 0,3.8844 0,16.66667 0,16.66667 0,0 -11.34626,0 -16.66666,-8e-4 -4.15494,8e-4 -16.66667,0 -16.66667,0 0,0 0,-11.61607 0,-16.66627 4e-4,-9.2042 7.46193,-16.66626 16.66627,-16.66626 9.20466,0 16.66706,7.462 16.66706,16.66666 z m 200,-50 h 33.33334 v 33.33334 h -33.33334 z m -50,0 c 9.20514,0 16.66667,7.462 16.66667,16.66667 0,9.20513 -7.46153,16.66667 -16.66667,16.66667 -9.20466,0 -16.66666,-7.46154 -16.66666,-16.66667 0,-9.20467 7.462,-16.66667 16.66666,-16.66667 z M 600,-850 c 0,-3.88473 0,-16.66667 0,-16.66667 0,0 11.34673,0 16.66667,0 4.15493,0 16.66666,0 16.66666,0 0,0 0,11.6174 0,16.66667 0,9.20427 -7.4624,16.66667 -16.66666,16.66667 C 607.46193,-833.33333 600,-840.79573 600,-850 Z m -116.66667,16.66667 c -3.88473,0 -16.66666,0 -16.66666,0 0,0 0,-11.34714 0,-16.66667 0,-4.15493 0,-16.66667 0,-16.66667 0,0 11.6174,0 16.66666,0 9.20427,0 16.66667,7.46194 16.66667,16.66667 0,9.20427 -7.4624,16.66667 -16.66667,16.66667 z m -50,-33.33334 h 33.33334 v 33.33334 h -33.33334 z m -16.66666,0 c 3.88466,0 16.66666,0 16.66666,0 0,0 0,11.34547 0,16.66667 0,4.15367 0,16.66667 0,16.66667 0,0 -11.6146,0 -16.66666,0 C 407.45873,-833.33333 400,-840.7986 400,-850 c 0,-9.20247 7.45873,-16.66667 16.66667,-16.66667 z m -133.33334,0 c 9.20514,0 16.66667,7.462 16.66667,16.66667 0,9.20513 -7.46153,16.66667 -16.66667,16.66667 -9.20466,0 -16.66666,-7.46154 -16.66666,-16.66667 0,-9.20467 7.462,-16.66667 16.66666,-16.66667 z m 450,-33.33333 h 33.33334 v 33.33333 h -33.33334 z m 0,33.33333 V -900 H 700 c 7e-5,18.40947 14.92353,33.33333 33.33333,33.33333 z m -83.33333,0 c -3.88473,0 -16.66667,0 -16.66667,0 0,0 0,-11.34713 0,-16.66666 0,-4.15494 0,-16.66667 0,-16.66667 0,0 11.6174,0 16.66667,0 9.20427,0 16.66667,7.46193 16.66667,16.66667 0,9.20426 -7.4624,16.66666 -16.66667,16.66666 z M 600,-900 h 33.33333 v 33.33333 H 600 Z m -50,33.33333 c -3.88473,0 -16.66667,0 -16.66667,0 0,0 0,-11.34713 0,-16.66666 0,-4.15494 0,-16.66667 0,-16.66667 0,0 11.6174,0 16.66667,0 9.20427,0 16.66667,7.46193 16.66667,16.66667 0,9.20426 -7.4624,16.66666 -16.66667,16.66666 z m -16.66667,0 V -900 H 500 c 7e-5,18.40947 14.92353,33.33333 33.33333,33.33333 z m -66.66666,-16.66666 c 0,3.8844 0,16.66666 0,16.66666 0,0 -11.34627,0 -16.66667,-8e-4 -4.15493,8e-4 -16.66667,0 -16.66667,0 0,0 0,-11.61606 0,-16.66626 4e-4,-9.2042 7.46194,-16.66627 16.66627,-16.66627 9.20467,0 16.66707,7.462 16.66707,16.66667 z m -100,-16.66667 h -33.33334 v 33.33333 c 18.40947,0 33.33334,-14.92386 33.33334,-33.33333 z m -50,0 c 3.88466,0 16.66666,0 16.66666,0 0,0 0,11.34547 0,16.66667 0,4.15366 0,16.66666 0,16.66666 0,0 -11.6146,0 -16.66666,0 -9.20794,0 -16.66667,-7.46526 -16.66667,-16.66666 C 300,-892.5358 307.45873,-900 316.66667,-900 Z M 200,-883.33333 c 0,-3.88474 0,-16.66667 0,-16.66667 0,0 11.34673,0 16.66667,0 4.15493,0 16.66666,0 16.66666,0 0,0 0,11.6174 0,16.66667 0,9.20426 -7.4624,16.66666 -16.66666,16.66666 -9.20474,0 -16.66667,-7.4624 -16.66667,-16.66666 z m 533.33333,-50 V -900 h 33.33334 c 0,-18.4098 -14.92387,-33.33333 -33.33334,-33.33333 z M 700,-900 h 33.33333 v -33.33333 C 714.92407,-933.33327 700,-918.40973 700,-900 Z m -66.66667,-16.66667 c 0,3.8844 0,16.66667 0,16.66667 0,0 -11.34626,0 -16.66666,-8e-4 -4.15494,8e-4 -16.66667,0 -16.66667,0 0,0 0,-11.61607 0,-16.66627 4e-4,-9.2042 7.46193,-16.66626 16.66627,-16.66626 9.20466,0 16.66706,7.462 16.66706,16.66666 z M 500,-933.33333 V -900 h 33.33333 c 0,-18.4098 -14.92386,-33.33333 -33.33333,-33.33333 z m -16.66667,0 c 3.88467,0 16.66667,0 16.66667,0 0,0 0,11.34546 0,16.66666 0,4.15367 0,16.66667 0,16.66667 0,0 -11.6146,0 -16.66667,0 -9.20793,0 -16.66666,-7.46527 -16.66666,-16.66667 0,-9.20246 7.45873,-16.66666 16.66666,-16.66666 z m -66.66666,0 c 9.20513,0 16.66666,7.462 16.66666,16.66666 0,9.20514 -7.46153,16.66667 -16.66666,16.66667 C 407.462,-900 400,-907.46153 400,-916.66667 c 0,-9.20466 7.462,-16.66666 16.66667,-16.66666 z m -50,16.66666 c 0,3.8844 0,16.66667 0,16.66667 0,0 -11.34627,0 -16.66667,-8e-4 -4.15493,8e-4 -16.66667,0 -16.66667,0 0,0 0,-11.61607 0,-16.66627 4e-4,-9.2042 7.46194,-16.66626 16.66627,-16.66626 9.20467,0 16.66707,7.462 16.66707,16.66666 z m -83.33334,-16.66666 c 9.20514,0 16.66667,7.462 16.66667,16.66666 0,9.20514 -7.46153,16.66667 -16.66667,16.66667 -9.20466,0 -16.66666,-7.46153 -16.66666,-16.66667 0,-9.20466 7.462,-16.66666 16.66666,-16.66666 z m -50,16.66666 c 0,3.8844 0,16.66667 0,16.66667 0,0 -11.34626,0 -16.66666,-8e-4 -4.15494,8e-4 -16.66667,0 -16.66667,0 0,0 0,-11.61607 0,-16.66627 4e-4,-9.2042 7.46193,-16.66626 16.66627,-16.66626 9.20466,0 16.66706,7.462 16.66706,16.66666 z M 400,-533.33334 H 366.66667 V -500 C 385.07614,-500 400,-514.92387 400,-533.33334 Z m 583.33334,666.66667 c 9.20513,0 16.66666,7.462 16.66666,16.6667 0,9.2051 -7.46153,16.6666 -16.66666,16.6666 -9.20467,0 -16.66667,-7.4615 -16.66667,-16.6666 0,-9.2047 7.462,-16.6667 16.66667,-16.6667 z m -183.33334,0 h -33.33333 v 33.3333 c 18.40946,0 33.33333,-14.9238 33.33333,-33.3333 z m -33.33333,33.3333 v -33.3333 h -33.33333 c 6e-5,18.4095 14.92353,33.3333 33.33333,33.3333 z m -116.66667,0 c -3.88473,0 -16.66666,0 -16.66666,0 0,0 0,-11.3471 0,-16.6666 0,-4.155 0,-16.6667 0,-16.6667 0,0 11.6174,0 16.66666,0 9.20427,0 16.66667,7.4619 16.66667,16.6667 0,9.2042 -7.4624,16.6666 -16.66667,16.6666 z m -50,-33.3333 h 33.33334 v 33.3333 H 600 Z m 0,33.3333 v -33.3333 h -33.33333 c 7e-5,18.4095 14.92353,33.3333 33.33333,33.3333 z m 266.66667,-49.99997 c 0,-3.88473 0,-16.66666 0,-16.66666 0,0 11.34673,0 16.66666,0 4.15494,0 16.66667,0 16.66667,0 0,0 0,11.6174 0,16.66666 0,9.20427 -7.4624,16.66667 -16.66667,16.66667 -9.20473,0 -16.66666,-7.4624 -16.66666,-16.66667 z M 766.66667,100 H 800 v 33.33333 h -33.33333 z m -33.33333,33.33333 h 33.33333 V 100 c -18.40927,6e-5 -33.33333,14.9236 -33.33333,33.33333 z M 600,100 h 33.33334 v 33.33333 H 600 Z m -33.33333,0 H 600 v 33.33333 H 566.66667 Z M 1016.6667,66.666663 c 9.2051,0 16.6666,7.462 16.6666,16.66667 0,9.20513 -7.4615,16.666667 -16.6666,16.666667 C 1007.462,100 1000,92.538463 1000,83.333333 c 0,-9.20467 7.462,-16.66667 16.6667,-16.66667 z m -83.33337,0 H 900 V 100 c 18.40947,0 33.33333,-14.923867 33.33333,-33.333337 z m -66.66666,0 H 900 V 100 h -33.33333 z m 0,33.333337 V 66.666663 H 833.33333 C 833.3334,85.076133 848.25687,100 866.66667,100 Z m -100,-33.333337 H 800 V 100 H 766.66667 Z M 683.33334,100 c -3.88474,0 -16.66667,0 -16.66667,0 0,0 0,-11.347137 0,-16.666667 0,-4.15493 0,-16.66667 0,-16.66667 0,0 11.6174,0 16.66667,0 9.20426,0 16.66666,7.46194 16.66666,16.66667 C 700,92.537603 692.5376,100 683.33334,100 Z m -50,-33.333337 h 33.33333 V 100 h -33.33333 z m -33.33334,0 h 33.33334 V 100 H 600 Z m 383.33334,-33.33333 c 9.20513,0 16.66666,7.462 16.66666,16.66667 0,9.20513 -7.46153,16.66666 -16.66666,16.66666 -9.20467,0 -16.66667,-7.46153 -16.66667,-16.66666 0,-9.20467 7.462,-16.66667 16.66667,-16.66667 z m -83.33334,0 h 33.33333 v 33.33333 H 900 Z m -66.66667,0 h 33.33334 v 33.33333 h -33.33334 z m -33.33333,0 h 33.33333 v 33.33333 H 800 Z m -33.33333,0 H 800 v 33.33333 h -33.33333 z m -33.33333,0 h 33.33333 v 33.33333 h -33.33333 z m -16.66667,0 c 3.88467,0 16.66667,0 16.66667,0 0,0 0,11.34547 0,16.66667 0,4.15366 0,16.66666 0,16.66666 0,0 -11.6146,0 -16.66667,0 -9.20793,0 -16.66667,-7.46526 -16.66667,-16.66666 0,-9.20247 7.45874,-16.66667 16.66667,-16.66667 z m -83.33333,0 v 33.33333 h 33.33333 c 0,-18.4098 -14.92387,-33.33333 -33.33333,-33.33333 z M 600,66.666663 h 33.33334 V 33.333333 C 614.92407,33.333403 600,48.256933 600,66.666663 Z m 350,-33.33333 c -3.88473,0 -16.66667,0 -16.66667,0 0,0 0,-11.34713 0,-16.66667 0,-4.15493 0,-16.6666596666667 0,-16.6666596666667 0,0 11.6174,0 16.66667,0 9.20427,-10e-14 16.66667,7.4619299666667 16.66667,16.6666596666667 0,9.20427 -7.4624,16.66667 -16.66667,16.66667 z M 900,3.3333332e-6 h 33.33333 V 33.333333 H 900 Z m -33.33333,0 H 900 V 33.333333 h -33.33333 z m -33.33334,0 h 33.33334 V 33.333333 h -33.33334 z m -33.33333,0 h 33.33333 V 33.333333 H 800 Z m -33.33333,0 H 800 V 33.333333 h -33.33333 z m -33.33333,0 h 33.33333 V 33.333333 h -33.33333 z m -133.33334,0 H 566.66667 V 33.333333 C 585.07614,33.333333 600,18.409463 600,3.3333332e-6 Z M 566.66667,33.333333 V 3.3333332e-6 H 533.33334 C 533.3334,18.409463 548.25687,33.333333 566.66667,33.333333 Z m 300,-66.66667 H 900 V 3.3333333e-6 h -33.33333 z m -133.33333,0 h 33.33333 V 3.3333333e-6 h -33.33333 z m -33.33334,0 H 666.66667 V 3.3333333e-6 C 685.07614,3.3333333e-6 700,-14.923867 700,-33.333337 Z m -66.66666,0 h 33.33333 V 3.3333333e-6 h -33.33333 z m -33.33334,0 h 33.33334 V 3.3333333e-6 H 600 Z m -33.33333,0 H 600 V 3.3333333e-6 h -33.33333 z m -33.33333,0 h 33.33333 V 3.3333333e-6 h -33.33333 z m -33.33334,0 h 33.33334 V 3.3333333e-6 H 500 Z m -33.33333,0 H 500 V 3.3333333e-6 h -33.33333 z m 500,-16.66666 c 0,-3.88474 0,-16.66667 0,-16.66667 0,0 11.34673,0 16.66667,0 4.15493,0 16.66666,0 16.66666,0 0,0 0,11.6174 0,16.66667 0,9.20426 -7.4624,16.66666 -16.66666,16.66666 -9.20474,0 -16.66667,-7.4624 -16.66667,-16.66666 z m -100,-16.66667 H 900 v 33.33333 h -33.33333 z m -50,0 c 9.20513,0 16.66666,7.462 16.66666,16.66667 0,9.20513 -7.46153,16.66666 -16.66666,16.66666 -9.20467,0 -16.66667,-7.46153 -16.66667,-16.66666 0,-9.20467 7.462,-16.66667 16.66667,-16.66667 z m -83.33333,0 h 33.33333 v 33.33333 h -33.33333 z m -33.33334,0 h 33.33334 v 33.33333 H 700 Z m -33.33333,0 H 700 v 33.33333 h -33.33333 z m -33.33333,33.33333 h 33.33333 v -33.33333 c -18.40927,7e-5 -33.33333,14.9236 -33.33333,33.33333 z M 600,-49.999997 c 0,3.8844 0,16.66666 0,16.66666 0,0 -11.34626,0 -16.66666,-8e-4 -4.15494,8e-4 -16.66667,0 -16.66667,0 0,0 0,-11.61606 0,-16.66626 4e-4,-9.2042 7.46193,-16.66627 16.66627,-16.66627 9.20466,0 16.66706,7.462 16.66706,16.66667 z m -100,-16.66667 h 33.33334 v 33.33333 H 500 Z m -33.33333,0 H 500 v 33.33333 h -33.33333 z m 500,-33.33333 H 1000 v 33.33333 h -33.33333 z m -100,0 H 900 v 33.33333 h -33.33333 z m -133.33333,0 h 33.33333 v 33.33333 h -33.33333 z m -233.33334,0 h 33.33334 v 33.33333 H 500 Z m 533.3333,-33.333343 H 1000 v 33.333343 c 18.4095,0 33.3333,-14.923873 33.3333,-33.333343 z m -66.66663,0 H 1000 v 33.333343 h -33.33333 z m -100,0 v 33.333343 H 900 c 0,-18.409803 -14.92387,-33.333343 -33.33333,-33.333343 z m -33.33334,0 h 33.33334 v 33.333343 h -33.33334 z m -33.33333,0 h 33.33333 v 33.333343 H 800 Z m -33.33333,0 H 800 v 33.333343 h -33.33333 z m -33.33333,33.333343 h 33.33333 v -33.333343 c -18.40927,7e-5 -33.33333,14.9236 -33.33333,33.333343 z M 500,-133.33334 h 33.33334 v 33.333343 H 500 Z m 500,-33.33333 h 33.3333 v 33.33333 H 1000 Z m -33.33333,0 H 1000 v 33.33333 H 966.66667 Z M 900,-150 c 0,-3.88474 0,-16.66667 0,-16.66667 0,0 11.34673,0 16.66667,0 4.15493,0 16.66666,0 16.66666,0 0,0 0,11.6174 0,16.66667 0,9.20426 -7.4624,16.66666 -16.66666,16.66666 C 907.46193,-133.33334 900,-140.79574 900,-150 Z m -66.66667,0 c 0,3.8844 0,16.66666 0,16.66666 0,0 -11.34626,0 -16.66666,-8e-4 -4.15494,8e-4 -16.66667,0 -16.66667,0 0,0 0,-11.61606 0,-16.66626 4e-4,-9.2042 7.46193,-16.66627 16.66627,-16.66627 9.20466,0 16.66706,7.462 16.66706,16.66667 z m -116.66666,16.66666 c -3.88473,0 -16.66667,0 -16.66667,0 0,0 0,-11.34713 0,-16.66666 0,-4.15494 0,-16.66667 0,-16.66667 0,0 11.6174,0 16.66667,0 9.20427,0 16.66667,7.46193 16.66667,16.66667 0,9.20426 -7.4624,16.66666 -16.66667,16.66666 z m -50,-33.33333 H 700 v 33.33333 h -33.33333 z m -33.33333,0 h 33.33333 v 33.33333 h -33.33333 z m -33.33334,0 h 33.33334 v 33.33333 H 600 Z m -33.33333,0 H 600 v 33.33333 h -33.33333 z m -33.33333,0 h 33.33333 v 33.33333 h -33.33333 z m -33.33334,0 h 33.33334 v 33.33333 H 500 Z m -16.66666,0 c 3.88466,0 16.66666,0 16.66666,0 0,0 0,11.34547 0,16.66667 0,4.15366 0,16.66666 0,16.66666 0,0 -11.6146,0 -16.66666,0 -9.20794,0 -16.66667,-7.46526 -16.66667,-16.66666 0,-9.20247 7.45873,-16.66667 16.66667,-16.66667 z M 66.666667,-150 c 0,-3.88474 0,-16.66667 0,-16.66667 0,0 11.34673,0 16.66667,0 4.15493,0 16.66666,0 16.66666,0 0,0 0,11.6174 0,16.66667 0,9.20426 -7.4624,16.66666 -16.66666,16.66666 -9.20474,0 -16.66667,-7.4624 -16.66667,-16.66666 z M 1000,-200 h 33.3333 v 33.33333 H 1000 Z m -33.33333,0 H 1000 v 33.33333 h -33.33333 z m -33.33334,0 h 33.33334 v 33.33333 H 933.33333 Z M 900,-200 h 33.33333 v 33.33333 H 900 Z m -33.33333,0 H 900 v 33.33333 H 866.66667 Z M 850,-200 c 3.88467,0 16.66667,0 16.66667,0 0,0 0,11.34546 0,16.66666 0,4.15367 0,16.66667 0,16.66667 0,0 -11.6146,0 -16.66667,0 -9.20793,0 -16.66667,-7.46527 -16.66667,-16.66667 C 833.33333,-192.5358 840.79207,-200 850,-200 Z m -66.66667,0 c 9.20514,0 16.66667,7.462 16.66667,16.66666 0,9.20514 -7.46153,16.66667 -16.66667,16.66667 -9.20466,0 -16.66666,-7.46153 -16.66666,-16.66667 0,-9.20466 7.462,-16.66666 16.66666,-16.66666 z m -116.66666,0 H 700 v 33.33333 H 666.66667 Z M 500,-200 h 33.33334 v 33.33333 H 500 Z m -50,0 c 9.20514,0 16.66667,7.462 16.66667,16.66666 0,9.20514 -7.46153,16.66667 -16.66667,16.66667 -9.20466,0 -16.66666,-7.46153 -16.66666,-16.66667 C 433.33334,-192.538 440.79534,-200 450,-200 Z m -83.33333,16.66666 c 0,-3.88473 0,-16.66666 0,-16.66666 0,0 11.34673,0 16.66667,0 4.15493,0 16.66666,0 16.66666,0 0,0 0,11.6174 0,16.66666 0,9.20427 -7.4624,16.66667 -16.66666,16.66667 -9.20474,0 -16.66667,-7.4624 -16.66667,-16.66667 z m -183.33333,16.66667 c -3.88474,0 -16.66667,0 -16.66667,0 0,0 0,-11.34713 0,-16.66667 0,-4.15493 0,-16.66666 0,-16.66666 0,0 11.6174,0 16.66667,0 9.20426,0 16.66666,7.46193 16.66666,16.66666 0,9.20427 -7.4624,16.66667 -16.66666,16.66667 z m -50,-33.33333 h 33.33333 v 33.33333 h -33.33333 z m -33.333343,0 h 33.333343 v 33.33333 H 99.999997 Z m -33.33333,33.33333 h 33.33333 V -200 c -18.40926,6e-5 -33.33333,14.9236 -33.33333,33.33333 z M 1000,-233.33334 h 33.3333 V -200 H 1000 Z m -66.66667,0 h 33.33334 V -200 h -33.33334 z m -116.66666,0 c 9.20513,0 16.66666,7.462 16.66666,16.66667 0,9.20513 -7.46153,16.66667 -16.66666,16.66667 C 807.462,-200 800,-207.46154 800,-216.66667 c 0,-9.20467 7.462,-16.66667 16.66667,-16.66667 z m -66.66667,0 c 9.20514,0 16.66667,7.462 16.66667,16.66667 0,9.20513 -7.46153,16.66667 -16.66667,16.66667 -9.20466,0 -16.66666,-7.46154 -16.66666,-16.66667 0,-9.20467 7.462,-16.66667 16.66666,-16.66667 z m -50,16.66667 c 0,3.8844 0,16.66667 0,16.66667 0,0 -11.34626,0 -16.66666,-8e-4 -4.15494,8e-4 -16.66667,0 -16.66667,0 0,0 0,-11.61607 0,-16.66627 4e-4,-9.2042 7.46193,-16.66627 16.66627,-16.66627 9.20466,0 16.66706,7.462 16.66706,16.66667 z m -83.33333,-16.66667 c 9.20513,0 16.66667,7.462 16.66667,16.66667 0,9.20513 -7.46154,16.66667 -16.66667,16.66667 C 607.462,-200 600,-207.46154 600,-216.66667 c 0,-9.20467 7.462,-16.66667 16.66667,-16.66667 z m -116.66667,0 V -200 h 33.33334 c 0,-18.4098 -14.92387,-33.33334 -33.33334,-33.33334 z m -16.66666,0 c 3.88466,0 16.66666,0 16.66666,0 0,0 0,11.34547 0,16.66667 0,4.15367 0,16.66667 0,16.66667 0,0 -11.6146,0 -16.66666,0 -9.20794,0 -16.66667,-7.46527 -16.66667,-16.66667 0,-9.20247 7.45873,-16.66667 16.66667,-16.66667 z m -116.66667,0 H 400 V -200 h -33.33333 z m -266.666673,0 H 133.33334 V -200 H 99.999997 Z m -66.66666,16.66667 c 0,-3.88473 0,-16.66667 0,-16.66667 0,0 11.34673,0 16.66666,0 4.15494,0 16.66667,0 16.66667,0 0,0 0,11.6174 0,16.66667 0,9.20427 -7.4624,16.66667 -16.66667,16.66667 -9.20473,0 -16.66666,-7.4624 -16.66666,-16.66667 z m 966.666663,-50 h 33.3333 v 33.33333 H 1000 Z m -66.66667,0 v 33.33333 h 33.33334 c 0,-18.4098 -14.92387,-33.33333 -33.33334,-33.33333 z m -16.66666,0 c 3.88466,0 16.66666,0 16.66666,0 0,0 0,11.34547 0,16.66667 0,4.15366 0,16.66666 0,16.66666 0,0 -11.6146,0 -16.66666,0 C 907.45873,-233.33334 900,-240.7986 900,-250 c 0,-9.20247 7.45873,-16.66667 16.66667,-16.66667 z M 833.33333,-250 c 0,-3.88474 0,-16.66667 0,-16.66667 0,0 11.34674,0 16.66667,0 4.15493,0 16.66667,0 16.66667,0 0,0 0,11.6174 0,16.66667 0,9.20426 -7.4624,16.66666 -16.66667,16.66666 -9.20473,0 -16.66667,-7.4624 -16.66667,-16.66666 z m -66.66666,0 c 0,-3.88474 0,-16.66667 0,-16.66667 0,0 11.34673,0 16.66666,0 4.15494,0 16.66667,0 16.66667,0 0,0 0,11.6174 0,16.66667 0,9.20426 -7.4624,16.66666 -16.66667,16.66666 -9.20473,0 -16.66666,-7.4624 -16.66666,-16.66666 z m -400,-16.66667 H 400 v 33.33333 H 366.66667 Z M 300,-250 c 0,-3.88474 0,-16.66667 0,-16.66667 0,0 11.34674,0 16.66667,0 4.15493,0 16.66667,0 16.66667,0 0,0 0,11.6174 0,16.66667 0,9.20426 -7.4624,16.66666 -16.66667,16.66666 C 307.46194,-233.33334 300,-240.79574 300,-250 Z m -150,16.66666 c -3.88473,0 -16.66666,0 -16.66666,0 0,0 0,-11.34713 0,-16.66666 0,-4.15494 0,-16.66667 0,-16.66667 0,0 11.6174,0 16.66666,0 9.20427,0 16.66667,7.46193 16.66667,16.66667 0,9.20426 -7.4624,16.66666 -16.66667,16.66666 z m -50.000003,-33.33333 h 33.333343 v 33.33333 H 99.999997 Z m -66.66666,0 v 33.33333 h 33.33333 c 0,-18.4098 -14.92387,-33.33333 -33.33333,-33.33333 z m -16.66667,0 c 3.88467,0 16.66667,0 16.66667,0 0,0 0,11.34547 0,16.66667 0,4.15366 0,16.66666 0,16.66666 0,0 -11.6146,0 -16.66667,0 -9.2079303,0 -16.6666703333332,-7.46526 -16.6666703333332,-16.66666 0,-9.20247 7.4587400333332,-16.66667 16.6666703333332,-16.66667 z M -66.666663,-250 c 0,-3.88474 0,-16.66667 0,-16.66667 0,0 11.34673,0 16.66666,0 4.15494,0 16.66667,0 16.66667,0 0,0 0,11.6174 0,16.66667 0,9.20426 -7.4624,16.66666 -16.66667,16.66666 -9.20473,0 -16.66666,-7.4624 -16.66666,-16.66666 z M 1000,-300 h 33.3333 v 33.33333 H 1000 Z m -100,0 h -33.33333 v 33.33333 C 885.07613,-266.66667 900,-281.59054 900,-300 Z m -66.66667,33.33333 h 33.33334 V -300 c -18.40927,6e-5 -33.33334,14.9236 -33.33334,33.33333 z M 766.66667,-300 H 800 v 33.33333 h -33.33333 z m -100,0 h -33.33333 v 33.33333 c 18.40946,0 33.33333,-14.92387 33.33333,-33.33333 z m -33.33333,33.33333 V -300 H 600 c 7e-5,18.40946 14.92354,33.33333 33.33334,33.33333 z m -333.33334,0 h 33.33334 V -300 C 314.92407,-299.99994 300,-285.0764 300,-266.66667 Z m -166.66666,-16.66667 c 0,3.8844 0,16.66667 0,16.66667 0,0 -11.34627,0 -16.66667,-8e-4 -4.15493,8e-4 -16.666673,0 -16.666673,0 0,0 0,-11.61607 0,-16.66627 C 100.0004,-292.53794 107.46194,-300 116.66627,-300 c 9.20467,0 16.66707,7.462 16.66707,16.66666 z m -150.000003,16.66667 c -3.88474,0 -16.66667,0 -16.66667,0 0,0 0,-11.34713 0,-16.66667 0,-4.15493 0,-16.66666 0,-16.66666 0,0 11.6174,0 16.66667,0 9.2042597,0 16.6666596666439,7.46193 16.6666596666439,16.66666 0,9.20427 -7.4623999666439,16.66667 -16.6666596666439,16.66667 z m -50,-33.33333 h 33.33333 v 33.33333 h -33.33333 z M 1033.3333,-316.66667 c 0,3.8844 0,16.66667 0,16.66667 0,0 -11.3462,0 -16.6666,-8e-4 -4.155,8e-4 -16.6667,0 -16.6667,0 0,0 0,-11.61607 0,-16.66627 4e-4,-9.2042 7.4619,-16.66627 16.6663,-16.66627 9.2046,0 16.667,7.462 16.667,16.66667 z m -99.99997,-16.66667 H 900 V -300 c 18.40947,0 33.33333,-14.92387 33.33333,-33.33334 z M 866.66667,-300 H 900 v -33.33334 c -18.40927,7e-5 -33.33333,14.9236 -33.33333,33.33334 z m -50,0 c -3.88474,0 -16.66667,0 -16.66667,0 0,0 0,-11.34714 0,-16.66667 0,-4.15493 0,-16.66667 0,-16.66667 0,0 11.6174,0 16.66667,0 9.20426,0 16.66666,7.46194 16.66666,16.66667 0,9.20427 -7.4624,16.66667 -16.66666,16.66667 z m -50,-33.33334 H 800 V -300 h -33.33333 z m 0,33.33334 v -33.33334 h -33.33333 c 6e-5,18.40947 14.92353,33.33334 33.33333,33.33334 z m -83.33333,0 c -3.88474,0 -16.66667,0 -16.66667,0 0,0 0,-11.34714 0,-16.66667 0,-4.15493 0,-16.66667 0,-16.66667 0,0 11.6174,0 16.66667,0 9.20426,0 16.66666,7.46194 16.66666,16.66667 C 700,-307.4624 692.5376,-300 683.33334,-300 Z m -50,-33.33334 h 33.33333 V -300 h -33.33333 z m -666.666673,16.66667 c 0,3.8844 0,16.66667 0,16.66667 0,0 -11.34627,0 -16.66667,-8e-4 -4.15493,8e-4 -16.66666,0 -16.66666,0 0,0 0,-11.61607 0,-16.66627 4e-4,-9.2042 7.46193,-16.66627 16.66626,-16.66627 9.20467,0 16.66707,7.462 16.66707,16.66667 z M 933.33333,-350 c 0,3.8844 0,16.66666 0,16.66666 0,0 -11.34626,0 -16.66666,-8e-4 -4.15494,8e-4 -16.66667,0 -16.66667,0 0,0 0,-11.61606 0,-16.66626 4e-4,-9.2042 7.46193,-16.66627 16.66627,-16.66627 9.20466,0 16.66706,7.462 16.66706,16.66667 z m -166.66666,0 c 0,3.8844 0,16.66666 0,16.66666 0,0 -11.34627,0 -16.66667,-8e-4 -4.15493,8e-4 -16.66666,0 -16.66666,0 0,0 0,-11.61606 0,-16.66626 4e-4,-9.2042 7.46193,-16.66627 16.66626,-16.66627 9.20467,0 16.66707,7.462 16.66707,16.66667 z m 50,-16.66667 c -3.88474,0 -16.66667,0 -16.66667,0 0,0 0,-11.34713 0,-16.66667 0,-4.15493 0,-16.66666 0,-16.66666 0,0 11.6174,0 16.66667,0 9.20426,0 16.66666,7.46193 16.66666,16.66666 0,9.20427 -7.4624,16.66667 -16.66666,16.66667 z M 783.33333,-400 c 3.88467,0 16.66667,0 16.66667,0 0,0 0,11.34546 0,16.66666 0,4.15367 0,16.66667 0,16.66667 0,0 -11.6146,0 -16.66667,0 -9.20793,0 -16.66666,-7.46527 -16.66666,-16.66667 0,-9.20246 7.45873,-16.66666 16.66666,-16.66666 z m -99.99999,0 c 9.20513,0 16.66666,7.462 16.66666,16.66666 0,9.20514 -7.46153,16.66667 -16.66666,16.66667 -9.20467,0 -16.66667,-7.46153 -16.66667,-16.66667 0,-9.20466 7.462,-16.66666 16.66667,-16.66666 z m -16.66667,-33.33334 H 633.33334 V -400 c 18.40946,0 33.33333,-14.92387 33.33333,-33.33334 z m 50,0 c -3.88473,0 -16.66667,0 -16.66667,0 0,0 0,-11.34713 0,-16.66666 0,-4.15494 0,-16.66667 0,-16.66667 0,0 11.6174,0 16.66667,0 9.20427,0 16.66667,7.46193 16.66667,16.66667 0,9.20426 -7.4624,16.66666 -16.66667,16.66666 z m -50,-33.33333 H 700 v 33.33333 h -33.33333 z m -33.33333,33.33333 h 33.33333 v -33.33333 c -18.40927,7e-5 -33.33333,14.9236 -33.33333,33.33333 z M 87.004333,-66.648 H 12.995667 v 0 c -36.068667,0 -66.626,23.830333 -76.395667,56.401333 -1.010333,3.3693337 -1.799,6.8320003 -2.347333,10.371667 -0.604334,3.906 -0.919334,7.9053333 -0.919334,11.977 V 87.867667 C -66.666667,131.312 -30.92,166.641 12.995667,166.641 L 50,166.648 87.004333,166.639 c 43.913337,0 79.662337,-35.329 79.662337,-78.773337 V 12.102 c 0,-43.423333 -35.74667,-78.75 -79.662337,-78.75 z M 131.66667,87.867667 c 0,24.136003 -20.034,43.773333 -44.67167,43.773333 L 50,131.648 13.005,131.639 c -24.637667,0 -44.671667,-19.63734 -44.671667,-43.771003 V 12.102 c 0,-7.539 1.955334,-14.637 5.397,-20.839 3.313334,-5.966333 8.001,-11.097333 13.645334,-14.982333 C -5.3676667,-28.715 3.4686667,-31.648 12.993333,-31.648 h 74.011 c 24.628337,0 44.662337,19.625667 44.662337,43.75 z m 385,45.465663 c 9.20513,0 16.66666,7.462 16.66666,16.66667 0,9.20513 -7.46153,16.66667 -16.66666,16.66667 C 507.462,166.66667 500,159.20513 500,150 c 0,-9.20467 7.462,-16.66667 16.66667,-16.66667 z m -66.66667,0 c 9.20513,0 16.66667,7.462 16.66667,16.66667 0,9.20513 -7.46154,16.66667 -16.66667,16.66667 -9.20467,0 -16.66667,-7.46154 -16.66667,-16.66667 0,-9.20467 7.462,-16.66667 16.66667,-16.66667 z m -66.66667,0 c 9.20514,0 16.66667,7.462 16.66667,16.66667 0,9.20513 -7.46153,16.66667 -16.66667,16.66667 -9.20466,0 -16.66666,-7.46154 -16.66666,-16.66667 0,-9.20467 7.462,-16.66667 16.66666,-16.66667 z M 300,150 c 0,-3.88473 0,-16.66667 0,-16.66667 0,0 11.34673,0 16.66667,0 4.15493,0 16.66666,0 16.66666,0 0,0 0,11.6174 0,16.66667 0,9.20427 -7.4624,16.66667 -16.66666,16.66667 C 307.46193,166.66667 300,159.20427 300,150 Z m -66.66667,0 c 0,-3.88473 0,-16.66667 0,-16.66667 0,0 11.34674,0 16.66667,0 4.15493,0 16.66667,0 16.66667,0 0,0 0,11.6174 0,16.66667 0,9.20427 -7.4624,16.66667 -16.66667,16.66667 -9.20473,0 -16.66667,-7.4624 -16.66667,-16.66667 z M 566.66667,133.33333 V 100 h -33.33334 c 7e-5,18.40947 14.92354,33.33333 33.33334,33.33333 z m -100,-16.66666 c 0,-3.88474 0,-16.66667 0,-16.66667 0,0 11.34673,0 16.66666,0 4.15494,0 16.66667,0 16.66667,0 0,0 0,11.6174 0,16.66667 0,9.20426 -7.4624,16.66666 -16.66667,16.66666 -9.20473,0 -16.66666,-7.4624 -16.66666,-16.66666 z m -50,-16.66667 c 9.20513,0 16.66666,7.462 16.66666,16.66667 0,9.20513 -7.46153,16.66666 -16.66666,16.66666 C 407.462,133.33333 400,125.8718 400,116.66667 400,107.462 407.462,100 416.66667,100 Z M 350,133.33333 c -3.88473,0 -16.66667,0 -16.66667,0 0,0 0,-11.34713 0,-16.66666 0,-4.15494 0,-16.66667 0,-16.66667 0,0 11.6174,0 16.66667,0 9.20427,0 16.66667,7.46193 16.66667,16.66667 0,9.20426 -7.4624,16.66666 -16.66667,16.66666 z M 300,100 h 33.33333 v 33.33333 H 300 Z m -33.33333,0 H 300 v 33.33333 h -33.33333 z m -33.33334,33.33333 h 33.33334 V 100 c -18.40927,7e-5 -33.33334,14.9236 -33.33334,33.33333 z m 300,-66.666663 V 100 h 33.33334 c 0,-18.4098 -14.92387,-33.333333 -33.33334,-33.333333 z m -33.33333,0 h 33.33333 V 100 H 500 Z M 466.66667,100 H 500 V 66.666667 C 481.59073,66.666733 466.66667,81.590267 466.66667,100 Z M 383.33333,66.666667 c 9.20514,0 16.66667,7.462 16.66667,16.666666 C 400,92.538467 392.53847,100 383.33333,100 c -9.20466,0 -16.66666,-7.461533 -16.66666,-16.666667 0,-9.204666 7.462,-16.666666 16.66666,-16.666666 z m -83.33333,0 h 33.33333 V 100 H 300 Z m -33.33333,0 H 300 V 100 H 266.66667 Z M 533.33333,50 c 0,3.8844 0,16.666667 0,16.666667 0,0 -11.34626,0 -16.66666,-8e-4 -4.15494,8e-4 -16.66667,0 -16.66667,0 0,0 0,-11.616067 0,-16.666267 4e-4,-9.2042 7.46193,-16.666267 16.66627,-16.666267 9.20466,0 16.66706,7.462 16.66706,16.666667 z M 366.66667,33.333333 h -33.33334 v 33.333334 c 18.40947,0 33.33334,-14.923867 33.33334,-33.333334 z m -66.66667,0 h 33.33333 V 66.666667 H 300 Z m -33.33333,0 H 300 v 33.333334 h -33.33333 z m -50,0 c 9.20513,0 16.66666,7.462 16.66666,16.666667 0,9.205133 -7.46153,16.666667 -16.66666,16.666667 C 207.462,66.666667 200,59.205133 200,50 c 0,-9.204667 7.462,-16.666667 16.66667,-16.666667 z M 433.33333,0 H 400 v 33.333333 c 18.40947,0 33.33333,-14.923866 33.33333,-33.333333 z M 366.66667,0 H 400 v 33.333333 h -33.33333 z m -33.33334,0 h 33.33334 V 33.333333 H 333.33333 Z M 300,0 h 33.33333 V 33.333333 H 300 Z M 266.66667,0 H 300 V 33.333333 H 266.66667 Z M 250,0 c 3.88467,0 16.66667,0 16.66667,0 0,0 0,11.345467 0,16.666667 0,4.153666 0,16.666666 0,16.666666 0,0 -11.6146,0 -16.66667,0 -9.20793,0 -16.66667,-7.465266 -16.66667,-16.666666 C 233.33333,7.4642 240.79207,0 250,0 Z m 183.33333,-33.333333 h 33.33334 V 0 h -33.33334 z m -33.33333,0 h 33.33333 V 0 H 400 Z M 300,-16.666667 C 300,-12.782267 300,0 300,0 c 0,0 -11.34627,0 -16.66667,-8e-4 -4.15493,8e-4 -16.66666,0 -16.66666,0 0,0 0,-11.616067 0,-16.666267 4e-4,-9.2042 7.46193,-16.666266 16.66626,-16.666266 9.20467,0 16.66707,7.462 16.66707,16.666666 z m 133.33333,-50 h 33.33334 v 33.333334 h -33.33334 z m -33.33333,0 h 33.33333 v 33.333334 H 400 Z m -33.33333,0 H 400 v 33.333334 h -33.33333 z m -33.33334,0 h 33.33334 v 33.333334 h -33.33334 z m -16.66666,0 c 3.88466,0 16.66666,0 16.66666,0 0,0 0,11.345467 0,16.666667 0,4.153667 0,16.666667 0,16.666667 0,0 -11.6146,0 -16.66666,0 C 307.45873,-33.333333 300,-40.7986 300,-50 c 0,-9.202467 7.45873,-16.666667 16.66667,-16.666667 z M 433.33333,-100 v 33.333333 h 33.33334 C 466.66667,-85.076467 451.7428,-100 433.33333,-100 Z M 400,-100 h 33.33333 v 33.333333 H 400 Z m -33.33333,0 H 400 v 33.333333 h -33.33333 z m -33.33334,0 h 33.33334 v 33.333333 h -33.33334 z m -66.66666,0 h -33.33334 v 33.333333 c 18.40947,0 33.33334,-14.923866 33.33334,-33.333333 z m -50,0 c 3.88466,0 16.66666,0 16.66666,0 0,0 0,11.345467 0,16.666667 0,4.153666 0,16.666666 0,16.666666 0,0 -11.6146,0 -16.66666,0 C 207.45873,-66.666667 200,-74.131933 200,-83.333333 200,-92.5358 207.45873,-100 216.66667,-100 Z m 216.66666,-16.66667 c 0,3.8844 0,16.66667 0,16.66667 0,0 -11.34626,0 -16.66666,-8e-4 -4.15494,8e-4 -16.66667,0 -16.66667,0 0,0 0,-11.61607 0,-16.66627 4e-4,-9.2042 7.46193,-16.66626 16.66627,-16.66626 9.20466,0 16.66706,7.462 16.66706,16.66666 z m -100,-16.66666 V -100 h 33.33334 c 0,-18.4098 -14.92387,-33.33333 -33.33334,-33.33333 z m -16.66666,0 c 3.88466,0 16.66666,0 16.66666,0 0,0 0,11.34546 0,16.66666 0,4.15367 0,16.66667 0,16.66667 0,0 -11.6146,0 -16.66666,0 C 307.45873,-100 300,-107.46527 300,-116.66667 c 0,-9.20246 7.45873,-16.66666 16.66667,-16.66666 z m -83.33334,0 h 33.33334 V -100 h -33.33334 z m -50,33.33333 c -3.88473,0 -16.66666,0 -16.66666,0 0,0 0,-11.34713 0,-16.66667 0,-4.15493 0,-16.66666 0,-16.66666 0,0 11.6174,0 16.66666,0 9.20427,0 16.66667,7.46193 16.66667,16.66666 C 200,-107.4624 192.5376,-100 183.33333,-100 Z m -50,-33.33333 h 33.33334 V -100 h -33.33334 z m -16.66666,0 c 3.88466,0 16.66666,0 16.66666,0 0,0 0,11.34546 0,16.66666 0,4.15367 0,16.66667 0,16.66667 0,0 -11.6146,0 -16.66666,0 C 107.45873,-100 100,-107.46527 100,-116.66667 c 0,-9.20246 7.45873,-16.66666 16.66667,-16.66666 z m -100.000003,0 c 9.205133,0 16.666666,7.462 16.666666,16.66666 C 33.333333,-107.46153 25.8718,-100 16.666667,-100 7.462,-100 0,-107.46153 0,-116.66667 c 0,-9.20466 7.462,-16.66666 16.666667,-16.66666 z m -66.666667,0 c 9.205133,0 16.666667,7.462 16.666667,16.66666 0,9.20514 -7.461534,16.66667 -16.666667,16.66667 -9.204667,0 -16.666667,-7.46153 -16.666667,-16.66667 0,-9.20466 7.462,-16.66666 16.666667,-16.66666 z M 266.66667,-150 c 0,3.8844 0,16.66667 0,16.66667 0,0 -11.34627,0 -16.66667,-8e-4 -4.15493,8e-4 -16.66667,0 -16.66667,0 0,0 0,-11.61607 0,-16.66627 4e-4,-9.2042 7.46194,-16.66627 16.66627,-16.66627 9.20467,0 16.66707,7.462 16.66707,16.66667 z m -300.000003,0 c 0,-3.88473 0,-16.66667 0,-16.66667 0,0 11.346733,0 16.666666,0 4.154934,0 16.666667,0 16.666667,0 0,0 0,11.6174 0,16.66667 0,9.20427 -7.4624,16.66667 -16.666667,16.66667 -9.204733,0 -16.666666,-7.4624 -16.666666,-16.66667 z m 50,-16.66667 c -3.884734,0 -16.666667,0 -16.666667,0 0,0 0,-11.34713 0,-16.66666 C 0,-187.48827 0,-200 0,-200 c 0,0 11.6174,0 16.666667,0 9.204266,0 16.666666,7.46193 16.666666,16.66667 0,9.20426 -7.4624,16.66666 -16.666666,16.66666 z m -50,-33.33333 H 0 v 33.33333 H -33.333333 Z M -50,-200 c 3.884667,0 16.666667,0 16.666667,0 0,0 0,11.34547 0,16.66667 0,4.15366 0,16.66666 0,16.66666 0,0 -11.6146,0 -16.666667,0 -9.207933,0 -16.666667,-7.46526 -16.666667,-16.66666 C -66.666667,-192.5358 -59.207933,-200 -50,-200 Z m 333.33333,0 c -3.88473,0 -16.66666,0 -16.66666,0 0,0 0,-11.34713 0,-16.66667 0,-4.15493 0,-16.66666 0,-16.66666 0,0 11.6174,0 16.66666,0 9.20427,0 16.66667,7.46193 16.66667,16.66666 C 300,-207.4624 292.5376,-200 283.33333,-200 Z m -16.66666,0 v -33.33333 h -33.33334 c 7e-5,18.40946 14.92354,33.33333 33.33334,33.33333 z m 0,-50 c 0,3.8844 0,16.66667 0,16.66667 0,0 -11.34627,0 -16.66667,-8e-4 -4.15493,8e-4 -16.66667,0 -16.66667,0 0,0 0,-11.61607 0,-16.66627 4e-4,-9.2042 7.46194,-16.66627 16.66627,-16.66627 9.20467,0 16.66707,7.462 16.66707,16.66667 z M -33.333333,-566.66667 H 0 v 33.33334 H -33.333333 Z M 333.33333,-300 h 33.33334 v 33.33333 h -33.33334 z m -16.66666,-133.33333 c 3.88466,0 16.66666,0 16.66666,0 0,0 0,11.34546 0,16.66666 0,4.15367 0,16.66667 0,16.66667 0,0 -11.6146,0 -16.66666,0 C 307.45873,-400 300,-407.46527 300,-416.66667 c 0,-9.20246 7.45873,-16.66666 16.66667,-16.66666 z m 16.66666,-50 c 0,-3.88474 0,-16.66667 0,-16.66667 0,0 11.34674,0 16.66667,0 4.15493,0 16.66667,0 16.66667,0 0,0 0,11.6174 0,16.66667 0,9.20426 -7.4624,16.66666 -16.66667,16.66666 -9.20473,0 -16.66667,-7.4624 -16.66667,-16.66666 z M 550,-266.66667 c 9.20513,0 16.66667,7.462 16.66667,16.66667 0,9.20513 -7.46154,16.66667 -16.66667,16.66667 -9.20467,0 -16.66667,-7.46154 -16.66667,-16.66667 0,-9.20467 7.462,-16.66667 16.66667,-16.66667 z M 483.33333,-300 c 9.20514,0 16.66667,7.462 16.66667,16.66667 0,9.20513 -7.46153,16.66666 -16.66667,16.66666 -9.20466,0 -16.66666,-7.46153 -16.66666,-16.66666 0,-9.20467 7.462,-16.66667 16.66666,-16.66667 z m -116.66666,0 H 400 v 33.33333 H 366.66667 Z M 600,-300 h 33.33333 v -33.33333 C 614.92407,-333.33327 600,-318.40973 600,-300 Z m -100,-16.66667 c 0,-3.88473 0,-16.66666 0,-16.66666 0,0 11.34673,0 16.66667,0 4.15493,0 16.66666,0 16.66666,0 0,0 0,11.6174 0,16.66666 0,9.20427 -7.4624,16.66667 -16.66666,16.66667 C 507.46193,-300 500,-307.4624 500,-316.66667 Z m -66.66667,0 c 0,-3.88473 0,-16.66666 0,-16.66666 0,0 11.34674,0 16.66667,0 4.15493,0 16.66667,0 16.66667,0 0,0 0,11.6174 0,16.66666 0,9.20427 -7.4624,16.66667 -16.66667,16.66667 -9.20473,0 -16.66667,-7.4624 -16.66667,-16.66667 z m -33.33333,0 c 0,3.8844 0,16.66667 0,16.66667 0,0 -11.34627,0 -16.66667,-8e-4 -4.15493,8e-4 -16.66666,0 -16.66666,0 0,0 0,-11.61607 0,-16.66627 4e-4,-9.2042 7.46193,-16.66626 16.66626,-16.66626 9.20467,0 16.66707,7.462 16.66707,16.66666 z M 533.33333,-350 c 0,3.8844 0,16.66667 0,16.66667 0,0 -11.34626,0 -16.66666,-8e-4 -4.15494,8e-4 -16.66667,0 -16.66667,0 0,0 0,-11.61607 0,-16.66627 4e-4,-9.2042 7.46193,-16.66627 16.66627,-16.66627 9.20466,0 16.66706,7.462 16.66706,16.66667 z m -100,-16.66667 h 33.33334 v 33.33334 H 433.33333 Z M 600,-400 h -33.33333 v 33.33333 C 585.07613,-366.66667 600,-381.59053 600,-400 Z m -50,0 c 3.88467,0 16.66667,0 16.66667,0 0,0 0,11.34547 0,16.66667 0,4.15366 0,16.66666 0,16.66666 0,0 -11.6146,0 -16.66667,0 -9.20793,0 -16.66667,-7.46526 -16.66667,-16.66666 C 533.33333,-392.5358 540.79207,-400 550,-400 Z m -50,0 h -33.33333 v 33.33333 C 485.07613,-366.66667 500,-381.59053 500,-400 Z m -66.66667,0 h 33.33334 v 33.33333 h -33.33334 z m -100,16.66667 c 0,-3.88474 0,-16.66667 0,-16.66667 0,0 11.34674,0 16.66667,0 4.15493,0 16.66667,0 16.66667,0 0,0 0,11.6174 0,16.66667 0,9.20426 -7.4624,16.66666 -16.66667,16.66666 -9.20473,0 -16.66667,-7.4624 -16.66667,-16.66666 z m 266.66667,-50 h 33.33333 V -400 H 600 Z M 566.66667,-400 H 600 v -33.33333 c -18.40927,6e-5 -33.33333,14.9236 -33.33333,33.33333 z m -33.33334,-33.33333 H 500 V -400 c 18.40947,0 33.33333,-14.92387 33.33333,-33.33333 z m -66.66666,0 H 500 V -400 h -33.33333 z m -33.33334,0 h 33.33334 V -400 h -33.33334 z m -33.33333,0 H 366.66667 V -400 C 385.07613,-400 400,-414.92387 400,-433.33333 Z m -66.66667,0 h 33.33334 V -400 H 333.33333 Z M 500,-466.66667 h 33.33333 v 33.33334 H 500 Z m -33.33333,0 H 500 v 33.33334 h -33.33333 z m -33.33334,0 h 33.33334 v 33.33334 h -33.33334 z m -33.33333,0 h 33.33333 v 33.33334 H 400 Z m -33.33333,33.33334 H 400 v -33.33334 c -18.40927,7e-5 -33.33333,14.9236 -33.33333,33.33334 z M 500,-500 h 33.33333 v 33.33333 H 500 Z m -33.33333,0 H 500 v 33.33333 h -33.33333 z m -33.33334,0 h 33.33334 v 33.33333 H 433.33333 Z M 400,-466.66667 h 33.33333 V -500 C 414.92407,-499.99993 400,-485.0764 400,-466.66667 Z m 133.33333,-50 c 0,3.8844 0,16.66667 0,16.66667 0,0 -11.34626,0 -16.66666,-8e-4 -4.15494,8e-4 -16.66667,0 -16.66667,0 0,0 0,-11.61607 0,-16.66627 4e-4,-9.2042 7.46193,-16.66626 16.66627,-16.66626 9.20466,0 16.66706,7.462 16.66706,16.66666 z" />
		</g>
		
	</g>
</g>
</g></g><g
     transform="matrix(0.66,0,0,0.66,660,660)"
     width="660"
     height="660"
     id="g5763"
     style="display:inline"><svg
   version="1.1"
   width="1000"
   height="1000"
   viewBox="0 0 1000 1000"
   id="svg6742">
  <defs
   id="defs6744" />
  <metadata
   id="metadata6747">
    <rdf:RDF>
      <cc:Work
   rdf:about="">
        <dc:format>image/svg+xml</dc:format>
        <dc:type
   rdf:resource="http://purl.org/dc/dcmitype/StillImage" />
        
      </cc:Work>
    </rdf:RDF>
  </metadata>
  <g
   transform="translate(0,-52.362183)"
   id="layer1">
    <g
   id="g7077">
      <path
   d="M 1.283015e-5,552.35764 C 1.283015e-5,276.21666 223.85266,52.362194 499.99363,52.362194 c 276.15009,0 500.00456,223.854466 500.00456,499.995446 0,276.15009 -223.85447,500.00456 -500.00456,500.00456 C 223.85266,1052.3622 1.283015e-5,828.50773 1.283015e-5,552.35764"
   id="path3842"
   style="fill:#0088aa;fill-opacity:1;fill-rule:nonzero;stroke:none" />
      <path
   d="m 260.14021,498.60723 -63.29684,-62.69558 c 77.61348,-76.35537 184.49684,-123.54947 302.52378,-123.54947 118.68127,0 226.08506,47.712 303.78948,124.80758 l -63.15536,62.56169 C 678.04085,439.48639 593.18442,402.26871 499.496,402.26871 c -93.10232,0 -177.49137,36.75537 -239.35579,96.33852 z m 239.60589,73.10653 c 46.2139,0 88.12295,18.11874 118.99705,47.53769 l 63.15032,-62.56169 c -46.6181,-46.25431 -111.06442,-74.88253 -182.26862,-74.88253 -70.81517,0 -134.94822,28.31495 -181.51832,74.12716 l 63.29684,62.70064 c 30.80084,-29.05264 72.44968,-46.92127 118.34273,-46.92127 z m 1.88969,113.70695 c -29.81052,0 -53.97979,23.93937 -53.97979,53.46947 0,29.5301 24.16673,53.472 53.97979,53.472 29.808,0 53.97474,-23.9419 53.97474,-53.472 0,-29.5301 -24.16421,-53.46947 -53.97474,-53.46947 z"
   id="path3"
   style="fill:#ffffff" />
    </g>
  </g>
</svg>
</g></g></svg>
