<?xml version="1.0" encoding="UTF-8" standalone="no"?>
<svg
   height="40"
   width="40"
   version="1.1"
   id="svg667"
   sodipodi:docname="wifi_inside.svg"
   inkscape:version="1.2.1 (9c6d41e410, 2022-07-14)"
   xmlns:inkscape="http://www.inkscape.org/namespaces/inkscape"
   xmlns:sodipodi="http://sodipodi.sourceforge.net/DTD/sodipodi-0.dtd"
   xmlns="http://www.w3.org/2000/svg"
   xmlns:svg="http://www.w3.org/2000/svg">
  <defs
     id="defs671" />
  <sodipodi:namedview
     id="namedview669"
     pagecolor="#ffffff"
     bordercolor="#000000"
     borderopacity="0.25"
     inkscape:showpageshadow="2"
     inkscape:pageopacity="0.0"
     inkscape:pagecheckerboard="true"
     inkscape:deskcolor="#d1d1d1"
     showgrid="false"
     inkscape:zoom="14.937631"
     inkscape:cx="15.59819"
     inkscape:cy="19.079331"
     inkscape:window-width="1920"
     inkscape:window-height="1011"
     inkscape:window-x="0"
     inkscape:window-y="32"
     inkscape:window-maximized="1"
     inkscape:current-layer="svg667" />
  <circle
     style="fill:#000000;stroke-width:10"
     id="path4302"
     cx="20"
     cy="20"
     r="20" />
  <path
     d="m 10.919288,22.635352 q -0.537383,-0.537383 -0.554302,-1.326136 -0.01611,-0.788752 0.588141,-1.259264 2.014179,-1.644376 4.245889,-2.500805 2.232516,-0.855624 4.784079,-0.855624 2.551562,0 4.784078,0.838705 2.23171,0.83951 4.245889,2.484691 0.604254,0.503545 0.621173,1.275378 0.01692,0.771834 -0.587334,1.343055 -0.537383,0.536577 -1.326136,0.570415 -0.788752,0.03384 -1.426844,-0.436674 -1.543667,-1.174669 -3.105059,-1.695133 -1.560586,-0.520464 -3.205767,-0.520464 -1.645182,0 -3.205768,0.520464 -1.561392,0.520464 -3.105059,1.695133 -0.638091,0.470513 -1.426844,0.436674 -0.788753,-0.03384 -1.326136,-0.570415 z m -5.6735399,-5.67354 q -0.5365773,-0.570415 -0.5534964,-1.376087 -0.016919,-0.805672 0.5534964,-1.309217 3.0212684,-2.618432 6.7813389,-4.129067 3.76007,-1.5106342 7.956008,-1.5106342 4.195938,0 7.956007,1.5106342 3.76007,1.510635 6.781339,4.129067 0.604253,0.503545 0.587334,1.292298 -0.01692,0.788752 -0.587334,1.393006 -0.537383,0.537383 -1.326136,0.570416 -0.788753,0.03384 -1.393006,-0.469707 -2.618433,-2.148726 -5.606669,-3.357234 -2.987431,-1.208507 -6.411535,-1.208507 -3.424105,0 -6.411535,1.208507 -2.988237,1.208508 -5.5728315,3.357234 -0.638092,0.503545 -1.426845,0.469707 -0.788752,-0.03303 -1.3261354,-0.570416 z M 19.983095,31.363193 q -1.275379,0 -2.215597,-0.940219 -0.940219,-0.939413 -0.940219,-2.248629 0,-1.276184 0.940219,-2.198678 0.940218,-0.9233 2.215597,-0.9233 1.275378,0 2.215597,0.9233 0.940218,0.922494 0.940218,2.198678 0,1.309216 -0.940218,2.248629 -0.940219,0.940219 -2.215597,0.940219 z"
     id="path665"
     style="fill:#ffffff;stroke-width:0.805672" />
</svg>
